<?xml version="1.0" encoding="utf-8"?>
<!-- Generator: Adobe Illustrator 23.0.3, SVG Export Plug-In . SVG Version: 6.00 Build 0)  -->
<svg version="1.1" id="marketing-icon" xmlns="http://www.w3.org/2000/svg" xmlns:xlink="http://www.w3.org/1999/xlink" x="0px"
	 y="0px" viewBox="0 0 75 75" style="enable-background:new 0 0 75 75;" xml:space="preserve">
<style type="text/css">
	.st0{fill:#191919;}
</style>
<g>
	<path class="st0" d="M63.9,26.6c0-4.5-2.8-7.3-7.4-7.3c-0.3,0-0.6,0-1,0l-0.8,0l-0.9,0h-1v-1c0-0.2,0-0.4,0-0.6c0-0.3,0-0.6,0-0.8
		c-0.1-4.2-3-7.1-7.2-7.1c-4.9,0-9.9,0-14.8,0c-4.9,0-9.9,0-14.8,0C11.9,9.8,9,12.7,9,17c0,10.4,0,20.8,0,31.1
		c0,4.2,2.9,7.1,7.2,7.2c0.3,0,0.6,0,1,0l0.8,0l1,0h0.9l0.1,0.9c0,0.2,0,0.3,0,0.4c0,0.2,0,0.4,0,0.6c0.1,5,2.8,7.6,7.8,7.6l3.9,0
		c4,0,8,0,12,0c4.2,0,8.5,0,12.7,0c4.6,0,7.5-2.8,7.5-7.4C64,46.6,64,36.5,63.9,26.6z M20.1,52.3v0.9v1.1L19,54.2
		c-0.5,0-1,0-1.5-0.1c-1.1,0-2.2-0.1-3.3-0.3c-2.5-0.5-4.2-2.8-4.2-5.7c0-8.6-0.1-19.9,0-31.4c0-3.5,2.5-5.9,5.9-5.9
		c5.3,0,10.3,0,15.1,0c5.1,0,10.1,0,14.8,0.1c1.7,0,3.2,0.6,4.2,1.8c1.2,1.3,1.7,3.3,1.5,5.8l-0.1,0.9h-0.9l-0.9,0l-0.8,0l-0.9,0
		l-6.1,0c-4.8,0-9.6,0-14.3,0c-4.8,0-7.6,2.8-7.6,7.6l0,17.1l0,7.1V52.3z M62.9,56.9c0,4.6-2.3,6.8-6.9,6.8c-4.6,0-9.2,0-13.8,0
		c-4.7,0-9.4,0-14.1,0c-4.8,0-7-2.2-7-7c0-3.5,0-6.9,0-10.4l0-4.5l0-4.5c0-3.5,0-6.9,0-10.4c0-4.3,2.3-6.6,6.6-6.6
		c4.8,0,9.6,0,14.4,0c4.8,0,9.5,0,14.3,0c4.2,0,6.5,2.4,6.5,6.6C62.9,37.1,62.9,47.2,62.9,56.9z"/>
	<path class="st0" d="M53.9,35.1c-0.2,0-0.5,0-0.6,0.1c-0.1,0-0.2,0.2-0.3,0.4c-0.1,0.1-0.2,0.2-0.3,0.3c-3.4,3.3-6.8,6.5-10.2,9.8
		l-2.6,2.5l-0.5,0.5l-0.5-0.5L37,46.3c-1.5-1.5-2.9-3.1-4.3-4.6c-0.4-0.4-0.7-0.6-1-0.6c-0.2,0-0.3,0.1-0.5,0.3
		c-0.2,0.2-0.3,0.4-0.3,0.5c0,0.3,0.2,0.6,0.6,1.1c1.1,1.2,2.2,2.4,3.3,3.6c1,1.1,2.1,2.2,3.1,3.3c0.4,0.4,0.9,0.9,1.2,0.9
		c0.3,0,0.8-0.5,1.3-0.9c4.3-4.2,8.7-8.4,13-12.5c0.1-0.1,0.3-0.3,0.4-0.4c0.3-0.2,0.6-0.5,0.7-0.7c0.1-0.4,0.1-1,0-1.1
		C54.5,35.2,54.3,35.1,53.9,35.1z"/>
</g>
</svg>
