<?xml version="1.0" encoding="utf-8"?>
<!-- Generator: Adobe Illustrator 23.0.3, SVG Export Plug-In . SVG Version: 6.00 Build 0)  -->
<svg version="1.1" id="marketing-icon" xmlns="http://www.w3.org/2000/svg" xmlns:xlink="http://www.w3.org/1999/xlink" x="0px"
	 y="0px" viewBox="0 0 75 75" style="enable-background:new 0 0 75 75;" xml:space="preserve">
<style type="text/css">
	.st0{fill:#191919;}
</style>
<g>
	<path class="st0" d="M50.1,14.5H38.9v-2.6h-4.5l0,0l-0.3-0.7l0.1-0.1c0.2-0.4,0.3-0.9,0.3-1.3c0-1.8-1.5-3.3-3.3-3.3
		S27.9,8,27.9,9.8c0,0.4,0.1,0.9,0.3,1.3l0.1,0.1l-0.4,0.7H24v2.6h-9.8c-0.4,0-0.8,0.2-1.1,0.5c-0.3,0.4-0.5,0.8-0.5,1.1v48.9
		c0,0.9,0.7,1.6,1.6,1.6h36c0.9,0,1.6-0.7,1.6-1.6V16C51.8,15.1,51.1,14.5,50.1,14.5z M28.7,13l1.1-1.8c-0.3-0.4-0.5-0.9-0.5-1.4
		c0-1.1,1-2.1,2.1-2.1s2.1,1,2.1,2.1c0,0.4-0.1,1-0.5,1.4l1,1.8H38v5.9H25.2l0-0.1L25.1,13H28.7z M39,19.9v-1.2h8.3v42.8H17.3V18.7
		H24v1.2H39z M50.7,64.9c0,0.3-0.2,0.5-0.5,0.5h-36c-0.3,0-0.5-0.2-0.5-0.5V16c0-0.3,0.1-0.4,0.3-0.4l0.1-0.1h10v2.1h-7.7v45h32.1
		v-45H39v-2.1h11.2c0.3,0,0.5,0.2,0.5,0.5L50.7,64.9z"/>
	<rect x="26.2" y="29.9" class="st0" width="16.8" height="1.1"/>
	<rect x="26.2" y="35.8" class="st0" width="16.8" height="1.1"/>
	<rect x="26.2" y="41.6" class="st0" width="16.8" height="1.1"/>
	<rect x="26.2" y="47.6" class="st0" width="16.8" height="1.1"/>
	<path class="st0" d="M20.9,32.1h3.5v-3.5h-3.5V32.1z M22,29.8h1.3V31H22V29.8z"/>
	<path class="st0" d="M20.9,38h3.5v-3.5h-3.5V38z M22,35.6h1.3v1.3H22V35.6z"/>
	<path class="st0" d="M20.9,44h3.5v-3.5h-3.5V44z M22,41.6h1.3v1.3H22V41.6z"/>
	<path class="st0" d="M20.9,49.8h3.5v-3.5h-3.5V49.8z M22,47.5h1.3v1.3H22V47.5z"/>
	<path class="st0" d="M57.9,16.4h-2.1c-0.5,0-0.9,0.4-0.9,0.9V59c0,0.1,0,0.1,0,0.2l0.1,0.1l0,0.1l1.3,5.6h1.2l1.3-5.7l0.1-0.1
		c0,0,0-0.1,0-0.1V17.2C58.8,16.8,58.4,16.4,57.9,16.4z M57.5,59.9l-0.6,2.7l-0.6-2.8L57.5,59.9L57.5,59.9z M57.7,58.5h-1.6V23.7
		h1.6V58.5z M57.7,22.6h-1.6v-2h1.6V22.6z M57.7,19.3h-1.6v-1.9h1.6V19.3z"/>
</g>
</svg>
