<?xml version="1.0" encoding="utf-8"?>
<!-- Generator: Adobe Illustrator 23.0.3, SVG Export Plug-In . SVG Version: 6.00 Build 0)  -->
<svg version="1.1" id="marketing-icon" xmlns="http://www.w3.org/2000/svg" xmlns:xlink="http://www.w3.org/1999/xlink" x="0px"
	 y="0px" viewBox="0 0 75 75" style="enable-background:new 0 0 75 75;" xml:space="preserve">
<style type="text/css">
	.st0{fill:#191919;}
</style>
<path class="st0" d="M66.3,20.9c-0.4-0.4-0.9-0.6-1.5-0.6H52.1h-0.2v-0.2v-1.3c0-1-0.4-2-1.1-2.7c-0.7-0.7-1.6-1.1-2.7-1.1h-9.3
	c-0.1,0-0.2,0-0.2,0c-0.8,0-1.7,0.4-2.5,1c-0.7,0.7-1.1,1.6-1.1,2.7v1.4v0.2h-0.2H22.1c-0.6,0-1.1,0.2-1.5,0.6
	c-0.3,0.3-0.5,0.9-0.5,1.4v2.3V25h-0.2H8.6c-0.4,0-0.9,0.2-1.2,0.5c-0.3,0.3-0.5,0.8-0.5,1.3v32c0,0.3,0.2,0.4,0.4,0.4h27.4
	c0.3,0,0.4-0.2,0.4-0.4v-5.1v-0.2h0.2h29.4c0.6,0,1.1-0.2,1.5-0.6c0.4-0.4,0.6-0.9,0.6-1.5V22.4C66.9,21.8,66.7,21.3,66.3,20.9z
	 M36,20.1v-1.3c0-0.7,0.3-1.4,0.8-2c0.5-0.5,1.3-0.9,2-0.9H48c0.7,0,1.5,0.3,2,0.8c0.5,0.5,0.8,1.3,0.8,2l0,1.3v0.2h-0.2h-0.6h-0.2
	v-0.2v-1.3c0-0.4-0.2-0.9-0.5-1.2C48.9,17.2,48.5,17,48,17h-9.2c-0.4,0-0.9,0.2-1.2,0.5c-0.4,0.4-0.5,0.8-0.5,1.2v1.3v0.2h-0.2h-0.6
	H36V20.1z M45.3,31.1l-3.6-0.1l-0.2,0v-0.2v-9.3v-0.2h0.2h3.6h0.2v0.2v9.3v0.3L45.3,31.1z M45.5,32.1v0.2v4.7v0.2h-0.2h-3.6h-0.2
	v-0.2v-4.7v-0.2h0.2h3.6H45.5z M38.3,20.3h-0.2v-0.2v-1.3c0-0.2,0.1-0.5,0.2-0.6c0.1-0.1,0.3-0.2,0.6-0.2H48c0.2,0,0.5,0.1,0.6,0.2
	c0.1,0.1,0.2,0.3,0.2,0.6v1.3v0.2h-0.2H38.3z M34.2,30.9v27.2v0.2h-0.2H8.1H7.9v-0.2V26.8c0-0.2,0.1-0.4,0.2-0.5
	C8.2,26,8.5,26,8.6,26h20.7h0.2v0.2v2.6c0,0.5,0.1,0.9,0.5,1.2c0.4,0.4,0.8,0.5,1.2,0.5h2.6h0.2V30.9z M30.6,28.9v-1.6v-0.6l0.4,0.4
	l2.2,2.1l0.4,0.4H33h-1.6c-0.2,0-0.4-0.1-0.5-0.2C30.6,29.2,30.6,29,30.6,28.9z M34.9,29.7l-4.5-4.6c0,0-0.1-0.1-0.1-0.1l-0.1,0h-9
	H21v-0.2v-2.3c0-0.3,0.1-0.6,0.3-0.8c0.2-0.2,0.4-0.4,0.8-0.4h18.1h0.2v0.2v14.6v0.2h-0.2h-4.8h-0.2v-0.2v-5.9v-0.2
	C35.1,30,35,29.8,34.9,29.7z M65.9,32.8v18.5c0,0.3-0.1,0.6-0.3,0.8c-0.2,0.2-0.5,0.3-0.8,0.3H35.5h-0.2v-0.2V37.6v-0.2h0.2h4.8h0.2
	v0.2v0.2c0,0.3,0.2,0.4,0.4,0.4h5c0.3,0,0.4-0.2,0.4-0.4v-0.2v-0.2h0.2h10.5c2.6,0,5.1-1,6.9-2.9c0.5-0.5,0.9-1,1.4-1.8l0.5-0.7
	V32.8z M65.9,27.7V28v0.2c-0.1,2.1-1,4.2-2.5,5.7c-1.5,1.6-3.8,2.5-6.1,2.5H46.7h-0.2v-0.2V21.5v-0.2h0.2h18.1
	c0.3,0,0.6,0.1,0.8,0.3c0.2,0.2,0.3,0.5,0.3,0.8V27.7z"/>
</svg>
