<?xml version="1.0" encoding="utf-8"?>
<!-- Generator: Adobe Illustrator 23.0.3, SVG Export Plug-In . SVG Version: 6.00 Build 0)  -->
<svg version="1.1" id="marketing-icon" xmlns="http://www.w3.org/2000/svg" xmlns:xlink="http://www.w3.org/1999/xlink" x="0px"
	 y="0px" viewBox="0 0 75 75" style="enable-background:new 0 0 75 75;" xml:space="preserve">
<style type="text/css">
	.st0{fill:#191919;}
</style>
<path class="st0" d="M62.6,10.5v0.9L32.8,24.2H11.1v1.4H7.5v18.4h3.6v1.4h2.9l1.3,4.3l1.1-0.3l4.9,15.7h13.3l-3.9-12.5h3.2l-2.2-7.1
	l0.8-0.2l0.4,0l0.1,0l29.7,12.8V59h4.9V10.5H62.6z M11.1,42.6H8.7V26.8h2.3V42.6z M16.4,45.3h10.8l-10,2.5L16.4,45.3z M32.9,63.8
	H22.2L17.6,49l9.9-2.4L32.9,63.8z M32.2,51.3h-1.9l-1.6-5l1.7-0.4L32.2,51.3z M32.7,44H12.3V25.4h20.4V44z M62.5,56.7L34.2,44.5V25
	l28.4-12.2V56.7z M66.2,57.7h-2.3v-46h2.3V57.7z"/>
</svg>
