<?xml version="1.0" encoding="utf-8"?>
<!-- Generator: Adobe Illustrator 23.0.3, SVG Export Plug-In . SVG Version: 6.00 Build 0)  -->
<svg version="1.1" id="marketing-icon" xmlns="http://www.w3.org/2000/svg" xmlns:xlink="http://www.w3.org/1999/xlink" x="0px"
	 y="0px" viewBox="0 0 75 75" style="enable-background:new 0 0 75 75;" xml:space="preserve">
<style type="text/css">
	.st0{fill:#191919;}
</style>
<g>
	<path class="st0" d="M35.9,26.2c-6.2,0-11.2,5-11.2,11.2c0,6.2,5,11.2,11.2,11.2c6.2,0,11.2-5.1,11.2-11.2
		C47.2,31.2,42.1,26.2,35.9,26.2z M35.9,47.6c-5.6,0-10.2-4.6-10.2-10.2c0-5.6,4.6-10.2,10.2-10.2c5.6,0,10.2,4.6,10.2,10.2
		C46.1,43,41.6,47.6,35.9,47.6z"/>
	<path class="st0" d="M37.1,29.8l-0.2,0v-0.5h-1.5v0.5H35c-1.8,0-3.2,1.4-3.2,3.2v1.7c0,1,0.6,1.8,1.7,2.5l0.8,0.3l0,0l1,0.4v5.5H35
		c-0.9,0-1.7-0.8-1.7-1.7v-0.5h-1.5v0.5c0,1.8,1.4,3.2,3.2,3.2h0.4v0.6h1.5v-0.6l0.2,0c1.7-0.1,3-1.5,3-3.2v-1.7
		c0-1-0.6-1.8-1.8-2.6l-0.7-0.3l0,0l-0.8-0.3v-5.6l0.3,0c0.9,0.1,1.5,0.8,1.5,1.7v0.5h1.5V33C40.1,31.3,38.8,29.9,37.1,29.8z
		 M35.3,36.3l-1.1-0.4c-0.6-0.4-1-0.8-1-1.2V33c0-0.9,0.8-1.7,1.7-1.7h0.4V36.3z M37.6,38.8c0.7,0.4,1,0.9,1,1.3l0,1.7
		c0,0.9-0.7,1.6-1.5,1.7l-0.3,0v-5L37.6,38.8z"/>
	<path class="st0" d="M58.4,21.5c-0.2-0.2-0.3-0.4-0.4-0.5l0-0.1c-0.3-0.4-0.6-0.7-0.8-1.1c-4.8-6.1-12-9.7-19.7-10
		c-0.5,0-1,0-1.5,0c-2.9,0-5.8,0.4-8.5,1.3l-0.2,0.1c-0.3,0.1-0.7,0.2-1,0.4l-0.3,0.1C15.6,15.7,8.8,25.3,8.5,36.3
		c0,0.2,0,0.4,0,0.7l0,0.5c0,0.4,0,0.7,0,1.1v0.1c0,0.1,0,0.1,0,0.2c0,0.2,0,0.5,0.1,0.7l0,0.4c0,0.1,0,0.3,0,0.4c0,0.1,0,0.2,0,0.3
		l0,0.2c0,0.3,0.1,0.7,0.1,1l0,0.1c0.4,2.3,1,4.6,2,6.7l0.2,0.4c0.1,0.1,0.1,0.3,0.2,0.4C15.3,58,23.5,63.7,33,64.8
		c0.1,0,0.1,0,0.2,0c0.3,0,0.7,0.1,1,0.1l0.5,0c0.2,0,0.3,0,0.5,0l0.4,0c0,0,0,0,0,0c0.1,0,0.1,0,0.2,0c0.1,0,0.2,0,0.2,0
		c5.8,0,11.4-1.8,16.1-5.3l0.1,0c0.3-0.3,0.7-0.5,1.2-0.9c5.7-4.5,9.3-11.2,9.9-18.4l0-0.2c0-0.4,0.1-0.8,0.1-1.1
		c0-0.5,0.1-1,0.1-1.5v0C63.5,31.7,61.7,26.2,58.4,21.5z M28.7,12.3c2.4-0.7,4.8-1.1,7.3-1v0c0.5,0,1,0,1.4,0
		c7.3,0.3,14.2,3.7,18.8,9.5l0.6,0.7l-5.6,4.1L51,25.4c-3.7-4.6-9.2-7.2-15-7.2c0,0,0,0,0,0c-1.7,0-3.4,0.2-5.1,0.7l-0.2,0l-2.1-6.6
		L28.7,12.3z M53.8,37.4c0,5.7-2.8,11.1-7.4,14.5c-3.1,2.2-6.7,3.4-10.5,3.4c0,0,0,0-0.1,0c-9.8,0-17.9-8-17.9-17.9
		c0-7.8,4.9-14.6,12.4-17c1.8-0.6,3.6-0.9,5.5-0.9c0,0,0,0,0,0c5.7,0,11.1,2.8,14.5,7.4C52.6,30,53.8,33.6,53.8,37.4z M50.6,59.1
		c-4.3,2.9-9.4,4.5-14.6,4.5c0,0,0,0,0,0l0,0c-0.1,0-0.2,0-0.3,0l-0.4,0c-0.1,0-0.3,0-0.4,0c-0.1,0-0.1,0-0.2,0l-0.2,0
		c-0.3,0-0.6,0-0.9-0.1l-0.1,0c-9.1-1-16.9-6.5-20.8-14.7c-0.1-0.2-0.1-0.3-0.2-0.5L12,48c-0.9-2-1.5-4.1-1.9-6.3l0-0.1
		c0-0.3-0.1-0.6-0.1-0.9l0-0.2c0-0.1,0-0.2,0-0.2c0-0.1,0-0.3,0-0.4l0-0.3c0-0.2,0-0.5-0.1-0.7l0-0.3c0-0.3,0-0.7,0-1l0-0.5
		c0-0.2,0-0.4,0-0.6c0.3-10.5,6.8-19.6,16.6-23.3l0.3-0.1c0.1,0,0.2-0.1,0.4-0.1l0.2-0.1l2.1,6.6l-0.2,0.1c-7.5,2.8-12.5,10-12.5,18
		c0,10.6,8.6,19.2,19.2,19.2c0,0,0,0,0,0c3.8,0,7.4-1.1,10.6-3.2l0.1-0.1l4.1,5.6L50.6,59.1z M62,38.9c0,0.4-0.1,0.7-0.1,1.1l0,0.1
		c-0.6,6.9-4,13.3-9.4,17.5c-0.2,0.1-0.4,0.3-0.5,0.4l-0.2,0.1l-4.1-5.6l0.1-0.1c4.3-3.5,7-8.6,7.2-14.2l0-0.2h6.9L62,38.9z
		 M61.9,36.7h-6.7l0-0.2c-0.1-3.5-1.2-6.8-3.2-9.7l-0.1-0.1l5.6-4.1l0.1,0.1c2.8,4.1,4.3,8.9,4.5,13.8l0,0.1L61.9,36.7z"/>
</g>
</svg>
