<?xml version="1.0" encoding="utf-8"?>
<!-- Generator: Adobe Illustrator 23.0.3, SVG Export Plug-In . SVG Version: 6.00 Build 0)  -->
<svg version="1.1" id="marketing-icon" xmlns="http://www.w3.org/2000/svg" xmlns:xlink="http://www.w3.org/1999/xlink" x="0px"
	 y="0px" viewBox="0 0 75 75" style="enable-background:new 0 0 75 75;" xml:space="preserve">
<style type="text/css">
	.st0{fill:#191919;}
</style>
<g>
	<path class="st0" d="M64.9,26.8c0-4.5-2.8-7.3-7.4-7.3c-0.3,0-0.6,0-1,0h-0.8h-0.9h-1v-1c0-0.2,0-0.4,0-0.6c0-0.3,0-0.6,0-0.8
		c-0.1-4.2-3-7.1-7.2-7.1c-4.9,0-9.9,0-14.8,0s-9.9,0-14.8,0c-4.1,0-7,2.9-7,7.2c0,10.4,0,20.8,0,31.1c0,4.2,2.9,7.1,7.2,7.2
		c0.3,0,0.6,0,1,0H19h1h0.9l0.1,0.9c0,0.2,0,0.3,0,0.4c0,0.2,0,0.4,0,0.6c0.1,5,2.8,7.6,7.8,7.6h3.9c4,0,8,0,12,0
		c4.2,0,8.5,0,12.7,0c4.6,0,7.5-2.8,7.5-7.4C65,46.8,65,36.7,64.9,26.8z M21.1,52.5v0.9v1.1L20,54.4c-0.5,0-1,0-1.5-0.1
		c-1.1,0-2.2-0.1-3.3-0.3c-2.5-0.5-4.2-2.8-4.2-5.7c0-8.6-0.1-19.9,0-31.4c0-3.5,2.5-5.9,5.9-5.9c5.3,0,10.3,0,15.1,0
		c5.1,0,10.1,0,14.8,0.1c1.7,0,3.2,0.6,4.2,1.8c1.2,1.3,1.7,3.3,1.5,5.8l-0.1,0.9h-0.9h-0.9h-0.8h-0.9h-6.1c-4.8,0-9.6,0-14.3,0
		c-4.8,0-7.6,2.8-7.6,7.6v17.1v7.1v1.1H21.1z M63.9,57.1c0,4.6-2.3,6.8-6.9,6.8s-9.2,0-13.8,0c-4.7,0-9.4,0-14.1,0c-4.8,0-7-2.2-7-7
		c0-3.5,0-6.9,0-10.4V42v-4.5c0-3.5,0-6.9,0-10.4c0-4.3,2.3-6.6,6.6-6.6c4.8,0,9.6,0,14.4,0s9.5,0,14.3,0c4.2,0,6.5,2.4,6.5,6.6
		C63.9,37.3,63.9,47.4,63.9,57.1z"/>
	<path class="st0" d="M54.9,35.3c-0.2,0-0.5,0-0.6,0.1c-0.1,0-0.2,0.2-0.3,0.4c-0.1,0.1-0.2,0.2-0.3,0.3c-3.4,3.3-6.8,6.5-10.2,9.8
		l-2.6,2.5l-0.5,0.5l-0.5-0.5L38,46.5c-1.5-1.5-2.9-3.1-4.3-4.6c-0.4-0.4-0.7-0.6-1-0.6c-0.2,0-0.3,0.1-0.5,0.3s-0.3,0.4-0.3,0.5
		c0,0.3,0.2,0.6,0.6,1.1c1.1,1.2,2.2,2.4,3.3,3.6c1,1.1,2.1,2.2,3.1,3.3c0.4,0.4,0.9,0.9,1.2,0.9s0.8-0.5,1.3-0.9
		c4.3-4.2,8.7-8.4,13-12.5c0.1-0.1,0.3-0.3,0.4-0.4c0.3-0.2,0.6-0.5,0.7-0.7c0.1-0.4,0.1-1,0-1.1C55.5,35.4,55.3,35.3,54.9,35.3z"/>
</g>
</svg>
