<?xml version="1.0" encoding="utf-8"?>
<!-- Generator: Adobe Illustrator 23.0.3, SVG Export Plug-In . SVG Version: 6.00 Build 0)  -->
<svg version="1.1" id="marketing-icon" xmlns="http://www.w3.org/2000/svg" xmlns:xlink="http://www.w3.org/1999/xlink" x="0px"
	 y="0px" viewBox="0 0 75 75" style="enable-background:new 0 0 75 75;" xml:space="preserve">
<style type="text/css">
	.st0{fill:#191919;}
</style>
<path class="st0" d="M61.7,24.1H46.6v-5.9c0-0.3-0.2-0.5-0.5-0.5H29c-0.3,0-0.5,0.2-0.5,0.5v5.9H13.3c-1.8,0-3.3,1.5-3.3,3.3v9.7
	c0,0,0,0,0,0l0,0.1h0c0,0.3,0.2,0.5,0.5,0.5H12v16.7c0,1.7,1.4,3.1,3.1,3.1h44.8c1.7,0,3.1-1.4,3.1-3.1V37.6h1.5
	c0.3,0,0.5-0.2,0.5-0.5v-9.7C65,25.5,63.5,24.1,61.7,24.1z M29.5,18.7h16v5.4h-16V18.7z M59.9,56.3H15.1c-1.1,0-2-0.9-2-2V37.2h5.6
	v2.3c0,0.3,0.2,0.5,0.5,0.5h6.7c0,0,0,0,0,0c0.3,0,0.5-0.2,0.5-0.5l0-2.3h22.3v2.3c0,0.3,0.2,0.5,0.5,0.5h6.7c0,0,0,0,0,0
	c0.3,0,0.5-0.2,0.5-0.5v-2.3h5.6v0l0,17.2C61.9,55.4,61,56.3,59.9,56.3z M19.7,38.9v-3.7h5.6v3.7H19.7z M49.7,38.9v-3.7h5.6v3.7
	H49.7z M64,35.9h-7.6v-1.2c0-0.3-0.3-0.5-0.5-0.5h-6.7c0,0,0,0,0,0c-0.3,0-0.5,0.2-0.5,0.5l0,1.2H26.4l0-1.3c0-0.2-0.3-0.4-0.5-0.4
	h-6.7c0,0,0,0,0,0c-0.1,0-0.3,0.1-0.4,0.2c-0.1,0.1-0.2,0.2-0.2,0.4l0,1.2h-7.6v-8.5c0-1.2,1-2.2,2.2-2.2h48.4c1.2,0,2.2,1,2.2,2.2
	L64,35.9z"/>
</svg>
