<?xml version="1.0" encoding="utf-8"?>
<!-- Generator: Adobe Illustrator 23.0.3, SVG Export Plug-In . SVG Version: 6.00 Build 0)  -->
<svg version="1.1" id="marketing-icon" xmlns="http://www.w3.org/2000/svg" xmlns:xlink="http://www.w3.org/1999/xlink" x="0px"
	 y="0px" viewBox="0 0 75 75" style="enable-background:new 0 0 75 75;" xml:space="preserve">
<style type="text/css">
	.st0{fill:#191919;}
</style>
<g>
	<path class="st0" d="M61.8,39.5l1.4-0.8l-6-10.4l0.6-0.6L47.4,17.3l-0.6,0.6l-10.4-6l-0.8,1.3l-12-3.2l-0.5,1.8H10v38.6v0.7v14
		h53.3V50.4h-2.7l4.4-1.5L61.8,39.5z M59.6,35.2L19.2,48.8l36.2-20.9L59.6,35.2z M54.7,26.6L20,46.7l27.4-27.4L54.7,26.6z
		 M36.9,13.7l8.9,5.1L17.7,47L36.9,13.7z M34.9,14.4L14.4,49.9l0,0l10.3-38.3L34.9,14.4z M11.4,13.2h11.4l-10,37.2h-1.4V13.2z
		 M61.9,63.7H11.4V51.8h50.5V63.7z M18.8,50.4l40.7-13.6L63.2,48l-7,2.4H18.8z"/>
	<path class="st0" d="M15.7,60.5c1.5,0,2.8-1.3,2.8-2.8c0-1.5-1.3-2.8-2.8-2.8c-1.5,0-2.8,1.3-2.8,2.8
		C12.9,59.3,14.2,60.5,15.7,60.5z M15.7,56.3c0.8,0,1.4,0.6,1.4,1.4c0,0.8-0.6,1.4-1.4,1.4c-0.8,0-1.4-0.6-1.4-1.4
		C14.3,56.9,14.9,56.3,15.7,56.3z"/>
</g>
</svg>
