<?xml version="1.0" encoding="utf-8"?>
<!-- Generator: Adobe Illustrator 23.0.3, SVG Export Plug-In . SVG Version: 6.00 Build 0)  -->
<svg version="1.1" id="marketing-icon" xmlns="http://www.w3.org/2000/svg" xmlns:xlink="http://www.w3.org/1999/xlink" x="0px"
	 y="0px" viewBox="0 0 75 75" style="enable-background:new 0 0 75 75;" xml:space="preserve">
<style type="text/css">
	.st0{fill:#191919;}
</style>
<g>
	<path class="st0" d="M49.6,54.8c0,1.9,1.6,3.5,3.5,3.5c1.9,0,3.5-1.6,3.5-3.5c0-1.9-1.6-3.5-3.5-3.5C51.1,51.3,49.6,52.9,49.6,54.8
		z M55.3,54.8c0,1.2-1,2.2-2.2,2.2c-1.2,0-2.2-1-2.2-2.2c0-1.2,1-2.2,2.2-2.2C54.3,52.6,55.3,53.6,55.3,54.8z"/>
	<path class="st0" d="M57.1,23.4c-0.7-0.2-1.4-0.4-1.9-0.9c-0.1-0.1-0.2-0.2-0.3-0.3c-0.8-0.9-2.3-2.4-3.9-2.4c-1.2,0-2-0.2-3.5-3.5
		c-0.6-1.4-2.1-2.4-3.9-2.6c-2.7-0.3-5.6,1-7,3.1c-0.6,0.8-1.4,1.8-2.3,2.8c-2.2,2.6-4.7,5.5-5.1,8.2h-6c-1.2-3.8-2.2-7.3-3.1-10
		c-1.2-4.1-3.8-5.1-5.2-5.3c-2.3-0.4-4.9,0.6-6.3,2.5c-1.1,1.5-1.3,3.2-0.6,4.8l1.2-0.6c-0.7-1.5,0-2.8,0.5-3.4c1.2-1.5,3.2-2.4,5-2
		c1.3,0.2,3.2,1.2,4.1,4.4c3.5,11.3,11.7,38.3,11.7,38.3c0.7,2.6,3,6.1,5.5,6.1c0,0,0.1,0,0.1,0c2-0.1,3.5-2.3,4.3-6.6
		c1.2-6,2.3-7.7,5.5-7.7h3c-2.1,1.4-3.5,3.8-3.5,6.5c0,4.3,3.5,7.8,7.8,7.8s7.8-3.5,7.8-7.8c0-3.1-1.8-5.8-4.4-7
		c10.6-3.1,11.1-19.1,11.1-19.3l0-0.7h-6.7C60.8,24.5,58.6,23.8,57.1,23.4z M35.2,20.5c0.9-1.1,1.8-2.1,2.4-3
		c1.2-1.7,3.6-2.8,5.9-2.6c0.8,0.1,2.3,0.4,2.9,1.8c1.5,3.3,2.5,4.3,4.6,4.3c1.1,0,2.3,1.3,3,2c0.1,0.1,0.2,0.3,0.3,0.3
		c0.7,0.7,1.5,0.9,2.4,1.2c1.6,0.5,2.8,0.9,2.9,3.3H30.4C30.8,25.6,33.2,22.8,35.2,20.5z M39.1,55.7c-0.7,3.5-1.8,5.5-3.1,5.6
		c-1.6,0.1-3.6-2.7-4.3-5.1c0,0-1-3.2-2.4-7.9H42C40.4,49.8,39.7,52.4,39.1,55.7z M59.6,54.8c0,3.6-2.9,6.5-6.5,6.5
		s-6.5-2.9-6.5-6.5c0-3.6,2.9-6.5,6.5-6.5S59.6,51.2,59.6,54.8z M52.6,47H28.9c-1.6-5.2-3.6-11.8-5.5-17.8h42.7
		C65.9,32.4,64.3,47,52.6,47z"/>
</g>
</svg>
