<?xml version="1.0" encoding="utf-8"?>
<!-- Generator: Adobe Illustrator 23.0.3, SVG Export Plug-In . SVG Version: 6.00 Build 0)  -->
<svg version="1.1" id="marketing-icon" xmlns="http://www.w3.org/2000/svg" xmlns:xlink="http://www.w3.org/1999/xlink" x="0px"
	 y="0px" viewBox="0 0 75 75" style="enable-background:new 0 0 75 75;" xml:space="preserve">
<style type="text/css">
	.st0{fill:#191919;}
</style>
<g>
	<path class="st0" d="M66,29.7l0.8-0.8l-0.4-0.4h1v-1.2h-2.2l-1.2-1.2L63.2,27l0.4,0.4H62l-1.2-1.2L59.9,27l0.4,0.4h-1.6l-1.2-1.2
		L56.6,27l0.4,0.4h-1.6l-1.2-1.2L53.3,27l0.4,0.4h-1c-0.3-3.5-3.1-4.5-4.6-4.5h-3.3l-4-3.7H15c-4.1,0-7.5,3.9-7.5,8.8
		c0,4.6,3,8.4,6.9,8.7v19.1h12.1L26,55c-1.1-2-2.5-2.8-3.9-3.2v-5.7h2v-5.4h-2v-3.9h18.6l4-3.7h3.3h0c1.5,0,4.3-1,4.6-4.5h2.2
		l1.2,1.2l0.8-0.8l-0.4-0.4h1.6l1.2,1.2l0.8-0.8l-0.4-0.4h1.6l1.2,1.2l0.8-0.8l-0.4-0.4h1.6L66,29.7z M22.9,41.8v3h-0.8v-3H22.9z
		 M20.9,40.6v5.4v6.6l0.5,0.1c1.3,0.3,2.2,0.8,3.1,1.8h-8.9V36.7h5.4V40.6z M40.3,35.5H15c-3.5,0-6.3-3.4-6.3-7.6
		c0-4.2,2.8-7.6,6.3-7.6h25.3l3.6,3.4v8.5L40.3,35.5z M48,31.8h-3v-7.8H48c0.4,0,3.4,0.2,3.4,3.9C51.5,31.6,48.4,31.8,48,31.8z"/>
	<rect x="15" y="23.6" class="st0" width="5.6" height="1.2"/>
</g>
</svg>
