<?xml version="1.0" encoding="utf-8"?>
<!-- Generator: Adobe Illustrator 23.0.3, SVG Export Plug-In . SVG Version: 6.00 Build 0)  -->
<svg version="1.1" id="marketing-icon" xmlns="http://www.w3.org/2000/svg" xmlns:xlink="http://www.w3.org/1999/xlink" x="0px"
	 y="0px" viewBox="0 0 75 75" style="enable-background:new 0 0 75 75;" xml:space="preserve">
<style type="text/css">
	.st0{fill:#191919;}
</style>
<path class="st0" d="M66.9,21.3c-0.4-0.4-0.9-0.6-1.5-0.6H52.7h-0.2v-0.2v-1.3c0-1-0.4-2-1.1-2.7c-0.7-0.7-1.6-1.1-2.7-1.1h-9.3
	c-0.1,0-0.2,0-0.2,0c-0.8,0-1.7,0.4-2.5,1c-0.7,0.7-1.1,1.6-1.1,2.7v1.4v0.2h-0.2H22.7c-0.6,0-1.1,0.2-1.5,0.6
	c-0.3,0.3-0.5,0.9-0.5,1.4V25v0.4h-0.2H9.2c-0.4,0-0.9,0.2-1.2,0.5c-0.3,0.3-0.5,0.8-0.5,1.3v32c0,0.3,0.2,0.4,0.4,0.4h27.4
	c0.3,0,0.4-0.2,0.4-0.4v-5.1v-0.2h0.2h29.4c0.6,0,1.1-0.2,1.5-0.6c0.4-0.4,0.6-0.9,0.6-1.5v-29C67.5,22.2,67.3,21.7,66.9,21.3z
	 M36.6,20.5v-1.3c0-0.7,0.3-1.4,0.8-2c0.5-0.5,1.3-0.9,2-0.9h9.2c0.7,0,1.5,0.3,2,0.8s0.8,1.3,0.8,2v1.3v0.2h-0.2h-0.6h-0.2v-0.2
	v-1.3c0-0.4-0.2-0.9-0.5-1.2c-0.4-0.3-0.8-0.5-1.3-0.5h-9.2c-0.4,0-0.9,0.2-1.2,0.5c-0.4,0.4-0.5,0.8-0.5,1.2v1.3v0.2h-0.2h-0.6
	h-0.3V20.5z M45.9,31.5l-3.6-0.1h-0.2v-0.2v-9.3v-0.2h0.2h3.6h0.2v0.2v9.3v0.3H45.9z M46.1,32.5v0.2v4.7v0.2h-0.2h-3.6h-0.2v-0.2
	v-4.7v-0.2h0.2h3.6H46.1z M38.9,20.7h-0.2v-0.2v-1.3c0-0.2,0.1-0.5,0.2-0.6c0.1-0.1,0.3-0.2,0.6-0.2h9.1c0.2,0,0.5,0.1,0.6,0.2
	c0.1,0.1,0.2,0.3,0.2,0.6v1.3v0.2h-0.2H38.9z M34.8,31.3v27.2v0.2h-0.2H8.7H8.5v-0.2V27.2c0-0.2,0.1-0.4,0.2-0.5
	c0.1-0.3,0.4-0.3,0.5-0.3h20.7h0.2v0.2v2.6c0,0.5,0.1,0.9,0.5,1.2c0.4,0.4,0.8,0.5,1.2,0.5h2.6h0.2v0.4H34.8z M31.2,29.3v-1.6v-0.6
	l0.4,0.4l2.2,2.1l0.4,0.4h-0.6H32c-0.2,0-0.4-0.1-0.5-0.2C31.2,29.6,31.2,29.4,31.2,29.3z M35.5,30.1L31,25.5l-0.1-0.1h-0.1h-9h-0.2
	v-0.2v-2.3c0-0.3,0.1-0.6,0.3-0.8c0.2-0.2,0.4-0.4,0.8-0.4h18.1H41v0.2v14.6v0.2h-0.2H36h-0.2v-0.2v-5.9v-0.2
	C35.7,30.4,35.6,30.2,35.5,30.1z M66.5,33.2v18.5c0,0.3-0.1,0.6-0.3,0.8c-0.2,0.2-0.5,0.3-0.8,0.3H36.1h-0.2v-0.2V38v-0.2h0.2h4.8
	h0.2V38v0.2c0,0.3,0.2,0.4,0.4,0.4h5c0.3,0,0.4-0.2,0.4-0.4V38v-0.2h0.2h10.5c2.6,0,5.1-1,6.9-2.9c0.5-0.5,0.9-1,1.4-1.8l0.5-0.7
	L66.5,33.2L66.5,33.2z M66.5,28.1v0.3v0.2c-0.1,2.1-1,4.2-2.5,5.7c-1.5,1.6-3.8,2.5-6.1,2.5H47.3h-0.2v-0.2V21.9v-0.2h0.2h18.1
	c0.3,0,0.6,0.1,0.8,0.3c0.2,0.2,0.3,0.5,0.3,0.8C66.5,22.8,66.5,28.1,66.5,28.1z"/>
</svg>
