<?xml version="1.0" encoding="utf-8"?>
<!-- Generator: Adobe Illustrator 23.0.3, SVG Export Plug-In . SVG Version: 6.00 Build 0)  -->
<svg version="1.1" id="marketing-icon" xmlns="http://www.w3.org/2000/svg" xmlns:xlink="http://www.w3.org/1999/xlink" x="0px"
	 y="0px" viewBox="0 0 75 75" style="enable-background:new 0 0 75 75;" xml:space="preserve">
<style type="text/css">
	.st0{fill:#191919;}
</style>
<g>
	<path class="st0" d="M51.8,15.5H40.7v-2.6h-4.5l0,0l-0.3-0.7l0.1-0.1c0.2-0.4,0.3-0.9,0.3-1.3c0-1.8-1.5-3.3-3.3-3.3
		c-1.8,0-3.3,1.5-3.3,3.3c0,0.4,0.1,0.9,0.3,1.3l0.1,0.1l-0.4,0.7h-3.9v2.6H16c-0.4,0-0.8,0.2-1.1,0.5c-0.3,0.4-0.5,0.8-0.5,1.1V66
		c0,0.9,0.7,1.6,1.6,1.6h36c0.9,0,1.6-0.7,1.6-1.6V17C53.5,16.1,52.8,15.5,51.8,15.5z M30.5,14l1.1-1.8c-0.3-0.4-0.5-0.9-0.5-1.4
		c0-1.1,1-2.1,2.1-2.1s2.1,1,2.1,2.1c0,0.4-0.1,1-0.5,1.4l1,1.8h4v5.9H27v-0.1L26.9,14H30.5z M40.8,20.9v-1.2H49v42.8h-30V19.7h6.7
		v1.2C25.8,20.9,40.8,20.9,40.8,20.9z M52.5,65.9c0,0.3-0.2,0.5-0.5,0.5H16c-0.3,0-0.5-0.2-0.5-0.5V17c0-0.3,0.1-0.4,0.3-0.4
		l0.1-0.1h10v2.1h-7.7v45h32.1v-45h-9.5v-2.1H52c0.3,0,0.5,0.2,0.5,0.5V65.9z"/>
	<rect x="28" y="30.9" class="st0" width="16.8" height="1.1"/>
	<rect x="28" y="36.8" class="st0" width="16.8" height="1.1"/>
	<rect x="28" y="42.5" class="st0" width="16.8" height="1.1"/>
	<rect x="28" y="48.5" class="st0" width="16.8" height="1.1"/>
	<path class="st0" d="M22.7,33h3.5v-3.5h-3.5V33z M23.8,30.8h1.3V32h-1.3V30.8z"/>
	<path class="st0" d="M22.7,39h3.5v-3.5h-3.5V39z M23.8,36.5h1.3v1.3h-1.3V36.5z"/>
	<path class="st0" d="M22.7,45h3.5v-3.5h-3.5V45z M23.8,42.5h1.3v1.3h-1.3V42.5z"/>
	<path class="st0" d="M22.7,50.8h3.5v-3.5h-3.5V50.8z M23.8,48.5h1.3v1.3h-1.3V48.5z"/>
	<path class="st0" d="M59.7,17.4h-2.1c-0.5,0-0.9,0.4-0.9,0.9V60c0,0.1,0,0.1,0,0.2l0.1,0.1v0.1L58,66h1.2l1.3-5.7l0.1-0.1v-0.1
		V18.2C60.5,17.8,60.2,17.4,59.7,17.4z M59.2,60.9l-0.6,2.7l-0.6-2.8L59.2,60.9L59.2,60.9z M59.5,59.5h-1.6V24.7h1.6V59.5z
		 M59.5,23.6h-1.6v-2h1.6V23.6z M59.5,20.2h-1.6v-1.9h1.6V20.2z"/>
</g>
</svg>
