<?xml version="1.0" encoding="utf-8"?>
<!-- Generator: Adobe Illustrator 23.0.3, SVG Export Plug-In . SVG Version: 6.00 Build 0)  -->
<svg version="1.1" id="marketing-icon" xmlns="http://www.w3.org/2000/svg" xmlns:xlink="http://www.w3.org/1999/xlink" x="0px"
	 y="0px" viewBox="0 0 75 75" style="enable-background:new 0 0 75 75;" xml:space="preserve">
<style type="text/css">
	.st0{fill:#191919;}
</style>
<path class="st0" d="M62.5,10.2v0.9L32.8,23.9H11.1v1.4H7.5v18.4h3.6v1.4H14l1.3,4.3l1.1-0.3l4.9,15.7h13.3l-3.9-12.5h3.2l-2.2-7.1
	l0.8-0.2h0.4h0.1l29.7,12.8v0.9h4.9V10.2H62.5z M11.1,42.3H8.7V26.5H11v15.8H11.1z M16.4,45h10.8l-10,2.5L16.4,45z M32.9,63.5H22.2
	l-4.6-14.8l9.9-2.4L32.9,63.5z M32.2,51h-1.9l-1.6-5l1.7-0.4L32.2,51z M32.7,43.7H12.3V25.1h20.4V43.7z M62.5,56.4L34.2,44.2V24.7
	l28.4-12.2L62.5,56.4L62.5,56.4z M66.1,57.4h-2.3v-46h2.3V57.4z"/>
</svg>
