<?xml version="1.0" encoding="utf-8"?>
<!-- Generator: Adobe Illustrator 23.0.3, SVG Export Plug-In . SVG Version: 6.00 Build 0)  -->
<svg version="1.1" id="marketing-icon" xmlns="http://www.w3.org/2000/svg" xmlns:xlink="http://www.w3.org/1999/xlink" x="0px"
	 y="0px" viewBox="0 0 75 75" style="enable-background:new 0 0 75 75;" xml:space="preserve">
<style type="text/css">
	.st0{fill:#191919;}
</style>
<g>
	<path class="st0" d="M37.4,26.4c-6.2,0-11.2,5-11.2,11.2s5,11.2,11.2,11.2s11.2-5.1,11.2-11.2C48.7,31.4,43.6,26.4,37.4,26.4z
		 M37.4,47.8c-5.6,0-10.2-4.6-10.2-10.2c0-5.6,4.6-10.2,10.2-10.2s10.2,4.6,10.2,10.2C47.6,43.2,43.1,47.8,37.4,47.8z"/>
	<path class="st0" d="M38.6,29.9h-0.2v-0.5h-1.5v0.5h-0.4c-1.8,0-3.2,1.4-3.2,3.2v1.7c0,1,0.6,1.8,1.7,2.5l0.8,0.3l0,0l1,0.4v5.5
		h-0.3c-0.9,0-1.7-0.8-1.7-1.7v-0.5h-1.5v0.5c0,1.8,1.4,3.2,3.2,3.2h0.4v0.6h1.5v-0.6h0.2c1.7-0.1,3-1.5,3-3.2v-1.7
		c0-1-0.6-1.8-1.8-2.6l-0.7-0.3l0,0L38.3,37v-5.6h0.3c0.9,0.1,1.5,0.8,1.5,1.7v0.5h1.5v-0.4C41.6,31.4,40.3,30,38.6,29.9z
		 M36.8,36.4L35.7,36c-0.6-0.4-1-0.8-1-1.2v-1.7c0-0.9,0.8-1.7,1.7-1.7h0.4C36.8,31.4,36.8,36.4,36.8,36.4z M39.1,38.9
		c0.7,0.4,1,0.9,1,1.3v1.7c0,0.9-0.7,1.6-1.5,1.7h-0.3v-5L39.1,38.9z"/>
	<path class="st0" d="M59.9,21.6c-0.2-0.2-0.3-0.4-0.4-0.5V21c-0.3-0.4-0.6-0.7-0.8-1.1c-4.8-6.1-12-9.7-19.7-10c-0.5,0-1,0-1.5,0
		c-2.9,0-5.8,0.4-8.5,1.3l-0.2,0.1c-0.3,0.1-0.7,0.2-1,0.4l-0.3,0.1c-10.4,4-17.2,13.6-17.5,24.6c0,0.2,0,0.4,0,0.7v0.5
		c0,0.4,0,0.7,0,1.1v0.1c0,0.1,0,0.1,0,0.2c0,0.2,0,0.5,0.1,0.7v0.4c0,0.1,0,0.3,0,0.4c0,0.1,0,0.2,0,0.3v0.2c0,0.3,0.1,0.7,0.1,1
		v0.1c0.4,2.3,1,4.6,2,6.7l0.2,0.4c0.1,0.1,0.1,0.3,0.2,0.4C16.8,58.2,25,63.8,34.5,65c0.1,0,0.1,0,0.2,0c0.3,0,0.7,0.1,1,0.1h0.5
		c0.2,0,0.3,0,0.5,0h0.4l0,0c0.1,0,0.1,0,0.2,0c0.1,0,0.2,0,0.2,0c5.8,0,11.4-1.8,16.1-5.3h0.1c0.3-0.3,0.7-0.5,1.2-0.9
		c5.7-4.5,9.3-11.2,9.9-18.4v-0.2c0-0.4,0.1-0.8,0.1-1.1c0-0.5,0.1-1,0.1-1.5l0,0C65,31.9,63.2,26.4,59.9,21.6z M30.2,12.4
		c2.4-0.7,4.8-1.1,7.3-1l0,0c0.5,0,1,0,1.4,0c7.3,0.3,14.2,3.7,18.8,9.5l0.6,0.7l-5.6,4.1l-0.2-0.2c-3.7-4.6-9.2-7.2-15-7.2l0,0
		c-1.7,0-3.4,0.2-5.1,0.7h-0.2l-2.1-6.6L30.2,12.4z M55.3,37.6c0,5.7-2.8,11.1-7.4,14.5c-3.1,2.2-6.7,3.4-10.5,3.4c0,0,0,0-0.1,0
		c-9.8,0-17.9-8-17.9-17.9c0-7.8,4.9-14.6,12.4-17c1.8-0.6,3.6-0.9,5.5-0.9l0,0c5.7,0,11.1,2.8,14.5,7.4
		C54.1,30.1,55.3,33.8,55.3,37.6z M52.1,59.2c-4.3,2.9-9.4,4.5-14.6,4.5l0,0l0,0c-0.1,0-0.2,0-0.3,0h-0.4c-0.1,0-0.3,0-0.4,0
		c-0.1,0-0.1,0-0.2,0H36c-0.3,0-0.6,0-0.9-0.1H35c-9.1-1-16.9-6.5-20.8-14.7c-0.1-0.2-0.1-0.3-0.2-0.5l-0.5-0.3
		c-0.9-2-1.5-4.1-1.9-6.3v-0.1c0-0.3-0.1-0.6-0.1-0.9v-0.2c0-0.1,0-0.2,0-0.2c0-0.1,0-0.3,0-0.4v-0.3c0-0.2,0-0.5-0.1-0.7v-0.3
		c0-0.3,0-0.7,0-1v-0.5c0-0.2,0-0.4,0-0.6C11.7,26.1,18.2,17,28,13.4l0.3-0.1c0.1,0,0.2-0.1,0.4-0.1l0.2-0.1l2.1,6.6l-0.2,0.1
		c-7.5,2.8-12.5,10-12.5,18c0,10.6,8.6,19.2,19.2,19.2l0,0c3.8,0,7.4-1.1,10.6-3.2l0.1-0.1l4.1,5.6H52.1z M63.5,39.1
		c0,0.4-0.1,0.7-0.1,1.1v0.1c-0.6,6.9-4,13.3-9.4,17.5c-0.2,0.1-0.4,0.3-0.5,0.4l-0.2,0.1l-4.1-5.6l0.1-0.1c4.3-3.5,7-8.6,7.2-14.2
		v-0.2h6.9L63.5,39.1z M63.4,36.8h-6.7v-0.2c-0.1-3.5-1.2-6.8-3.2-9.7l-0.1-0.1l5.6-4.1l0.1,0.1c2.8,4.1,4.3,8.9,4.5,13.8v0.1
		L63.4,36.8z"/>
</g>
</svg>
