<svg xmlns="http://www.w3.org/2000/svg" width="94.938" height="75" viewBox="0 0 94.938 75">
  <g id="advertising-icon" transform="translate(-359.144 -434.113)">
    <rect id="Rectangle_216" data-name="Rectangle 216" width="16.773" height="1.677" transform="translate(412.357 499.048)" fill="#191919"/>
    <rect id="Rectangle_217" data-name="Rectangle 217" width="16.773" height="1.677" transform="translate(414.036 490.651)" fill="#191919"/>
    <rect id="Rectangle_218" data-name="Rectangle 218" width="16.773" height="1.677" transform="translate(415.714 482.26)" fill="#191919"/>
    <rect id="Rectangle_219" data-name="Rectangle 219" width="16.773" height="1.677" transform="translate(417.393 473.868)" fill="#191919"/>
    <path id="Path_343" data-name="Path 343" d="M445.674,466.15l-.008,0a.762.762,0,0,0-.164-.368.836.836,0,0,0-.647-.308H430.641V434.113h-5.789v1.056l-35.466,15.252H363.446v1.65h-4.3v21.9h4.3v1.65h3.422l1.6,5.1,1.267-.313,5.879,18.741h15.87l-4.664-14.861h3.839l-2.64-8.411,1.008-.249.424-.008.063.025,17.537,7.557-4.98,24.9a.84.84,0,0,0,.823,1h50.349a.833.833,0,0,0,.646-.308.842.842,0,0,0,.174-.7Zm-82.227,6.3h-2.78V453.594h2.78Zm6.382,3.175h12.905l-11.973,2.967Zm19.582,22.006H376.737l-5.52-17.584,11.763-2.916Zm-.823-14.861h-2.243l-1.884-6,2.081-.515Zm.693-8.668H364.969V451.942h24.313Zm37.093-38.457h2.743v29.835h-2.743Zm-35.4,38.977v-23.2l33.8-14.563v28.618h-13.49a.842.842,0,0,0-.825.674l-3.106,15.528Zm44.8,32.815H403.919l4.71-23.547.122-.613,3.224-16.118h31.854Zm1.711,0,7.37-36.841,7.365,36.841Z" transform="translate(0 0)" fill="#191919"/>
  </g>
</svg>
