<svg xmlns="http://www.w3.org/2000/svg" width="82.187" height="75" viewBox="0 0 82.187 75">
  <g id="more-biz-icon" transform="translate(-544.407 -413.777)">
    <path id="Path_346" data-name="Path 346" d="M552.544,458.3a4.956,4.956,0,0,0,4.95-4.95,4.881,4.881,0,0,0-.7-2.5l-.147-.251,9.13-9.129.251.149a4.88,4.88,0,0,0,2.5.7,4.962,4.962,0,0,0,4.946-4.913l0-.291,11.894-2.975.139.256a4.932,4.932,0,0,0,9.276-2.355,4.884,4.884,0,0,0-.7-2.5l-.149-.251,12.254-12.254v9.3h1.911V413.777H595.528v1.913h9.3l-12.254,12.254-.251-.149a4.885,4.885,0,0,0-2.5-.7,4.962,4.962,0,0,0-4.945,4.913l0,.291-11.894,2.975-.139-.254a4.932,4.932,0,0,0-9.276,2.353,4.866,4.866,0,0,0,.7,2.5l.149.251-9.13,9.13-.251-.149a4.863,4.863,0,0,0-2.5-.7,4.951,4.951,0,1,0,0,9.9Zm37.282-29.294a3.039,3.039,0,1,1-3.038,3.038A3.042,3.042,0,0,1,589.826,429.006Zm-21.306,5.326a3.038,3.038,0,1,1-3.038,3.038A3.043,3.043,0,0,1,568.521,434.332ZM552.544,450.31a3.039,3.039,0,1,1-3.04,3.04A3.042,3.042,0,0,1,552.544,450.31Z" transform="translate(2.142 0)" fill="#191919"/>
    <path id="Path_347" data-name="Path 347" d="M587.739,457.857a.837.837,0,1,0-.836-.838A.839.839,0,0,0,587.739,457.857Z" transform="translate(28.661 28.592)" fill="#191919"/>
    <path id="Path_348" data-name="Path 348" d="M582.862,457.857a.837.837,0,1,0-.838-.838A.836.836,0,0,0,582.862,457.857Z" transform="translate(25.361 28.592)" fill="#191919"/>
    <path id="Path_349" data-name="Path 349" d="M581.234,457.857a.837.837,0,1,0-.838-.838A.838.838,0,0,0,581.234,457.857Z" transform="translate(24.263 28.592)" fill="#191919"/>
    <path id="Path_350" data-name="Path 350" d="M584.487,457.857a.837.837,0,1,0-.838-.838A.84.84,0,0,0,584.487,457.857Z" transform="translate(26.456 28.592)" fill="#191919"/>
    <path id="Path_351" data-name="Path 351" d="M577.981,457.857a.837.837,0,1,0-.838-.838A.84.84,0,0,0,577.981,457.857Z" transform="translate(22.07 28.592)" fill="#191919"/>
    <path id="Path_352" data-name="Path 352" d="M574.726,457.857a.837.837,0,1,0-.834-.838A.838.838,0,0,0,574.726,457.857Z" transform="translate(19.878 28.592)" fill="#191919"/>
    <path id="Path_353" data-name="Path 353" d="M579.609,457.857a.837.837,0,1,0-.838-.838A.836.836,0,0,0,579.609,457.857Z" transform="translate(23.168 28.592)" fill="#191919"/>
    <path id="Path_354" data-name="Path 354" d="M586.115,457.857a.837.837,0,1,0-.838-.838A.836.836,0,0,0,586.115,457.857Z" transform="translate(27.568 28.592)" fill="#191919"/>
    <path id="Path_355" data-name="Path 355" d="M576.356,457.857a.837.837,0,1,0-.838-.838A.836.836,0,0,0,576.356,457.857Z" transform="translate(20.975 28.592)" fill="#191919"/>
    <path id="Path_356" data-name="Path 356" d="M589.368,457.857a.837.837,0,1,0-.838-.838A.836.836,0,0,0,589.368,457.857Z" transform="translate(29.755 28.592)" fill="#191919"/>
    <path id="Path_357" data-name="Path 357" d="M590.992,457.857a.837.837,0,1,0-.836-.838A.839.839,0,0,0,590.992,457.857Z" transform="translate(30.848 28.592)" fill="#191919"/>
    <path id="Path_358" data-name="Path 358" d="M582.862,454.1a.837.837,0,1,0-.838-.836A.837.837,0,0,0,582.862,454.1Z" transform="translate(25.361 26.069)" fill="#191919"/>
    <path id="Path_359" data-name="Path 359" d="M586.115,454.1a.837.837,0,1,0-.838-.836A.838.838,0,0,0,586.115,454.1Z" transform="translate(27.568 26.069)" fill="#191919"/>
    <path id="Path_360" data-name="Path 360" d="M584.487,454.1a.837.837,0,1,0-.836-.836A.839.839,0,0,0,584.487,454.1Z" transform="translate(26.458 26.069)" fill="#191919"/>
    <circle id="Ellipse_2" data-name="Ellipse 2" cx="0.837" cy="0.837" r="0.837" transform="translate(621.003 478.498)" fill="#191919"/>
    <path id="Path_361" data-name="Path 361" d="M589.367,454.1a.837.837,0,1,0-.838-.836A.835.835,0,0,0,589.367,454.1Z" transform="translate(29.754 26.069)" fill="#191919"/>
    <circle id="Ellipse_3" data-name="Ellipse 3" cx="0.837" cy="0.837" r="0.837" transform="translate(593.77 478.498)" fill="#191919"/>
    <path id="Path_362" data-name="Path 362" d="M587.74,454.1a.837.837,0,1,0-.836-.836A.836.836,0,0,0,587.74,454.1Z" transform="translate(28.662 26.069)" fill="#191919"/>
    <circle id="Ellipse_4" data-name="Ellipse 4" cx="0.837" cy="0.837" r="0.837" transform="translate(599.214 478.498)" fill="#191919"/>
    <path id="Path_363" data-name="Path 363" d="M576.353,454.1a.837.837,0,1,0-.836-.836A.836.836,0,0,0,576.353,454.1Z" transform="translate(20.974 26.069)" fill="#191919"/>
    <path id="Path_364" data-name="Path 364" d="M579.606,454.1a.837.837,0,1,0-.836-.836A.837.837,0,0,0,579.606,454.1Z" transform="translate(23.167 26.069)" fill="#191919"/>
    <path id="Path_365" data-name="Path 365" d="M581.234,454.1a.837.837,0,1,0-.838-.836A.838.838,0,0,0,581.234,454.1Z" transform="translate(24.263 26.069)" fill="#191919"/>
    <path id="Path_366" data-name="Path 366" d="M599.175,452.468l.092-.079a.36.36,0,0,0,.077-.067,5.793,5.793,0,0,0,.428-.7.647.647,0,0,0,.045-.5.656.656,0,0,0-1.209-.109c-.035.067-.072.125-.109.184l-.052.082a.442.442,0,0,1-.069.074,12.373,12.373,0,1,1-4.42-17.615.632.632,0,0,0,.5.055.657.657,0,0,0,.132-1.206,13.7,13.7,0,1,0,4.585,19.881Z" transform="translate(20.205 11.566)" fill="#191919"/>
    <path id="Path_367" data-name="Path 367" d="M625.216,474.925a.658.658,0,0,0-.658-.658H611.85l1.266-.355a18.454,18.454,0,1,0-23.443-17.759,18.258,18.258,0,0,0,.9,5.615H546.322V413.777h-1.915v49.906h46.9a18.526,18.526,0,0,0,11.845,10.229l1.267.355H591.255a.658.658,0,0,0-.656.658v6.494a.538.538,0,0,1,.018.084l0,.034-.018.077,0,6.509a.657.657,0,0,0,.656.655h33.3a.657.657,0,0,0,.658-.655l-.02-6.578a.465.465,0,0,1,.015-.116Zm-34.23-18.772A17.148,17.148,0,1,1,608.133,473.3,17.166,17.166,0,0,1,590.987,456.153ZM623.9,484.806a.839.839,0,0,0-.181-.035h0a.834.834,0,0,0-.837.837.8.8,0,0,0,.656.8.825.825,0,0,0,.181.035v0a.844.844,0,0,0,.181-.037v1.055H591.911V486.44a.742.742,0,0,0,.181-.037.78.78,0,0,0,.183-.07.853.853,0,0,0,.2-.134.831.831,0,0,0,0-1.184.8.8,0,0,0-.2-.134.78.78,0,0,0-.183-.07.826.826,0,0,0-.181-.035v-2.491H623.9Zm0-6.283a.827.827,0,0,0-.181-.037h0a.829.829,0,0,0-.181.037.841.841,0,0,0,.181,1.639h0a.739.739,0,0,0,.181-.037v.636H591.911v-.6a.943.943,0,0,0,.181-.037.782.782,0,0,0,.183-.07.8.8,0,0,0,0-1.451.779.779,0,0,0-.183-.07.939.939,0,0,0-.181-.037v-2.91H623.9Z" transform="translate(0 0)" fill="#191919"/>
    <path id="Path_368" data-name="Path 368" d="M589.365,450.1a4.241,4.241,0,0,0,.211-3.378c-.781-2.105-3.1-3.4-4.41-3.988-1.886-.841-3.169-2-3.433-3.092a2.419,2.419,0,0,1,.63-2.132,3.853,3.853,0,0,1,2.848-1.478,3.471,3.471,0,0,1,2.707,1.451.543.543,0,0,0,.371.2.493.493,0,0,0,.4-.124.546.546,0,0,0,.075-.773,4.526,4.526,0,0,0-3.5-1.853l-.179,0,0-.177c-.013-1.3-.023-1.831-.023-1.833a.551.551,0,0,0-1.1.018c0,.065.012.674.025,2.057l0,.13-.125.042a5.265,5.265,0,0,0-2.363,1.655,3.488,3.488,0,0,0-.843,3.078c.5,2.054,3,3.37,4.057,3.839.93.416,3.16,1.575,3.826,3.365a3.128,3.128,0,0,1-.176,2.527,3.5,3.5,0,0,1-3.328,2.007c-.05,0-.1,0-.149,0a5.143,5.143,0,0,1-4.582-3.05.549.549,0,0,0-.293-.3.559.559,0,0,0-.219-.045.565.565,0,0,0-.2.038.556.556,0,0,0-.3.293.55.55,0,0,0-.007.421,6.212,6.212,0,0,0,4.739,3.66l.149.025,0,.152c.012,1.025.02,1.348.022,1.416a.552.552,0,0,0,.55.548.57.57,0,0,0,.4-.176.557.557,0,0,0,.149-.395c0-.08-.01-.378-.02-1.324l0-.169.171-.013A4.551,4.551,0,0,0,589.365,450.1Z" transform="translate(23.496 12.554)" fill="#191919"/>
    <path id="Path_369" data-name="Path 369" d="M588.916,435.38a.837.837,0,1,0-.592-1.428.84.84,0,0,0,0,1.184A.845.845,0,0,0,588.916,435.38Z" transform="translate(29.453 13.436)" fill="#191919"/>
    <path id="Path_370" data-name="Path 370" d="M589.114,436.412a.838.838,0,0,0,.756.475.851.851,0,0,0,.361-.084.837.837,0,1,0-1.117-.391Z" transform="translate(30.092 14.452)" fill="#191919"/>
    <path id="Path_371" data-name="Path 371" d="M589.634,437.913a.838.838,0,0,0,.816.657.743.743,0,0,0,.182-.022.837.837,0,1,0-1-.635Z" transform="translate(30.484 15.586)" fill="#191919"/>
    <path id="Path_372" data-name="Path 372" d="M590.041,438.913a.84.84,0,1,0,.592-.244A.845.845,0,0,0,590.041,438.913Z" transform="translate(30.607 16.782)" fill="#191919"/>
    <path id="Path_373" data-name="Path 373" d="M590.648,440.44a.854.854,0,0,0-.63.117.842.842,0,0,0-.246,1.159.852.852,0,0,0,.528.361.835.835,0,0,0,.63-.117.837.837,0,0,0-.283-1.52Z" transform="translate(30.5 17.964)" fill="#191919"/>
  </g>
</svg>
