<?xml version="1.0" encoding="utf-8"?>
<!-- Generator: Adobe Illustrator 23.0.3, SVG Export Plug-In . SVG Version: 6.00 Build 0)  -->
<svg version="1.1" id="marketing-icon" xmlns="http://www.w3.org/2000/svg" xmlns:xlink="http://www.w3.org/1999/xlink" x="0px"
	 y="0px" viewBox="0 0 75 75" style="enable-background:new 0 0 75 75;" xml:space="preserve">
<style type="text/css">
	.st0{fill:#191919;}
</style>
<path class="st0" d="M66.9,16.7c-0.4-0.4-1-0.7-1.6-0.7H52h-0.3v-0.3v-1.4c0-1.1-0.4-2.1-1.1-2.8c-0.7-0.7-1.7-1.1-2.8-1.1H38
	c-0.1,0-0.2,0-0.2,0c-0.9,0-1.8,0.4-2.6,1.1c-0.7,0.7-1.1,1.7-1.1,2.8v1.5v0.3h-0.3H20.3c-0.6,0-1.2,0.2-1.6,0.7
	c-0.4,0.4-0.6,0.9-0.6,1.5v1.9h-3.2v0.4c0,0.1-0.1,3.5-3,3.8v-2.1H7.5v8.9h4.4v-2.4c3.1,0.1,6.3,1,6.3,2.6l-0.6,33.2h6.6l-0.3-13.5
	h10.2h0.2h2h28.9c0.6,0,1.2-0.2,1.6-0.7c0.4-0.4,0.7-1,0.7-1.6V18.3C67.5,17.7,67.3,17.1,66.9,16.7z M11,30.3H8.4v-7.1H11V30.3z
	 M34.9,15.8v-1.4c0-0.7,0.3-1.4,0.9-2.1c0.6-0.6,1.4-0.9,2.2-0.9h9.6c0.8,0,1.6,0.3,2.1,0.9c0.6,0.6,0.9,1.4,0.9,2.1v1.4v0.3h-0.3
	h-0.7h-0.3v-0.3v-1.4c0-0.5-0.2-0.9-0.6-1.3c-0.4-0.4-0.8-0.6-1.3-0.6h-9.7c-0.5,0-0.9,0.2-1.3,0.6c-0.4,0.4-0.6,0.8-0.6,1.3v1.4
	v0.3h-0.3h-0.7h-0.3v-0.3H34.9z M44.7,27.5L41,27.4h-0.3v-0.3v-9.8V17H41h3.7H45v0.3v9.9v0.3H44.7z M45,28.5v0.3v5v0.3h-0.3H41h-0.3
	v-0.3v-5v-0.3H41h3.7H45z M37.4,16.1h-0.3v-0.3v-1.4c0-0.3,0.1-0.5,0.2-0.6c0.1-0.1,0.3-0.2,0.6-0.2h9.7c0.3,0,0.5,0.1,0.6,0.2
	c0.1,0.1,0.2,0.3,0.2,0.6v1.4v0.3h-0.3H37.4z M11.9,27.9v-2.6c2.7-0.2,3.7-2.7,3.9-4.3h7.3c5.8,0,8.9,2.5,9.5,7.5
	c-1.9-2.6-3.8-3.8-6.4-4.2c-0.9-0.1-1.7,0.1-2.4,0.7c-0.7,0.6-1.2,1.6-1.2,2.6v3.2H19C18.5,28.6,14.6,27.9,11.9,27.9z M18.5,63.6
	l0.6-31.8h3.6l0.6,31.8H18.5z M23.5,31.3v-3.7c0-0.8,0.3-1.5,0.9-1.9c0.5-0.4,1.1-0.6,1.7-0.5c2.7,0.4,4.6,1.9,6.6,5.2l0.8,1.3v-1.5
	c0-8.3-5.7-10-10.5-10h-4v-1.8c0-0.3,0.1-0.6,0.3-0.8c0.2-0.2,0.5-0.4,0.8-0.4h19h0.5v0.3v15.4v0.3h-0.3h-3.5h-1.5h-0.2H23.6
	L23.5,31.3z M66.5,29.2v19.5c0,0.3-0.1,0.6-0.3,0.8c-0.2,0.2-0.5,0.3-0.8,0.3H36.1h-1.7h-0.3H23.9L23.6,34h10.5l0,0h0.3h5h0.3v0.3
	v0.2c0,0.3,0.2,0.5,0.5,0.5h5.3c0.3,0,0.5-0.2,0.5-0.5v-0.2V34h0.3h11.1c2.8,0,5.4-1.1,7.2-3c0.5-0.5,1-1.1,1.5-1.9l0.5-0.7
	L66.5,29.2L66.5,29.2z M66.5,23.9v0.2v0.2c-0.1,2.2-1.1,4.4-2.7,6c-1.6,1.7-4,2.7-6.5,2.7h-11H46v-0.3V17.4v-0.3h0.3h19
	c0.3,0,0.6,0.1,0.8,0.3c0.2,0.2,0.3,0.5,0.3,0.8L66.5,23.9L66.5,23.9z"/>
</svg>
