<?xml version="1.0" encoding="utf-8"?>
<!-- Generator: Adobe Illustrator 23.0.3, SVG Export Plug-In . SVG Version: 6.00 Build 0)  -->
<svg version="1.1" id="marketing-icon" xmlns="http://www.w3.org/2000/svg" xmlns:xlink="http://www.w3.org/1999/xlink" x="0px"
	 y="0px" viewBox="0 0 75 75" style="enable-background:new 0 0 75 75;" xml:space="preserve">
<style type="text/css">
	.st0{fill:#191919;}
</style>
<g>
	<path class="st0" d="M67,30.1c-8.6,0-14.8-5.9-14.9-6l-0.3-0.3l-0.3,0.3c0,0-1.1,1-2.9,2.2c-1.8-2-3.9-3.6-6.3-4.7l1.3-5.3
		l-0.4-0.2c-0.2-0.1-5.2-2-10.4-2c-5.4,0-10.2,1.9-10.4,2l-0.2,0.1l1.3,5.3C16.6,24.9,11.9,32,10.5,41h-3v8.8h5.4h1h27.8
		c4.4,7.8,9.8,10.9,9.9,11l0.2,0.1l0.2-0.1c0.1-0.1,13.6-7.9,15.5-30.1v-0.5L67,30.1L67,30.1z M47.8,26.8c-1.9,1.1-4.5,2.3-7.5,2.9
		l1.8-7.2C44.2,23.6,46.1,25,47.8,26.8z M23.8,22.5L27,35l1-0.2l-4.6-17.9c1.3-0.4,5.3-1.8,9.6-1.8c4.1,0,8.3,1.3,9.6,1.8l-3.3,13
		c-0.8,0.1-1.7,0.2-2.6,0.2h-0.5v0.5c0.3,3.9,1,7.3,1.9,10.4H11.5C12.9,32.4,17.3,25.8,23.8,22.5z M8.5,48.8V42h29.8
		c0.8,2.6,1.8,4.8,2.8,6.8H8.5z M51.8,59.8c-1-0.7-5.3-3.7-9-10c-0.2-0.3-0.4-0.6-0.6-1c-1.1-2-2.1-4.2-2.9-6.8
		c-0.1-0.3-0.2-0.7-0.3-1c-0.9-2.9-1.6-6.2-1.9-10c0.6,0,1.3-0.1,1.9-0.1c0.4,0,0.7-0.1,1.1-0.1c3.4-0.6,6.3-1.9,8.4-3.2
		c0.3-0.2,0.6-0.4,0.8-0.5c1.2-0.8,2.1-1.5,2.6-1.9c1.4,1.2,7,5.8,14.7,6C64.8,50.8,53.6,58.7,51.8,59.8z"/>
	<polygon class="st0" points="46.2,42 45.1,41 44.7,40.6 44.3,41 44.1,41.3 44.8,42 52,48.6 56.2,42 56.8,41 60.2,35.5 59.5,35.1 
		55.7,41 55.1,42 51.8,47.2 	"/>
</g>
</svg>
