<?xml version="1.0" encoding="utf-8"?>
<!-- Generator: Adobe Illustrator 23.0.3, SVG Export Plug-In . SVG Version: 6.00 Build 0)  -->
<svg version="1.1" id="marketing-icon" xmlns="http://www.w3.org/2000/svg" xmlns:xlink="http://www.w3.org/1999/xlink" x="0px"
	 y="0px" viewBox="0 0 75 75" style="enable-background:new 0 0 75 75;" xml:space="preserve">
<style type="text/css">
	.st0{fill:#191919;}
</style>
<g>
	<path class="st0" d="M37.7,20h-2.9l-6.1,6.1h4.5l4.5-2.8V20z M37,22.9L37,22.9l-4,2.5h-2.5l0.1-0.1l4.5-4.5H37
		C37,20.8,37,22.9,37,22.9z"/>
	<path class="st0" d="M27.7,45c-1.1,0-1.9,0.9-1.9,1.9c0,1.1,0.9,1.9,1.9,1.9c1.1,0,1.9-0.9,1.9-1.9S28.8,45,27.7,45z M27.7,48.2
		c-0.7,0-1.2-0.5-1.2-1.2s0.5-1.2,1.2-1.2s1.2,0.5,1.2,1.2C28.9,47.7,28.4,48.2,27.7,48.2z"/>
	<path class="st0" d="M35,45c-1.1,0-1.9,0.9-1.9,1.9c0,1.1,0.9,1.9,1.9,1.9c1.1,0,1.9-0.9,1.9-1.9C36.9,46,36.1,45,35,45z M35,48.2
		c-0.7,0-1.2-0.5-1.2-1.2s0.5-1.2,1.2-1.2s1.2,0.5,1.2,1.2C36.2,47.7,35.7,48.2,35,48.2z"/>
	<path class="st0" d="M67.5,57L52.9,31.7l-2.9,5v-8H39.8V18h-6l-7.4,7.4V33l-7-10l0,0c0.1-0.4,0.2-0.7,0.2-1c0-1.8-1.5-3.3-3.3-3.3
		S13,20.2,13,22c0,0.3,0.1,0.7,0.2,1.1l0,0l0,0l-2.7,5.2l0,0h-0.1c-0.1,0-0.1,0-0.2,0c-1.5,0-2.7,1.2-2.7,2.7c0,0.9,0.5,1.8,1.3,2.3
		l0,0l0,0c0,2,0.1,6.9,1.2,8.9c0.9,1.6,2.5,2.3,5,2.3c1.4,0,3.1-0.3,5.1-0.8h0.2l2-3.8l-3.5,1.5l0,0c-1.2-1.2-5.2-6-6.9-8v-0.1H12
		c0.7-0.5,1.2-1.3,1.2-2.2c0-0.6-0.2-1.2-0.7-1.8l0,0l3.2-4l0,0c0.1,0,0.4,0,0.7,0c0.4,0,0.7-0.1,1.1-0.2h0.1l0,0l9.5,17.7H27
		c-2.6,0.1-4.6,2-4.6,4.2c0,2.3,2.2,4.2,4.8,4.2h14.4L38.2,57L67.5,57L67.5,57z M27.2,25.6l7-7h4.9V29l-4.8,4.8h-7.1
		C27.2,33.8,27.2,25.6,27.2,25.6z M18.4,42l0.2,0.2l2.1-0.8l-0.9,1.8l0,0c-1.8,0.5-3.4,0.7-4.7,0.7c-2.2,0-3.7-0.7-4.4-1.9
		c-1-1.8-1.1-6.8-1.1-8.2v-0.1h0.1c0.5,0.1,0.9,0.1,1.4-0.1l0,0l0,0C13,35.8,17.6,41.2,18.4,42z M10.2,33c-1.1,0-2-0.9-2-2
		c0-1.1,0.9-2,2-2s2,0.9,2,2C12.3,32,11.4,33,10.2,33z M11.7,28.6L11.7,28.6c-0.2-0.1-0.3-0.2-0.4-0.2h-0.1v-0.1l2.4-4.5l0.1,0.1
		c0.3,0.3,0.6,0.6,0.9,0.8h0.1L11.7,28.6z M16.4,24.5c-1.4,0-2.6-1.2-2.6-2.6s1.2-2.6,2.6-2.6s2.6,1.2,2.6,2.6
		C18.9,23.5,17.8,24.5,16.4,24.5z M18.2,24.8L18.2,24.8c0.4-0.2,0.6-0.5,0.9-0.8l0.1-0.1l7.5,10.7h7.9l5.1-5.1h9.6v8.5l-2.8,4.8
		H27.9l0,0L18.2,24.8z M27.2,50.5c-2.3,0-4.1-1.6-4.1-3.5s1.8-3.5,4.1-3.5H46l-1.8,3.2v-0.2c-0.2-0.9-1-1.5-1.9-1.5
		c-1.1,0-1.9,0.9-1.9,1.9c0,1.1,0.9,1.9,1.9,1.9c0.2,0,0.3,0,0.5-0.1H43l-1,1.7L27.2,50.5L27.2,50.5z M43.5,47
		c0,0.7-0.5,1.2-1.2,1.2s-1.2-0.5-1.2-1.2s0.5-1.2,1.2-1.2C43,45.8,43.5,46.3,43.5,47z M52.9,33.2l13.4,23.2H39.5L52.9,33.2z"/>
	<path class="st0" d="M63.2,54.5L52.9,36.8L42.6,54.5H63.2z M61.9,53.8H43.8l9-15.7L61.9,53.8z"/>
	<path class="st0" d="M51.7,52.5h2.4V50h-2.4V52.5z M52.4,50.8h1v1h-1V50.8z"/>
	<path class="st0" d="M51.8,49.3H54l0.6-6.3h-3.4L51.8,49.3z M53.8,43.8l-0.5,4.9h-0.9l-0.5-4.9H53.8z"/>
</g>
</svg>
