<?xml version="1.0" encoding="utf-8"?>
<!-- Generator: Adobe Illustrator 23.0.3, SVG Export Plug-In . SVG Version: 6.00 Build 0)  -->
<svg version="1.1" id="marketing-icon" xmlns="http://www.w3.org/2000/svg" xmlns:xlink="http://www.w3.org/1999/xlink" x="0px"
	 y="0px" viewBox="0 0 75 75" style="enable-background:new 0 0 75 75;" xml:space="preserve">
<style type="text/css">
	.st0{fill:#191919;}
</style>
<g>
	<path class="st0" d="M52.7,39c-0.3-0.1-0.6-0.1-1-0.1c-0.1,0-0.2,0-0.3,0c-0.5,0-1,0.1-1.5,0.2c-0.3,0.1-0.7,0.2-1,0.3
		c-2.4,1-4.1,3.4-4.1,6.1c0,0.3,0,0.6,0.1,0.9c0.1,0.4,0.1,0.8,0.3,1.2c0.9,2.6,3.3,4.6,6.3,4.6c3.6,0,6.6-3,6.6-6.6
		C58,42.3,55.7,39.6,52.7,39z M51.4,51.5c-2.5,0-4.6-1.5-5.5-3.6c-0.2-0.4-0.3-0.8-0.4-1.2c-0.1-0.4-0.1-0.8-0.1-1.2
		c0-2.4,1.4-4.5,3.5-5.4c0.3-0.1,0.7-0.3,1-0.4c0.5-0.1,1-0.2,1.5-0.2c0.1,0,0.2,0,0.3,0c0.3,0,0.6,0,1,0.1c2.7,0.6,4.8,3,4.8,5.9
		C57.4,48.8,54.7,51.5,51.4,51.5z"/>
	<path class="st0" d="M52.7,41.2c-0.2-0.1-0.4-0.1-0.6-0.1H52v-0.3h-0.3h-0.6v0.3h-0.2c-0.3,0-0.6,0.1-0.9,0.2c-0.6,0.3-1,0.9-1,1.6
		v1c0,0.5,0.3,1,1,1.5l0,0l0.5,0.2l0,0l0.6,0.2v3.1V49h-0.2c-0.2,0-0.3-0.1-0.5-0.1c-0.2-0.1-0.3-0.3-0.4-0.4
		c-0.1-0.1-0.1-0.3-0.1-0.4v-0.3H49v0.3c0,0.9,0.6,1.6,1.5,1.8c0.1,0,0.3,0,0.4,0h0.2v0.4H52v-0.4h0.1c0.1,0,0.2,0,0.3,0
		s0.2,0,0.3-0.1c0.7-0.3,1.2-0.9,1.2-1.7v-1c0-0.6-0.4-1.1-1-1.5l-0.2-0.1l-0.2-0.1l0,0L52,45.2v-3.3h0.2c0.2,0,0.4,0.1,0.5,0.2
		c0.2,0.2,0.4,0.4,0.4,0.7v0.3h0.8v-0.3C53.9,42.1,53.4,41.5,52.7,41.2z M51.1,44.9l-0.7-0.3c-0.2-0.1-0.4-0.3-0.5-0.4
		c0-0.1,0-0.2,0-0.3v-1c0-0.2,0-0.3,0.1-0.4c0.2-0.3,0.5-0.6,0.9-0.6h0.2V44.9z M52.4,46.3c0.1,0.1,0.2,0.1,0.3,0.2
		c0.2,0.2,0.4,0.4,0.4,0.6v1c0,0.3-0.1,0.6-0.4,0.7c-0.1,0.1-0.3,0.2-0.5,0.2H52v-2.9L52.4,46.3z"/>
	<path class="st0" d="M64.6,36.2c-0.1-0.1-0.1-0.2-0.2-0.3l0,0c-0.2-0.2-0.3-0.4-0.5-0.6c-2.8-3.5-6.8-5.6-11.3-5.8v-16H49v0.7
		l-22.4,9.6H10.3v1H7.6v13.8h2.7v1h2.2l1,3.2l0.8-0.2L18,54.4h10L25.1,45h2.4l-1.7-5.3l0.6-0.2h0.3l0,0l8.7,3.7
		c-0.1,0.5-0.1,1-0.1,1.5c0,0.1,0,0.3,0,0.4v0.3c0,0.2,0,0.4,0,0.6v0.3v0.1c0,0.1,0,0.3,0,0.4V47c0,0.1,0,0.2,0,0.2
		c0,0.1,0,0.1,0,0.2v0.1c0,0.2,0,0.4,0.1,0.6l0,0c0.2,1.4,0.6,2.7,1.2,3.9l0.1,0.2c0,0.1,0.1,0.2,0.1,0.2c2.5,5.1,7.3,8.4,12.9,9.1
		h0.1c0.2,0,0.4,0,0.6,0h0.3c0.1,0,0.2,0,0.3,0h0.2l0,0h0.1h0.1c3.4,0,6.7-1.1,9.5-3.1l0,0c0.2-0.1,0.4-0.3,0.7-0.5
		c3.3-2.6,5.5-6.6,5.8-10.8V47c0-0.2,0-0.4,0-0.7s0-0.6,0-0.9l0,0C67.6,42.2,66.6,38.9,64.6,36.2z M10.3,37.6H8.6V25.7h1.8v11.9
		H10.3z M14.3,39.6h8.1l-7.5,1.9L14.3,39.6z M26.7,53.5h-8l-3.5-11.1l7.4-1.8L26.7,53.5z M26.2,44.1h-1.4l-1.2-3.8l1.3-0.3
		L26.2,44.1z M26.6,38.7H11.3v-14h15.3V38.7z M50,14.4h1.7v15c-0.1,0-0.2,0-0.3,0c-0.5,0-1,0-1.5,0.1L50,14.4L50,14.4z M50,30.2
		c0.5,0,1-0.1,1.5-0.1l0,0c0.1,0,0.2,0,0.3,0c0.2,0,0.4,0,0.6,0c0.1,0,0.3,0,0.4,0c4.2,0.3,8,2.3,10.6,5.5l0.3,0.4l-3.3,2.4
		l-0.1-0.1c-1.9-2.4-4.6-3.9-7.6-4.2c-0.3,0-0.6,0-1-0.1c-0.1,0-0.2,0-0.3,0l0,0c-0.5,0-1,0-1.5,0.1c-0.3,0-0.7,0.1-1,0.2
		c-0.2,0-0.4,0.1-0.5,0.1h-0.1L47,30.5h0.1c0.6-0.2,1.2-0.3,1.8-0.4C49.3,30.3,49.6,30.3,50,30.2z M61.9,45.5c0,3.3-1.6,6.5-4.3,8.5
		c-1.8,1.3-3.9,2-6.1,2l0,0c-5.7,0-10.4-4.6-10.5-10.3c0-0.1,0-0.2,0-0.2c0-0.3,0-0.5,0-0.8c0.3-4.2,3.1-7.9,7.2-9.2
		c0.3-0.1,0.5-0.2,0.8-0.2c0.3-0.1,0.7-0.1,1-0.2c0.5-0.1,1-0.1,1.5-0.1l0,0c0.1,0,0.2,0,0.3,0c0.3,0,0.6,0,1,0.1
		c2.9,0.3,5.5,1.9,7.3,4.3C61.3,41.2,61.9,43.3,61.9,45.5z M27.7,39V24.4L49,15.2v14.4c-0.9,0.1-1.7,0.3-2.5,0.6h-0.1
		c-0.3,0.1-0.5,0.1-0.7,0.2l-0.2,0.1c-5.3,2-9,6.5-10,11.9L27.7,39z M60,58.3c-2.5,1.7-5.5,2.6-8.6,2.6l0,0l0,0c-0.1,0-0.1,0-0.2,0
		h-0.3c-0.1,0-0.2,0-0.3,0h-0.1h-0.1c-0.2,0-0.4,0-0.5,0h-0.1c-5.3-0.6-9.9-3.8-12.2-8.6c0-0.1-0.1-0.2-0.1-0.3l-0.1-0.2
		c-0.5-1.2-0.9-2.4-1.1-3.7l0,0c0-0.2-0.1-0.4-0.1-0.6v-0.1v-0.1c0-0.1,0-0.2,0-0.2v-0.2c0-0.1,0-0.3,0-0.4v-0.2c0-0.2,0-0.4,0-0.6
		v-0.3c0-0.1,0-0.2,0-0.4c0-0.4,0-0.8,0.1-1.2c0-0.3,0.1-0.7,0.1-1c0.9-5.2,4.5-9.6,9.5-11.5l0.2-0.1c0.1,0,0.1-0.1,0.2-0.1h0.1
		l1.3,3.9h-0.1c-4,1.5-6.8,5.2-7.3,9.4c0,0.3-0.1,0.7-0.1,1v0.1c0,6.2,5.1,11.3,11.3,11.3l0,0c2.2,0,4.4-0.6,6.2-1.9l0.1-0.1
		L60,58.3L60,58.3z M66.8,46.4c0,0.2,0,0.4-0.1,0.6v0.1c-0.4,4-2.4,7.8-5.5,10.3c-0.1,0.1-0.2,0.2-0.3,0.2l-0.1,0.1l-2.4-3.3
		l0.1-0.1c2.5-2,4.1-5.1,4.2-8.3v-0.1h4.1V46.4z M66.7,45.1h-4V45c-0.1-2-0.7-4-1.9-5.7l-0.1-0.1l3.3-2.4l0.1,0.1
		c1.6,2.4,2.5,5.2,2.6,8.1V45.1L66.7,45.1z"/>
</g>
</svg>
