<?xml version="1.0" encoding="utf-8"?>
<!-- Generator: Adobe Illustrator 23.0.2, SVG Export Plug-In . SVG Version: 6.00 Build 0)  -->
<svg version="1.1" id="marketing-icon" xmlns="http://www.w3.org/2000/svg" xmlns:xlink="http://www.w3.org/1999/xlink" x="0px"
	 y="0px" viewBox="0 0 75 75" style="enable-background:new 0 0 75 75;" xml:space="preserve">
<style type="text/css">
	.st0{fill:none;}
</style>
<g>
	<path d="M56.2,32.5H38.1c-0.3,0-0.5,0.2-0.5,0.5v28.8c0,0.3,0.2,0.5,0.5,0.5h18.1c0.3,0,0.5-0.2,0.5-0.5V33
		C56.7,32.8,56.5,32.5,56.2,32.5z M55.7,61.4H38.6V33.5h17.2v27.9H55.7z"/>
	<path d="M44,30.8h6.4c0.3,0,0.5-0.2,0.5-0.5s-0.2-0.5-0.5-0.5H44c-0.3,0-0.5,0.2-0.5,0.5S43.7,30.8,44,30.8z"/>
	<path d="M30.2,11.7h8.3c0.3,0,0.5-0.2,0.5-0.5s-0.2-0.5-0.5-0.5h-8.3c-0.3,0-0.5,0.2-0.5,0.5S29.9,11.7,30.2,11.7z"/>
	<path d="M54.2,27.5h-0.3V10.9c0-1.9-1.6-3.5-3.5-3.5H18.3c-1.9,0-3.5,1.6-3.5,3.5v47.2c0,1.9,1.6,3.5,3.5,3.5h16v0.2
		c0.1,3.1,2.7,5.6,5.8,5.6h14.1c3.2,0,5.8-2.6,5.8-5.8V33.3C60,30.1,57.4,27.5,54.2,27.5z M34.3,60.7h-16c-1.4,0-2.6-1.2-2.6-2.6
		V10.9c0-1.4,1.2-2.6,2.6-2.6h32.1c1.4,0,2.6,1.2,2.6,2.6v16.6h-3.7V15c0-0.3-0.2-0.5-0.5-0.5h-29c-0.3,0-0.5,0.2-0.5,0.5v39
		c0,0.3,0.2,0.5,0.5,0.5h14.4v6.2H34.3z M34.3,33.3v20.2h-14v-38h28.1v12h-8.3C36.9,27.5,34.3,30.1,34.3,33.3z M59.1,61.6
		c0,2.7-2.2,4.9-4.9,4.9H40.1c-2.7,0-4.9-2.2-4.9-4.9V33.3c0-2.7,2.2-4.9,4.9-4.9h14.1c2.7,0,4.9,2.2,4.9,4.9
		C59.1,33.3,59.1,61.6,59.1,61.6z"/>
</g>
<rect x="-0.1" y="-0.1" class="st0" width="74.9" height="74.9"/>
</svg>
