<?xml version="1.0" encoding="utf-8"?>
<!-- Generator: Adobe Illustrator 23.0.3, SVG Export Plug-In . SVG Version: 6.00 Build 0)  -->
<svg version="1.1" id="marketing-icon" xmlns="http://www.w3.org/2000/svg" xmlns:xlink="http://www.w3.org/1999/xlink" x="0px"
	 y="0px" viewBox="0 0 75 75" style="enable-background:new 0 0 75 75;" xml:space="preserve">
<style type="text/css">
	.st0{fill:#191919;}
</style>
<path class="st0" d="M66.8,23.1c-0.7-0.7-1.9-0.9-3-0.5l-6.1,2.3v-4.5h-8.2v-6.8H15.7v6.8H7.5v7.9h8.2v5.8H7.5V42h8.2v6.8H34
	l-4.8,4.8c-0.5,0.5-0.8,1.2-0.8,2s0.3,1.5,0.8,2l3.1,3.1c0.5,0.5,1.2,0.8,2,0.8s1.5-0.3,2-0.8l8.3-8.3c0.9-0.9,1.4-2,1.5-3.2
	c0-0.1,0-0.1,0-0.2v-0.1v-0.1h3.5v-5.5l1.4-1.4l4.6,4.6c0.6,0.6,1.4,0.8,2.2,0.6c1.1-0.2,2-1.1,2.5-2.1l7.1-18.8
	c0.1-0.4,0.2-0.8,0.2-1.2C67.5,24.2,67.2,23.6,66.8,23.1z M56.6,21.5v3.8h-0.1l-5.1,1.9H41.2v-5.8h15.3V21.5z M43,33.9l0.1,0.2H33
	v-5.8h15.5L45,29.7c-1.1,0.4-1.9,1.3-2.1,2.5C42.7,32.8,42.8,33.4,43,33.9z M44.2,35.1L44.2,35.1l3.8,3.8L46,40.8h-4.7V35L44.2,35.1
	L44.2,35.1z M32.1,28.3v5.8H16.8v-5.8H32.1z M24.9,27.2v-5.8h15.3v5.8C40.2,27.1,24.9,27.1,24.9,27.2z M24.9,35.1h15.3v5.8H24.9
	V35.1z M33.1,14.7h15.3v5.8H33.1V14.7z M16.8,14.7h15.3v5.8H16.8V14.7z M8.6,27.2v-5.8h15.3v5.8C23.9,27.1,8.6,27.1,8.6,27.2z
	 M8.6,40.9v-5.8h15.3v5.8H8.6z M32.1,47.7H16.8v-5.8h15.3C32.1,41.9,32.1,47.7,32.1,47.7z M33.1,47.7v-5.8H45l-2.2,2.2h-0.1
	c-0.3-0.1-0.5-0.2-0.8-0.2c-0.4-0.1-0.8-0.1-1.2-0.1c-1.2,0.1-2.3,0.6-3.2,1.5l-2.4,2.4C35.1,47.7,33.1,47.7,33.1,47.7z M48.4,47.7
	h-2.5l-0.1-0.2c0-0.1,0-0.2-0.1-0.3v-0.1l0.1-0.1l2.6-2.6V47.7z M44.8,46.9l0.1,0.2c0,0.1,0.1,0.2,0.1,0.2v0.1v0.1v0.1v0.1
	c0,0.1,0,0.1,0.1,0.2c0,0.2,0,0.3,0.1,0.5v0.1l0,0v0.1v0.1c0,0.1,0,0.1,0,0.2c-0.1,1-0.5,2-1.2,2.7l-8.3,8.3
	c-0.4,0.4-0.9,0.6-1.4,0.6s-1.1-0.2-1.4-0.6l-3.1-3.1c-0.4-0.4-0.6-0.9-0.6-1.4s0.2-1.1,0.6-1.4l8.3-8.3c0.7-0.7,1.7-1.2,2.7-1.2
	c0.4,0,0.7,0,1.1,0.1c0.3,0.1,0.6,0.2,0.9,0.3l0.2,0.1l8.1-8.1c0.2-0.2,0.6-0.4,0.9-0.4l0,0c0.4,0,0.7,0.1,0.9,0.4
	c0.2,0.2,0.4,0.6,0.4,0.9s-0.1,0.7-0.4,0.9L44.8,46.9z M66.5,25.8l-7.1,18.8c-0.3,0.8-1,1.4-1.8,1.6c-0.1,0-0.3,0-0.4,0
	c-0.3,0-0.7-0.1-1-0.4l-2-1.8l0,0l-2.7-2.7l1.9-1.9c0.4-0.4,0.6-0.9,0.6-1.5s-0.2-1.1-0.6-1.5c-0.4-0.4-0.9-0.6-1.5-0.6
	s-1.1,0.2-1.5,0.6l-1.8,1.9L44,33.7c-0.5-0.5-0.4-1.1-0.4-1.5c0.2-0.8,0.8-1.5,1.6-1.8L64,23.3c0.8-0.3,1.6-0.2,2.1,0.3
	c0.3,0.3,0.5,0.7,0.5,1.2C66.7,25.2,66.6,25.5,66.5,25.8z"/>
</svg>
