<svg xmlns="http://www.w3.org/2000/svg" viewBox="0 0 53.11 39.17"><defs><style>.cls-1{fill:#191919;}</style></defs><title>business-icon</title><g id="Layer_2" data-name="Layer 2"><g id="Layer_1-2" data-name="Layer 1"><path class="cls-1" d="M52.63,5.28a1.89,1.89,0,0,0-1.35-.55H39.84V3.34A3.28,3.28,0,0,0,36.51,0H28.09a3.27,3.27,0,0,0-2.17.91,3.24,3.24,0,0,0-1,2.37V4.73H13.46a1.76,1.76,0,0,0-1.83,1.83V8.83H1.56a1.49,1.49,0,0,0-1.08.48A1.66,1.66,0,0,0,0,10.46V38.77a.39.39,0,0,0,.4.4H24.61a.39.39,0,0,0,.39-.4V34H51.21a1.93,1.93,0,0,0,1.35-.55,1.83,1.83,0,0,0,.55-1.35V6.56A1.9,1.9,0,0,0,52.63,5.28ZM25.75,4.51V3.34a2.73,2.73,0,0,1,.74-1.78A2.6,2.6,0,0,1,28.3.8h8.14A2.56,2.56,0,0,1,39,3.34V4.73H38V3.34a1.5,1.5,0,0,0-.49-1.07,1.49,1.49,0,0,0-1.07-.48H28.3a1.51,1.51,0,0,0-1.08.48,1.49,1.49,0,0,0-.48,1.07V4.73h-1ZM34,14.3l-3.15-.07h-.21V5.59H34.2v8.72Zm.23.86v4.61H30.61V15.16H34.2ZM27.82,4.73H27.6V3.34a.74.74,0,0,1,.2-.49.7.7,0,0,1,.5-.2h8.14a.68.68,0,0,1,.49.2.7.7,0,0,1,.21.49V4.73H27.82Zm-3.68,9.35V38.37H.86V10.46A.7.7,0,0,1,1,10a.53.53,0,0,1,.52-.23H20.11V12.3a1.44,1.44,0,0,0,.41,1.08,1.49,1.49,0,0,0,1.08.48h2.54ZM21,12.3v-2l.37.36,1.91,1.84.4.38h-2a.8.8,0,0,1-.47-.17A.45.45,0,0,1,21,12.3Zm3.82.71-4-4a.28.28,0,0,0-.13-.07h-8.2V6.63a1,1,0,0,1,.27-.71.78.78,0,0,1,.7-.33H29.68V19H25V13.4A.59.59,0,0,0,24.79,13Zm27.46,2.78V32.14a.93.93,0,0,1-1,1H25.07V19.81h4.68v.36a.39.39,0,0,0,.4.39h4.44a.39.39,0,0,0,.4-.39v-.36h9.52a8.3,8.3,0,0,0,6.06-2.53,10.38,10.38,0,0,0,1.28-1.61l.4-.61Zm0-4.51v.34A7.68,7.68,0,0,1,50,16.7,7.49,7.49,0,0,1,44.58,19H35.05V5.59H51.28a1,1,0,0,1,.7.27,1,1,0,0,1,.27.7Z"/></g></g></svg>