<svg xmlns="http://www.w3.org/2000/svg" viewBox="0 0 62.02 40.38"><defs><style>.cls-1{fill:#191919;}</style></defs><title>equipment-safety-icon</title><g id="Layer_2" data-name="Layer 2"><g id="Layer_1-2" data-name="Layer 1"><path class="cls-1" d="M31.19,2.08H28.14L21.89,8.34h4.6l4.7-2.87Zm-.75,3,0,0L26.28,7.59H23.7l.12-.12,4.64-4.64h2Z"/><path class="cls-1" d="M20.85,28a2,2,0,1,0,2,2A2,2,0,0,0,20.85,28Zm0,3.26A1.26,1.26,0,1,1,22.1,30,1.26,1.26,0,0,1,20.85,31.24Z"/><path class="cls-1" d="M28.4,28a2,2,0,1,0,2,2A2,2,0,0,0,28.4,28Zm0,3.26A1.26,1.26,0,1,1,29.66,30,1.25,1.25,0,0,1,28.4,31.24Z"/><path class="cls-1" d="M62,40.38,46.88,14.16l-3,5.2V11.13H33.41V0H27.25L19.6,7.65v7.89L12.37,5.25v0A3.41,3.41,0,1,0,5.75,4.13,3.3,3.3,0,0,0,6,5.25v0l0,0L3.14,10.62H3.09L3,10.6H2.83a2.82,2.82,0,0,0-1.49,5.22l0,0v0c0,2.1.08,7.19,1.21,9.23.9,1.63,2.58,2.42,5.14,2.42a21.44,21.44,0,0,0,5.26-.8l.16,0,2-4L11.65,24.1l0,0c-1.19-1.28-5.41-6.19-7.17-8.25l0-.05.06,0A2.8,2.8,0,0,0,5,11.6l0,0L8.2,7.39h.05a3.15,3.15,0,0,0,.91.14,3.26,3.26,0,0,0,1.16-.22l.06,0,0,0,9.82,18.26h-.1A4.67,4.67,0,0,0,15.39,30c0,2.41,2.23,4.38,5,4.38H35.21l-3.47,6ZM20.35,8,27.56.75h5.1v10.6l-5,5H20.35ZM11.29,24.8l.17.18,2.13-.84-1,1.89h0a19.88,19.88,0,0,1-4.83.71c-2.27,0-3.79-.67-4.53-2-1-1.88-1.12-7-1.12-8.5v-.08l.08,0a2.58,2.58,0,0,0,1.45-.07h0l0,0C5.72,18.46,10.47,24,11.29,24.8ZM2.83,15.49A2.08,2.08,0,1,1,4.9,13.41,2.08,2.08,0,0,1,2.83,15.49Zm1.55-4.43,0,0L4,10.83l-.07,0,0-.07L6.39,6.09l.06.08a3.4,3.4,0,0,0,1,.88l.06,0ZM9.16,6.79a2.66,2.66,0,1,1,2.66-2.66A2.67,2.67,0,0,1,9.16,6.79ZM11.05,7l0,0a3.27,3.27,0,0,0,.83-.83L12,6,19.78,17.1H28l5.22-5.22h9.94v8.78l-2.86,4.95H21.07v0Zm9.32,26.66C18,33.62,16.14,32,16.14,30s1.9-3.63,4.23-3.63H39.84l-1.91,3.3,0-.16A2,2,0,0,0,36,28a2,2,0,0,0,0,4,2,2,0,0,0,.55-.09l.16-.05-1,1.76ZM37.21,30A1.26,1.26,0,1,1,36,28.73,1.26,1.26,0,0,1,37.21,30Zm9.67-14.33,13.84,24H33Z"/><path class="cls-1" d="M57.53,37.79,46.88,19.34,36.23,37.79ZM56.23,37H37.53l9.35-16.19Z"/><path class="cls-1" d="M45.64,35.59h2.49V33.11H45.64Zm.75-1.73h1v1h-1Z"/><path class="cls-1" d="M45.74,32.39H48l.62-6.53H45.12Zm2.07-5.78-.47,5h-.92l-.47-5Z"/></g></g></svg>