<svg xmlns="http://www.w3.org/2000/svg" viewBox="0 0 37.25 48.4"><defs><style>.cls-1{fill:#191919;}</style></defs><title>grader-icon</title><g id="Layer_2" data-name="Layer 2"><g id="Layer_1-2" data-name="Layer 1"><path class="cls-1" d="M30.27,6.42H21.21V4.35H17.57v0l-.27-.55,0-.11a2.81,2.81,0,0,0,.21-1,2.62,2.62,0,1,0-5.24,0,2.81,2.81,0,0,0,.21,1l0,.11-.28.57H9.17V6.42H1.25a1.23,1.23,0,0,0-.87.37A1.59,1.59,0,0,0,0,7.66V47.08A1.3,1.3,0,0,0,1.33,48.4h29a1.32,1.32,0,0,0,1.32-1.32V7.66A1.37,1.37,0,0,0,30.27,6.42ZM12.93,5.25l.88-1.45a1.72,1.72,0,0,1-.39-1.1,1.73,1.73,0,1,1,3.46,0,1.76,1.76,0,0,1-.39,1.12l.81,1.43h3.17V10H10.14v0l-.09-4.71Zm8.36,5.57v-1H28V44.38H3.8V9.83H9.17v1ZM30.7,47.08a.44.44,0,0,1-.43.43h-29a.44.44,0,0,1-.43-.43V7.66A.31.31,0,0,1,1,7.33l.09-.1h8V8.94H3V45.27H28.85V8.94H21.29V7.23h9.06a.44.44,0,0,1,.43.43Z"/><rect class="cls-1" x="10.92" y="18.87" width="13.57" height="0.89"/><rect class="cls-1" x="10.92" y="23.6" width="13.57" height="0.89"/><rect class="cls-1" x="10.92" y="28.34" width="13.57" height="0.89"/><rect class="cls-1" x="10.92" y="33.15" width="13.57" height="0.89"/><path class="cls-1" d="M6.65,20.68h2.8V17.87H6.65Zm.89-1.91h1v1h-1Z"/><path class="cls-1" d="M6.65,25.41h2.8v-2.8H6.65Zm.89-1.91h1v1h-1Z"/><path class="cls-1" d="M6.65,30.22h2.8v-2.8H6.65Zm.89-1.91h1v1h-1Z"/><path class="cls-1" d="M6.65,35h2.8V32.15H6.65Zm.89-1.91h1v1h-1Z"/><path class="cls-1" d="M36.54,7.94H34.85a.73.73,0,0,0-.71.72V42.34a.68.68,0,0,0,0,.12l.05.06v.07l1,4.51h.93l1-4.6,0,0a.35.35,0,0,0,0-.12V8.66A.73.73,0,0,0,36.54,7.94ZM36.18,43l-.48,2.19L35.19,43h1Zm.18-1.11H35v-28h1.33Zm0-28.95H35V11.36h1.33Zm0-2.67H35V8.76h1.33Z"/></g></g></svg>