<?xml version="1.0" encoding="utf-8"?>
<!-- Generator: Adobe Illustrator 23.0.2, SVG Export Plug-In . SVG Version: 6.00 Build 0)  -->
<svg version="1.1" xmlns="http://www.w3.org/2000/svg" xmlns:xlink="http://www.w3.org/1999/xlink" x="0px" y="0px"
	 viewBox="0 0 75 75" style="enable-background:new 0 0 75 75;" xml:space="preserve">
<style type="text/css">
	.st0{display:none;}
	.st1{display:inline;}
	.st2{display:inline;fill:none;}
	.st3{fill:#191919;}
	.st4{fill:none;}
</style>
<g id="technology-icon" class="st0">
	<g class="st1">
		<path d="M56.2,34.5H38.1c-0.3,0-0.5,0.2-0.5,0.5v28.8c0,0.3,0.2,0.5,0.5,0.5h18.1c0.3,0,0.5-0.2,0.5-0.5V35
			C56.7,34.8,56.5,34.5,56.2,34.5z M55.7,63.4H38.6V35.5h17.2v27.9H55.7z"/>
		<path d="M44,32.8h6.4c0.3,0,0.5-0.2,0.5-0.5s-0.2-0.5-0.5-0.5H44c-0.3,0-0.5,0.2-0.5,0.5S43.7,32.8,44,32.8z"/>
		<path d="M30.2,13.7h8.3c0.3,0,0.5-0.2,0.5-0.5s-0.2-0.5-0.5-0.5h-8.3c-0.3,0-0.5,0.2-0.5,0.5S29.9,13.7,30.2,13.7z"/>
		<path d="M54.2,29.5h-0.3V12.9c0-1.9-1.6-3.5-3.5-3.5H18.3c-1.9,0-3.5,1.6-3.5,3.5v47.2c0,1.9,1.6,3.5,3.5,3.5h16v0.2
			c0.1,3.1,2.7,5.6,5.8,5.6h14.1c3.2,0,5.8-2.6,5.8-5.8V35.3C60,32.1,57.4,29.5,54.2,29.5z M34.3,62.7h-16c-1.4,0-2.6-1.2-2.6-2.6
			V12.9c0-1.4,1.2-2.6,2.6-2.6h32.1c1.4,0,2.6,1.2,2.6,2.6v16.6h-3.7V17c0-0.3-0.2-0.5-0.5-0.5h-29c-0.3,0-0.5,0.2-0.5,0.5v39
			c0,0.3,0.2,0.5,0.5,0.5h14.4v6.2H34.3z M34.3,35.3v20.2h-14v-38h28.1v12h-8.3C36.9,29.5,34.3,32.1,34.3,35.3z M59.1,63.6
			c0,2.7-2.2,4.9-4.9,4.9H40.1c-2.7,0-4.9-2.2-4.9-4.9V35.3c0-2.7,2.2-4.9,4.9-4.9h14.1c2.7,0,4.9,2.2,4.9,4.9
			C59.1,35.3,59.1,63.6,59.1,63.6z"/>
	</g>
	<rect x="-0.1" y="-0.1" class="st2" width="74.9" height="74.9"/>
</g>
<g id="marketing-sales-icon" class="st0">
	<g class="st1">
		<g id="Layer_1-2">
			<path class="st3" d="M56,41.5c-0.4-0.1-0.8-0.1-1.2-0.1h-0.3c-0.6,0-1.2,0.1-1.8,0.2c-0.4,0.1-0.8,0.2-1.2,0.4
				c-3,1.2-5,4.1-5,7.4c0,0.4,0,0.7,0.1,1.1c0.1,0.5,0.2,1,0.3,1.4c1.4,4.2,5.8,6.4,10,5.1c4.2-1.4,6.4-5.8,5.1-10
				C61.1,44.1,58.8,42.1,56,41.5L56,41.5z M54.5,56.5c-2.9,0-5.5-1.7-6.6-4.3c-0.2-0.5-0.4-0.9-0.5-1.4c-0.1-0.5-0.2-1-0.1-1.4
				c0-2.8,1.7-5.4,4.2-6.5c0.4-0.2,0.8-0.3,1.2-0.4c0.6-0.2,1.2-0.2,1.8-0.2h0.3c0.4,0,0.8,0.1,1.2,0.1c3.9,0.7,6.5,4.5,5.7,8.4
				C61,54,58,56.5,54.5,56.5L54.5,56.5z"/>
			<path class="st3" d="M56,44c-0.2-0.1-0.4-0.1-0.7-0.1h-0.2v-0.4h-1.1v0.4h-0.3c-1.2,0-2.2,1-2.3,2.3v1.2c0.1,0.8,0.5,1.4,1.2,1.8
				l0,0l0.6,0.2l0,0l0.7,0.3v3.9h-0.3c-0.2,0-0.4-0.1-0.6-0.2c-0.2-0.1-0.4-0.3-0.5-0.5c-0.1-0.2-0.1-0.3-0.1-0.5v-0.4h-1.1v0.5
				c0,1.1,0.7,2,1.8,2.2c0.2,0,0.3,0.1,0.5,0.1H54v0.4h1.1v-0.4h0.2h0.3c0.1,0,0.2,0,0.3-0.1c0.9-0.3,1.4-1.2,1.4-2.1v-1.2
				c-0.1-0.8-0.5-1.5-1.3-1.8l-0.2-0.1l-0.3-0.1l0,0L55,49v-4.1h0.2c0.2,0,0.5,0.1,0.6,0.3c0.3,0.2,0.4,0.5,0.4,0.9v0.4h1.1v-0.4
				C57.4,45.2,56.8,44.4,56,44z M54.1,48.5l-0.8-0.3c-0.2-0.1-0.4-0.3-0.5-0.5c-0.1-0.1-0.1-0.2-0.1-0.3v-1.2c0-0.7,0.6-1.2,1.2-1.2
				h0.3L54.1,48.5z M55.6,50.2l0.3,0.2c0.2,0.2,0.4,0.4,0.4,0.7v1.3c0,0.3-0.2,0.7-0.4,0.9c-0.2,0.2-0.4,0.3-0.6,0.3h-0.2V50
				L55.6,50.2z"/>
			<path class="st3" d="M70.4,38l-0.2-0.3l0,0l-0.6-0.8c-3.3-4.2-8.2-6.7-13.5-7V10.7h-4.4v0.8L24.7,23H5v1.3H1.7v16.6H5v1.3h2.6
				L8.8,46l0.9-0.2L14.2,60h12l-3.5-11.3h2.9l-2-6.4l0.8-0.2h0.4l10.5,4.5c-0.1,0.6-0.1,1.2-0.1,1.8c0,0.2,0,0.3,0,0.5v0.4
				c0,0.3,0,0.5,0,0.8v0.2v0.5V51c0,0.1,0,0.2,0,0.3s0,0.1,0,0.2v0.1c0,0.2,0,0.5,0.1,0.7l0,0c0.3,1.6,0.8,3.2,1.4,4.7l0.1,0.3
				l0.1,0.3c2.9,6.1,8.8,10.2,15.5,10.9h0.1h0.7h0.4h0.9c4.1,0,8.1-1.3,11.4-3.7l0,0c0.2-0.2,0.5-0.4,0.9-0.7c4-3.2,6.6-7.9,7-13V51
				c0-0.3,0-0.5,0-0.8s0-0.7,0-1.1l0,0C73.7,45.2,72.6,41.3,70.4,38z M5,39.7H2.9V25.4H5V39.7z M9.8,42.1h9.8l-9.1,2.2L9.8,42.1z
				 M24.8,58.8h-9.7l-4.2-13.3l8.9-2.2L24.8,58.8z M24.1,47.6h-1.8L20.9,43l1.6-0.4L24.1,47.6z M24.7,41H6.1V24.2h18.4L24.7,41z
				 M52.7,11.8h2.1v18h-0.3c-0.6,0-1.2,0-1.8,0.1V11.8z M52.7,30.9c0.6-0.1,1.2-0.1,1.8-0.1h1H56c5,0.3,9.7,2.7,12.8,6.7l0.4,0.5
				l-4,2.9l-0.1-0.1c-2.3-2.8-5.6-4.6-9.2-5c-0.4,0-0.8,0-1.2-0.1h-0.3c-0.6,0-1.2,0-1.8,0.1c-0.4,0.1-0.8,0.1-1.2,0.2
				c-0.2,0-0.4,0.1-0.6,0.1h-0.1l-1.5-4.6h0.1c0.7-0.2,1.4-0.4,2.2-0.5C51.9,30.9,52.3,30.9,52.7,30.9L52.7,30.9z M67.1,49.3
				c0,4-2,7.8-5.2,10.2c-2.1,1.6-4.7,2.4-7.4,2.4l0,0c-6.9,0-12.5-5.5-12.6-12.4c0-0.1,0-0.2,0-0.3c0-0.3,0-0.6,0-1
				c0.4-5.1,3.8-9.5,8.6-11.1c0.3-0.1,0.6-0.2,0.9-0.3c0.4-0.1,0.8-0.2,1.2-0.2c0.6-0.1,1.2-0.2,1.8-0.2h0.3c0.4,0,0.8,0,1.2,0.1
				c3.5,0.4,6.7,2.3,8.7,5.1C66.3,43.9,67.1,46.6,67.1,49.3L67.1,49.3z M25.9,41.4V23.8l25.6-11V30c-1,0.2-2,0.4-3,0.7h-0.2
				c-0.2,0.1-0.5,0.2-0.7,0.3l-0.2,0.1c-6.3,2.3-10.8,7.8-12,14.4L25.9,41.4z M64.9,64.6c-3,2.1-6.6,3.2-10.3,3.2h-0.6
				c-0.1,0-0.2,0-0.3,0h-0.3h-0.7h-0.1c-6.4-0.7-12-4.6-14.7-10.4c-0.1-0.1-0.1-0.2-0.1-0.3l-0.1-0.3c-0.6-1.4-1.1-2.9-1.3-4.4l0,0
				l-0.1-0.7v-0.2c0,0,0-0.1,0-0.2c0-0.1,0-0.2,0-0.3v-0.2v-0.5v-0.2c0-0.2,0-0.5,0-0.7v-0.4c0-0.1,0-0.3,0-0.4c0-0.5,0-1,0.1-1.4
				s0.1-0.8,0.2-1.2c1.1-6.3,5.5-11.6,11.5-13.8h0.2l0.2-0.1h0.1l1.4,4.7h-0.1c-4.8,1.8-8.2,6.2-8.7,11.4c0,0.4,0,0.8-0.1,1.2v0.1
				c0,7.5,6.1,13.6,13.6,13.6l0,0c2.7,0,5.2-0.8,7.5-2.3l0.1-0.1l2.9,4L64.9,64.6z M73,50.3c0,0.3,0,0.5,0,0.8v0.1
				c-0.4,4.9-2.8,9.3-6.7,12.4l-0.4,0.3l-0.1,0.1l-2.9-4l0.1-0.1c3.1-2.5,4.9-6.1,5.1-10.1v-0.1H73L73,50.3z M72.8,48.8h-4.8v-0.1
				c-0.1-2.5-0.9-4.8-2.2-6.9v-0.1l3.9-2.9l0.1,0.1c2,2.9,3.1,6.3,3.2,9.8v0.1L72.8,48.8z"/>
		</g>
	</g>
	<rect x="-0.1" y="-0.1" class="st2" width="74.9" height="74.9"/>
</g>
<g id="trades-construction-icon" class="st0">
	<g class="st1">
		<g id="Layer_1-2_2_">
			<path class="st3" d="M72.6,24.8c-1-0.9-2.3-1.1-3.5-0.6l-7.2,2.7v-5.3h-9.7v-8H12.3v8H2.7V31h9.7v6.8H2.7V47h9.7v8h21.6l-5.7,5.7
				c-0.6,0.6-1,1.5-1,2.4c0,0.9,0.3,1.7,1,2.4l3.7,3.7c0.6,0.6,1.5,1,2.4,1c0.9,0,1.7-0.4,2.4-1l9.8-9.8c1-1,1.6-2.3,1.7-3.8
				c0-0.1,0-0.2,0-0.3v-0.3h4.1v-6.4l1.7-1.7l5.4,5.4c0.7,0.7,1.7,0.9,2.6,0.7c1.3-0.3,2.4-1.3,2.9-2.5l8.4-22.2
				c0.2-0.4,0.3-0.9,0.3-1.4C73.4,26.2,73.1,25.4,72.6,24.8z M60.6,22.9v4.5h-0.1l-6,2.3H42.5v-6.8H60.6z M44.5,37.5l0.1,0.2H32.9
				V31h18.3l-4.3,1.6c-1.2,0.5-2.2,1.6-2.5,2.9C44.2,36.2,44.2,36.9,44.5,37.5z M45.9,39L45.9,39l4.5,4.5l-2.3,2.3h-5.5V39H45.9z
				 M31.6,31v6.8H13.6V31H31.6z M23.2,29.7v-6.8h18.1v6.8L23.2,29.7z M23.2,39h18.1v6.8H23.2V39z M32.9,14.9h18.1v6.8H32.9V14.9z
				 M13.6,14.9h18.1v6.8H13.6V14.9z M3.9,29.7v-6.8H22v6.8L3.9,29.7z M3.9,45.8V39H22v6.8L3.9,45.8z M31.6,53.8h-18V47h18.1
				L31.6,53.8z M32.8,53.8V47h14l-2.6,2.6h-0.1c-0.3-0.1-0.6-0.2-0.9-0.2c-0.5-0.1-1-0.1-1.5-0.1C40.3,49.4,39,50,38,51l-2.8,2.8
				L32.8,53.8z M50.9,53.8h-3l-0.1-0.3c0-0.1-0.1-0.2-0.1-0.3v-0.1v-0.1l3.1-3.1L50.9,53.8z M46.7,52.9l0.1,0.3
				c0,0.1,0.1,0.2,0.1,0.3v0.2c0,0,0,0.1,0,0.2v0.1v0.1c0,0.1,0,0.1,0,0.2c0,0.2,0.1,0.4,0.1,0.6v0.6c-0.1,1.2-0.6,2.3-1.4,3.2
				l-9.8,9.8c-1,0.9-2.5,0.9-3.4,0l-3.7-3.7c-0.4-0.5-0.7-1.1-0.7-1.7c0.1-0.7,0.4-1.3,0.9-1.7l9.8-9.8c0.9-0.9,2-1.4,3.2-1.5
				c0.4,0,0.8,0,1.2,0.1c0.4,0.1,0.8,0.2,1.1,0.3l0.3,0.1l9.6-9.6c0.3-0.3,0.7-0.4,1.1-0.4l0,0c0.8,0,1.5,0.6,1.6,1.5
				c0,0.4-0.2,0.9-0.5,1.2L46.7,52.9z M72.2,28l-8.4,22.2c-0.4,1-1.2,1.7-2.2,1.9c-0.2,0-0.3,0-0.5,0c-0.5,0-0.9-0.2-1.2-0.5
				l-2.2-2.2l0,0l-3.2-3.2l2.3-2.3c1-1,1-2.5,0-3.5c-1-1-2.5-1-3.5,0l-2.3,2.3l-5.4-5.4c-0.4-0.5-0.6-1.1-0.4-1.7
				c0.2-1,1-1.8,1.9-2.2l22.2-8.4c0.8-0.4,1.8-0.2,2.5,0.4c0.4,0.4,0.6,0.9,0.6,1.5C72.4,27.3,72.3,27.7,72.2,28z"/>
		</g>
	</g>
	<rect x="-0.1" y="-0.1" class="st2" width="74.9" height="74.9"/>
</g>
<g id="contractor-insurance-icon" class="st0">
	<g class="st1">
		<g id="Layer_1-2_4_">
			<path class="st3" d="M73,32.3c-10.2,0-17.8-7.1-17.9-7.2l-0.4-0.4l-0.4,0.4c-1.1,1-2.2,1.9-3.4,2.6c-2.1-2.3-4.7-4.3-7.5-5.7
				l1.6-6.3l-0.5-0.2c-4-1.5-8.2-2.3-12.4-2.4c-4.2,0.1-8.4,0.9-12.4,2.4l-0.5,0.2l1.6,6.3C12.5,26.1,6.9,34.6,5.2,45.4H1.7v10.5h41
				c5.3,9.4,11.7,13.1,11.8,13.1l0.3,0.1l0.3-0.1c0.2-0.1,16.3-9.5,18.5-36.1v-0.6L73,32.3z M49.9,28.4c-2.8,1.7-5.8,2.9-9,3.5
				l2.2-8.6C45.6,24.5,47.9,26.3,49.9,28.4z M21.1,23.2l3.8,15l1.2-0.3l-5.4-21.5c3.7-1.3,7.5-2,11.4-2.1c3.9,0.1,7.8,0.8,11.5,2.1
				l-3.9,15.7c-1,0.2-2.1,0.2-3.1,0.2h-0.6V33c0.3,4.2,1.1,8.3,2.2,12.4H6.4C8,35.1,13.4,27.1,21.1,23.2z M2.8,54.7v-8.1h35.7
				c0.9,2.8,2,5.5,3.4,8.1H2.8z M54.7,67.8c-4.5-3.1-8.2-7.3-10.8-12c-0.2-0.4-0.5-0.8-0.7-1.2c-1.4-2.6-2.6-5.3-3.5-8.1
				c-0.1-0.4-0.2-0.8-0.4-1.2c-1.2-3.9-1.9-7.9-2.3-12c0.8,0,1.5-0.1,2.2-0.2c0.4,0,0.8-0.1,1.3-0.2c3.6-0.6,7-1.9,10.1-3.8l1-0.6
				c1.1-0.7,2.1-1.5,3.1-2.3c4.9,4.3,11.1,6.8,17.6,7.2C70.2,57.1,56.8,66.6,54.7,67.8L54.7,67.8z"/>
			<polygon class="st3" points="47.9,46.6 46.7,45.4 46.2,44.9 45.8,45.4 45.4,45.7 46.3,46.6 54.9,54.5 59.9,46.6 60.7,45.4 
				64.8,38.9 63.9,38.3 59.4,45.4 58.6,46.6 54.7,52.8 			"/>
		</g>
	</g>
	<rect x="-0.1" y="-0.1" class="st2" width="74.9" height="74.9"/>
</g>
<g id="construction-business-icon" class="st0">
	<rect x="-0.1" y="-0.1" class="st2" width="74.9" height="74.9"/>
	<g class="st1">
		<g id="Layer_1-2_1_">
			<path class="st3" d="M70,17.6c-0.5-0.5-1.1-0.7-1.8-0.7H53.1V15c0-2.4-1.9-4.4-4.3-4.4c-0.1,0-0.1,0-0.2,0H37.4
				c-1.1,0-2.1,0.5-2.9,1.2c-0.8,0.8-1.3,2-1.3,3.1v1.9H18c-1.3,0-2.4,1-2.4,2.3c0,0,0,0.1,0,0.1v2.1H12v0.5c0,0.2-0.2,3.9-3.4,4.3
				v-2.3H3.7v9.8h4.9V31c3.5,0.1,7.1,1.1,7.1,2.8l-0.7,37h7.4l-0.3-15.2h46.1c0.7,0,1.3-0.3,1.8-0.7c0.5-0.5,0.7-1.1,0.7-1.8V19.3
				C70.7,18.6,70.5,18,70,17.6z M7.6,32.7H4.7v-7.9h2.9L7.6,32.7z M34.3,16.5V15c0-0.9,0.4-1.7,1-2.4c0.6-0.6,1.5-1,2.4-1h10.8
				c1.9,0,3.4,1.5,3.4,3.4v1.8h-1.3V15c0-0.5-0.2-1.1-0.6-1.4c-0.4-0.4-0.9-0.6-1.4-0.6H37.7c-0.5,0-1.1,0.2-1.4,0.6
				c-0.4,0.4-0.7,0.9-0.7,1.4v1.8h-1.3L34.3,16.5z M45.3,29.5l-4.2-0.1h-0.3V18h4.8v11.6L45.3,29.5z M45.6,30.7v6.1h-4.8v-6.1H45.6z
				 M37.1,16.8h-0.3V15c0-0.2,0.1-0.5,0.3-0.7c0.2-0.2,0.4-0.3,0.7-0.3h10.8c0.5,0,0.9,0.4,0.9,0.9c0,0,0,0,0,0v1.8H37.1z M8.6,30
				v-2.9c2.4-0.3,4.3-2.3,4.4-4.8h8.2c6.4,0,10,2.8,10.6,8.4c-1.6-2.5-4.2-4.2-7.1-4.7c-1-0.2-1.9,0.1-2.7,0.7
				c-0.8,0.7-1.3,1.8-1.3,2.9v3.6h-4.2C16,30.8,11.6,30.1,8.6,30z M16,69.8l0.7-35.5h4l0.7,35.5H16z M21.7,33.8v-4.1
				c0-0.8,0.3-1.6,1-2.2c0.5-0.4,1.2-0.6,1.8-0.5c3.1,0.5,5.1,2.1,7.4,5.8l0.9,1.5v-1.8c0-9.3-6.4-11.2-11.7-11.2h-4.4v-2
				c0-0.3,0.1-0.7,0.4-0.9c0.2-0.3,0.6-0.5,0.9-0.4h21.6v17.8H21.7L21.7,33.8z M69.5,31.5v21.7c0.1,0.7-0.5,1.3-1.1,1.3
				c-0.1,0-0.1,0-0.2,0H22l-0.3-17.7h11.7h6.2v0.5c0,0.3,0.2,0.5,0.5,0.5c0,0,0,0,0,0h5.9c0.3,0,0.5-0.2,0.5-0.5c0,0,0,0,0,0v-0.5
				h12.6c3,0,6-1.2,8.1-3.4c0.6-0.7,1.2-1.4,1.7-2.1l0.5-0.8V31.5z M69.5,25.5V26c-0.1,2.5-1.2,5-3,6.7c-1.9,2-4.5,3.1-7.2,3.1H46.7
				V18h21.6c0.3,0,0.7,0.1,0.9,0.4c0.2,0.3,0.4,0.6,0.4,0.9L69.5,25.5z"/>
		</g>
	</g>
</g>
<g id="all-icon" class="st0">
	<g class="st1">
		<g id="Layer_1-2_3_">
			<path class="st3" d="M64.7,28.9c0-4.5-2.8-7.2-7.4-7.3h-3.7v-2.4c0.1-3.8-2.8-6.9-6.6-7.1c-0.2,0-0.3,0-0.5,0H31.7H17
				c-3.8-0.2-7,2.7-7.2,6.4c0,0.3,0,0.5,0,0.8c0,10.3,0,20.8,0,30.9c-0.2,3.8,2.8,7,6.5,7.1c0.2,0,0.4,0,0.7,0h3.7l0.1,0.9
				c0,0.2,0,0.3,0,0.4c0,0.2,0,0.4,0,0.5c0.3,5.1,2.9,7.6,7.9,7.6h28.4c4.6,0,7.5-2.9,7.5-7.4C64.7,48.7,64.7,38.7,64.7,28.9z
				 M20.9,54.5v1.9l-1.1-0.1h-1.5c-1.1,0-2.2-0.1-3.3-0.3c-2.6-0.7-4.4-3.1-4.2-5.7c0-8.5,0-19.8,0-31.3c-0.1-3.1,2.4-5.8,5.5-5.9
				c0.1,0,0.3,0,0.4,0c5.3,0,10.2,0,15,0c5.1,0,10.1,0,14.8,0c1.6,0,3.1,0.6,4.2,1.8c1.3,1.6,1.8,3.7,1.5,5.7l-0.1,0.9H28.5
				c-4.8,0-7.5,2.8-7.5,7.6C20.9,29.2,20.9,54.5,20.9,54.5z M63.6,59c0,4.6-2.3,6.8-6.9,6.8H29c-4.8,0-7-2.2-7-6.9V29.3
				c0-4.3,2.3-6.6,6.6-6.6h28.5c4.2,0,6.4,2.3,6.4,6.6C63.6,39.4,63.6,49.4,63.6,59z"/>
			<path class="st3" d="M54.6,37.4c-0.2,0-0.4,0-0.6,0c-0.1,0.1-0.2,0.2-0.3,0.4L53.3,38l-10.2,9.8l-2.6,2.5L40,50.8l-0.5-0.5
				l-1.8-1.9L33.5,44c-0.2-0.3-0.6-0.6-1-0.6c-0.2,0-0.4,0.1-0.5,0.3c-0.2,0.1-0.3,0.3-0.3,0.5c0,0.3,0.2,0.6,0.6,1.1l3.3,3.6
				l3.1,3.3c0.4,0.4,0.9,0.9,1.3,0.9s0.8-0.5,1.3-0.9l12.9-12.5l0.4-0.4c0.3-0.2,0.5-0.4,0.6-0.7c0.1-0.4,0.1-0.7,0-1.1
				C55.1,37.4,54.8,37.3,54.6,37.4z"/>
		</g>
	</g>
	<rect x="-0.1" y="-0.1" class="st2" width="74.9" height="74.9"/>
</g>
<g id="trades-icon" class="st0">
	<g class="st1">
		<g id="Layer_1-2_5_">
			<path class="st3" d="M72.8,33.7l1-1l-0.4-0.4h1.3v-1.5h-2.8l-1.4-1.5l-1.1,1l0.4,0.4h-2l-1.5-1.5l-1.1,1l0.4,0.4h-2l-1.5-1.5
				l-1.1,1l0.4,0.4h-2l-1.5-1.5l-1,1l0.4,0.4h-1.2c-0.1-3-2.6-5.4-5.6-5.5h-4.2l-4.9-4.5H10c-5.1,0-9.2,4.9-9.2,10.8
				c0,5.6,3.7,10.3,8.4,10.8v23.6h15l-0.6-1.1c-1-1.9-2.7-3.4-4.9-3.9v-7h2.5v-6.7h-2.5v-4.8h22.9l4.9-4.6h4.1
				c3-0.1,5.5-2.5,5.6-5.5H59l1.5,1.5l1-1l-0.5-0.4h2l1.5,1.5l1-1l-0.4-0.4h2l1.4,1.5l1.1-1l-0.4-0.4h2L72.8,33.7z M19.8,48.6v3.7
				h-1v-3.7H19.8z M17.3,47.2V62l0.6,0.2c1.5,0.3,2.8,1.1,3.8,2.2H10.7V42.3h6.6L17.3,47.2z M41.2,40.9H10c-4.2,0-7.7-4.2-7.7-9.3
				s3.5-9.4,7.7-9.4h31.1l4.5,4.1v10.4L41.2,40.9z M50.8,36.4h-3.7v-9.6h3.6c2.4,0.1,4.3,2.1,4.2,4.5c0,0.1,0,0.2,0,0.3
				c0.2,2.4-1.5,4.5-3.9,4.8C51,36.3,50.9,36.3,50.8,36.4L50.8,36.4z"/>
			<rect x="10" y="26.2" class="st3" width="6.9" height="1.5"/>
		</g>
	</g>
	<rect x="-0.1" y="-0.1" class="st2" width="74.9" height="74.9"/>
</g>
<g id="landscaper-icon">
	<g>
		<g id="Layer_1-2_6_">
			<path class="st3" d="M48.8,59.2c0,2.1,1.7,3.9,3.9,3.9c2.1,0,3.9-1.7,3.9-3.9c0-2.1-1.7-3.9-3.9-3.9C50.5,55.3,48.8,57,48.8,59.2
				L48.8,59.2z M55.1,59.2c0,1.3-1.1,2.4-2.4,2.4c-1.3,0-2.4-1.1-2.4-2.4c0-1.3,1.1-2.4,2.4-2.4c0,0,0,0,0,0
				C54,56.7,55.1,57.8,55.1,59.2z"/>
			<path class="st3" d="M57,24.4c-0.8-0.2-1.5-0.5-2.1-1l-0.3-0.3c-0.9-1-2.5-2.7-4.4-2.7c-1.4,0-2.2-0.2-3.8-3.9
				c-0.8-1.7-2.5-2.7-4.4-2.8c-3-0.3-6,1-7.8,3.5c-0.7,0.9-1.6,2-2.6,3.1c-2.5,2.9-5.2,6.1-5.7,9.1h-6.6l-3.4-11.1
				c-1.4-4.5-4.2-5.6-5.6-5.9c-2.7-0.4-5.4,0.6-7,2.8c-1.2,1.5-1.5,3.6-0.7,5.3L4,19.9c-0.6-1.3-0.4-2.7,0.5-3.8
				c1.3-1.7,3.5-2.6,5.6-2.3c1.5,0.3,3.5,1.4,4.6,4.9c3.8,12.5,13,42.3,13,42.3c0.8,2.8,3.3,6.7,6,6.7h0.1c2.2-0.1,3.8-2.6,4.8-7.3
				c1.3-6.6,2.6-8.5,6-8.5h3.3c-4,2.6-5.1,8-2.4,11.9c2.6,4,8,5.1,11.9,2.4s5.1-8,2.4-11.9c-0.9-1.3-2.1-2.3-3.5-3
				C68.1,47.9,68.6,30.2,68.6,30v-0.7h-7.3C61.2,25.7,58.8,24.9,57,24.4z M32.8,21.2c1-1.2,2-2.3,2.6-3.3c1.5-2,4-3.1,6.5-2.9
				c1.3,0,2.6,0.8,3.2,2c1.6,3.7,2.8,4.8,5.1,4.8c1.2,0,2.6,1.5,3.3,2.3l0.4,0.4c0.8,0.7,1.7,1.1,2.7,1.4c1.7,0.5,3.1,1,3.2,3.6
				H27.5C28,26.8,30.6,23.8,32.8,21.2z M37.2,60.2c-0.8,3.9-2,6.1-3.4,6.2c-1.8,0.1-4-3-4.7-5.7l-2.7-8.8h14.1
				C38.6,53.6,37.9,56.6,37.2,60.2z M59.8,59.2c0,4-3.3,7.2-7.2,7.1S45.4,63,45.5,59c0-3.9,3.2-7.1,7.2-7.1
				C56.6,51.9,59.8,55.2,59.8,59.2C59.8,59.1,59.8,59.1,59.8,59.2z M52.1,50.6H25.9c-1.8-5.7-4-13.1-6-19.7h47.2
				C66.9,34.5,65,50.6,52.1,50.6z"/>
		</g>
	</g>
	<rect x="-0.1" y="-0.1" class="st4" width="74.9" height="74.9"/>
</g>
<g id="designers-icon" class="st0">
	<g class="st1">
		<g id="Layer_1-2_7_">
			<path class="st3" d="M64.2,40.7l1.4-0.8l-6.1-10.6l0.6-0.6L49.6,18.3l-0.6,0.6l-10.6-6.2L37.7,14l-12.1-3.2l-0.5,1.9H11.8v53.8
				h53.8V51.7h-2.7l4.5-1.5L64.2,40.7z M62,36.4L21.1,50l36.6-21.1L62,36.4z M57,27.6L21.8,48l27.8-27.7L57,27.6z M39,14.6l9,5.2
				L19.5,48.2L39,14.6z M37,15.3L16.3,51.2l0,0l10.3-38.6L37,15.3z M13.3,14h11.4L14.6,51.7h-1.3V14z M64.3,65.1h-51v-12h51V65.1z
				 M20.7,51.6l41.1-13.8l3.8,11.4l-7.1,2.4L20.7,51.6z"/>
			<path class="st3" d="M17.5,61.9c1.6,0,2.9-1.2,2.9-2.8c0-1.6-1.2-2.9-2.8-2.9c-1.6,0-2.9,1.2-2.9,2.8c0,0,0,0,0,0.1
				C14.8,60.6,16,61.9,17.5,61.9z M17.5,57.7c0.8,0,1.5,0.6,1.6,1.4c0,0.8-0.6,1.5-1.4,1.6c-0.8,0-1.5-0.6-1.6-1.4c0,0,0-0.1,0-0.1
				C16.1,58.4,16.8,57.7,17.5,57.7z"/>
		</g>
	</g>
	<rect x="-0.1" y="-0.1" class="st2" width="74.9" height="74.9"/>
	<rect x="-0.1" y="-0.1" class="st2" width="74.9" height="74.9"/>
</g>
</svg>
