<?xml version="1.0" encoding="utf-8"?>
<!-- Generator: Adobe Illustrator 23.0.2, SVG Export Plug-In . SVG Version: 6.00 Build 0)  -->
<svg version="1.1" xmlns="http://www.w3.org/2000/svg" xmlns:xlink="http://www.w3.org/1999/xlink" x="0px" y="0px"
	 viewBox="0 0 75 75" style="enable-background:new 0 0 75 75;" xml:space="preserve">
<style type="text/css">
	.st0{display:none;}
	.st1{display:inline;}
	.st2{display:inline;fill:none;}
	.st3{fill:#191919;}
	.st4{fill:none;}
</style>
<g id="technology-icon" class="st0">
	<g class="st1">
		<path d="M56.2,34.5H38.1c-0.3,0-0.5,0.2-0.5,0.5v28.8c0,0.3,0.2,0.5,0.5,0.5h18.1c0.3,0,0.5-0.2,0.5-0.5V35
			C56.7,34.8,56.5,34.5,56.2,34.5z M55.7,63.4H38.6V35.5h17.2v27.9H55.7z"/>
		<path d="M44,32.8h6.4c0.3,0,0.5-0.2,0.5-0.5s-0.2-0.5-0.5-0.5H44c-0.3,0-0.5,0.2-0.5,0.5S43.7,32.8,44,32.8z"/>
		<path d="M30.2,13.7h8.3c0.3,0,0.5-0.2,0.5-0.5s-0.2-0.5-0.5-0.5h-8.3c-0.3,0-0.5,0.2-0.5,0.5S29.9,13.7,30.2,13.7z"/>
		<path d="M54.2,29.5h-0.3V12.9c0-1.9-1.6-3.5-3.5-3.5H18.3c-1.9,0-3.5,1.6-3.5,3.5v47.2c0,1.9,1.6,3.5,3.5,3.5h16v0.2
			c0.1,3.1,2.7,5.6,5.8,5.6h14.1c3.2,0,5.8-2.6,5.8-5.8V35.3C60,32.1,57.4,29.5,54.2,29.5z M34.3,62.7h-16c-1.4,0-2.6-1.2-2.6-2.6
			V12.9c0-1.4,1.2-2.6,2.6-2.6h32.1c1.4,0,2.6,1.2,2.6,2.6v16.6h-3.7V17c0-0.3-0.2-0.5-0.5-0.5h-29c-0.3,0-0.5,0.2-0.5,0.5v39
			c0,0.3,0.2,0.5,0.5,0.5h14.4v6.2H34.3z M34.3,35.3v20.2h-14v-38h28.1v12h-8.3C36.9,29.5,34.3,32.1,34.3,35.3z M59.1,63.6
			c0,2.7-2.2,4.9-4.9,4.9H40.1c-2.7,0-4.9-2.2-4.9-4.9V35.3c0-2.7,2.2-4.9,4.9-4.9h14.1c2.7,0,4.9,2.2,4.9,4.9
			C59.1,35.3,59.1,63.6,59.1,63.6z"/>
	</g>
	<rect x="-0.1" y="-0.1" class="st2" width="74.9" height="74.9"/>
</g>
<g id="marketing-sales-icon">
	<g>
		<g id="Layer_1-2">
			<path class="st3" d="M56,41.5c-0.4-0.1-0.8-0.1-1.2-0.1h-0.3c-0.6,0-1.2,0.1-1.8,0.2c-0.4,0.1-0.8,0.2-1.2,0.4
				c-3,1.2-5,4.1-5,7.4c0,0.4,0,0.7,0.1,1.1c0.1,0.5,0.2,1,0.3,1.4c1.4,4.2,5.8,6.4,10,5.1c4.2-1.4,6.4-5.8,5.1-10
				C61.1,44.1,58.8,42.1,56,41.5L56,41.5z M54.5,56.5c-2.9,0-5.5-1.7-6.6-4.3c-0.2-0.5-0.4-0.9-0.5-1.4c-0.1-0.5-0.2-1-0.1-1.4
				c0-2.8,1.7-5.4,4.2-6.5c0.4-0.2,0.8-0.3,1.2-0.4c0.6-0.2,1.2-0.2,1.8-0.2h0.3c0.4,0,0.8,0.1,1.2,0.1c3.9,0.7,6.5,4.5,5.7,8.4
				C61,54,58,56.5,54.5,56.5L54.5,56.5z"/>
			<path class="st3" d="M56,44c-0.2-0.1-0.4-0.1-0.7-0.1h-0.2v-0.4h-1.1v0.4h-0.3c-1.2,0-2.2,1-2.3,2.3v1.2c0.1,0.8,0.5,1.4,1.2,1.8
				l0,0l0.6,0.2l0,0l0.7,0.3v3.9h-0.3c-0.2,0-0.4-0.1-0.6-0.2c-0.2-0.1-0.4-0.3-0.5-0.5c-0.1-0.2-0.1-0.3-0.1-0.5v-0.4h-1.1v0.5
				c0,1.1,0.7,2,1.8,2.2c0.2,0,0.3,0.1,0.5,0.1H54v0.4h1.1v-0.4h0.2h0.3c0.1,0,0.2,0,0.3-0.1c0.9-0.3,1.4-1.2,1.4-2.1v-1.2
				c-0.1-0.8-0.5-1.5-1.3-1.8l-0.2-0.1l-0.3-0.1l0,0L55,49v-4.1h0.2c0.2,0,0.5,0.1,0.6,0.3c0.3,0.2,0.4,0.5,0.4,0.9v0.4h1.1v-0.4
				C57.4,45.2,56.8,44.4,56,44z M54.1,48.5l-0.8-0.3c-0.2-0.1-0.4-0.3-0.5-0.5c-0.1-0.1-0.1-0.2-0.1-0.3v-1.2c0-0.7,0.6-1.2,1.2-1.2
				h0.3L54.1,48.5z M55.6,50.2l0.3,0.2c0.2,0.2,0.4,0.4,0.4,0.7v1.3c0,0.3-0.2,0.7-0.4,0.9c-0.2,0.2-0.4,0.3-0.6,0.3h-0.2V50
				L55.6,50.2z"/>
			<path class="st3" d="M70.4,38l-0.2-0.3l0,0l-0.6-0.8c-3.3-4.2-8.2-6.7-13.5-7V10.7h-4.4v0.8L24.7,23H5v1.3H1.7v16.6H5v1.3h2.6
				L8.8,46l0.9-0.2L14.2,60h12l-3.5-11.3h2.9l-2-6.4l0.8-0.2h0.4l10.5,4.5c-0.1,0.6-0.1,1.2-0.1,1.8c0,0.2,0,0.3,0,0.5v0.4
				c0,0.3,0,0.5,0,0.8v0.2v0.5V51c0,0.1,0,0.2,0,0.3s0,0.1,0,0.2v0.1c0,0.2,0,0.5,0.1,0.7l0,0c0.3,1.6,0.8,3.2,1.4,4.7l0.1,0.3
				l0.1,0.3c2.9,6.1,8.8,10.2,15.5,10.9h0.1h0.7h0.4h0.9c4.1,0,8.1-1.3,11.4-3.7l0,0c0.2-0.2,0.5-0.4,0.9-0.7c4-3.2,6.6-7.9,7-13V51
				c0-0.3,0-0.5,0-0.8s0-0.7,0-1.1l0,0C73.7,45.2,72.6,41.3,70.4,38z M5,39.7H2.9V25.4H5V39.7z M9.8,42.1h9.8l-9.1,2.2L9.8,42.1z
				 M24.8,58.8h-9.7l-4.2-13.3l8.9-2.2L24.8,58.8z M24.1,47.6h-1.8L20.9,43l1.6-0.4L24.1,47.6z M24.7,41H6.1V24.2h18.4L24.7,41z
				 M52.7,11.8h2.1v18h-0.3c-0.6,0-1.2,0-1.8,0.1V11.8z M52.7,30.9c0.6-0.1,1.2-0.1,1.8-0.1h1H56c5,0.3,9.7,2.7,12.8,6.7l0.4,0.5
				l-4,2.9l-0.1-0.1c-2.3-2.8-5.6-4.6-9.2-5c-0.4,0-0.8,0-1.2-0.1h-0.3c-0.6,0-1.2,0-1.8,0.1c-0.4,0.1-0.8,0.1-1.2,0.2
				c-0.2,0-0.4,0.1-0.6,0.1h-0.1l-1.5-4.6h0.1c0.7-0.2,1.4-0.4,2.2-0.5C51.9,30.9,52.3,30.9,52.7,30.9L52.7,30.9z M67.1,49.3
				c0,4-2,7.8-5.2,10.2c-2.1,1.6-4.7,2.4-7.4,2.4l0,0c-6.9,0-12.5-5.5-12.6-12.4c0-0.1,0-0.2,0-0.3c0-0.3,0-0.6,0-1
				c0.4-5.1,3.8-9.5,8.6-11.1c0.3-0.1,0.6-0.2,0.9-0.3c0.4-0.1,0.8-0.2,1.2-0.2c0.6-0.1,1.2-0.2,1.8-0.2h0.3c0.4,0,0.8,0,1.2,0.1
				c3.5,0.4,6.7,2.3,8.7,5.1C66.3,43.9,67.1,46.6,67.1,49.3L67.1,49.3z M25.9,41.4V23.8l25.6-11V30c-1,0.2-2,0.4-3,0.7h-0.2
				c-0.2,0.1-0.5,0.2-0.7,0.3l-0.2,0.1c-6.3,2.3-10.8,7.8-12,14.4L25.9,41.4z M64.9,64.6c-3,2.1-6.6,3.2-10.3,3.2h-0.6
				c-0.1,0-0.2,0-0.3,0h-0.3h-0.7h-0.1c-6.4-0.7-12-4.6-14.7-10.4c-0.1-0.1-0.1-0.2-0.1-0.3l-0.1-0.3c-0.6-1.4-1.1-2.9-1.3-4.4l0,0
				l-0.1-0.7v-0.2c0,0,0-0.1,0-0.2c0-0.1,0-0.2,0-0.3v-0.2v-0.5v-0.2c0-0.2,0-0.5,0-0.7v-0.4c0-0.1,0-0.3,0-0.4c0-0.5,0-1,0.1-1.4
				s0.1-0.8,0.2-1.2c1.1-6.3,5.5-11.6,11.5-13.8h0.2l0.2-0.1h0.1l1.4,4.7h-0.1c-4.8,1.8-8.2,6.2-8.7,11.4c0,0.4,0,0.8-0.1,1.2v0.1
				c0,7.5,6.1,13.6,13.6,13.6l0,0c2.7,0,5.2-0.8,7.5-2.3l0.1-0.1l2.9,4L64.9,64.6z M73,50.3c0,0.3,0,0.5,0,0.8v0.1
				c-0.4,4.9-2.8,9.3-6.7,12.4l-0.4,0.3l-0.1,0.1l-2.9-4l0.1-0.1c3.1-2.5,4.9-6.1,5.1-10.1v-0.1H73L73,50.3z M72.8,48.8h-4.8v-0.1
				c-0.1-2.5-0.9-4.8-2.2-6.9v-0.1l3.9-2.9l0.1,0.1c2,2.9,3.1,6.3,3.2,9.8v0.1L72.8,48.8z"/>
		</g>
	</g>
	<rect x="-0.1" y="-0.1" class="st4" width="74.9" height="74.9"/>
</g>
<g id="contractor-insurance-icon" class="st0">
	<g class="st1">
		<g id="Layer_1-2_4_">
			<path class="st3" d="M73,32.3c-10.2,0-17.8-7.1-17.9-7.2l-0.4-0.4l-0.4,0.4c-1.1,1-2.2,1.9-3.4,2.6c-2.1-2.3-4.7-4.3-7.5-5.7
				l1.6-6.3l-0.5-0.2c-4-1.5-8.2-2.3-12.4-2.4c-4.2,0.1-8.4,0.9-12.4,2.4l-0.5,0.2l1.6,6.3C12.5,26.1,6.9,34.6,5.2,45.4H1.7v10.5h41
				c5.3,9.4,11.7,13.1,11.8,13.1l0.3,0.1l0.3-0.1c0.2-0.1,16.3-9.5,18.5-36.1v-0.6L73,32.3z M49.9,28.4c-2.8,1.7-5.8,2.9-9,3.5
				l2.2-8.6C45.6,24.5,47.9,26.3,49.9,28.4z M21.1,23.2l3.8,15l1.2-0.3l-5.4-21.5c3.7-1.3,7.5-2,11.4-2.1c3.9,0.1,7.8,0.8,11.5,2.1
				l-3.9,15.7c-1,0.2-2.1,0.2-3.1,0.2h-0.6V33c0.3,4.2,1.1,8.3,2.2,12.4H6.4C8,35.1,13.4,27.1,21.1,23.2z M2.8,54.7v-8.1h35.7
				c0.9,2.8,2,5.5,3.4,8.1H2.8z M54.7,67.8c-4.5-3.1-8.2-7.3-10.8-12c-0.2-0.4-0.5-0.8-0.7-1.2c-1.4-2.6-2.6-5.3-3.5-8.1
				c-0.1-0.4-0.2-0.8-0.4-1.2c-1.2-3.9-1.9-7.9-2.3-12c0.8,0,1.5-0.1,2.2-0.2c0.4,0,0.8-0.1,1.3-0.2c3.6-0.6,7-1.9,10.1-3.8l1-0.6
				c1.1-0.7,2.1-1.5,3.1-2.3c4.9,4.3,11.1,6.8,17.6,7.2C70.2,57.1,56.8,66.6,54.7,67.8L54.7,67.8z"/>
			<polygon class="st3" points="47.9,46.6 46.7,45.4 46.2,44.9 45.8,45.4 45.4,45.7 46.3,46.6 54.9,54.5 59.9,46.6 60.7,45.4 
				64.8,38.9 63.9,38.3 59.4,45.4 58.6,46.6 54.7,52.8 			"/>
		</g>
	</g>
	<rect x="-0.1" y="-0.1" class="st2" width="74.9" height="74.9"/>
</g>
<g id="construction-business-icon" class="st0">
	<rect x="-0.1" y="-0.1" class="st2" width="74.9" height="74.9"/>
	<g class="st1">
		<g id="Layer_1-2_1_">
			<path class="st3" d="M70,16.6c-0.5-0.5-1.1-0.7-1.8-0.7H53.1V14c0-2.4-1.9-4.4-4.3-4.4c-0.1,0-0.1,0-0.2,0H37.4
				c-1.1,0-2.1,0.5-2.9,1.2c-0.8,0.8-1.3,2-1.3,3.1v1.9H18c-1.3,0-2.4,1-2.4,2.3c0,0,0,0.1,0,0.1v2.1H12v0.5c0,0.2-0.2,3.9-3.4,4.3
				v-2.3H3.7v9.8h4.9V30c3.5,0.1,7.1,1.1,7.1,2.8l-0.7,37h7.4l-0.3-15.2h46.1c0.7,0,1.3-0.3,1.8-0.7c0.5-0.5,0.7-1.1,0.7-1.8V18.3
				C70.7,17.6,70.5,17,70,16.6z M7.6,31.7H4.7v-7.9h2.9L7.6,31.7z M34.3,15.5V14c0-0.9,0.4-1.7,1-2.4c0.6-0.6,1.5-1,2.4-1h10.8
				c1.9,0,3.4,1.5,3.4,3.4v1.8h-1.3V14c0-0.5-0.2-1.1-0.6-1.4c-0.4-0.4-0.9-0.6-1.4-0.6H37.7c-0.5,0-1.1,0.2-1.4,0.6
				c-0.4,0.4-0.7,0.9-0.7,1.4v1.8h-1.3L34.3,15.5z M45.3,28.5l-4.2-0.1h-0.3V17h4.8v11.6L45.3,28.5z M45.6,29.7v6.1h-4.8v-6.1H45.6z
				 M37.1,15.8h-0.3V14c0-0.2,0.1-0.5,0.3-0.7c0.2-0.2,0.4-0.3,0.7-0.3h10.8c0.5,0,0.9,0.4,0.9,0.9c0,0,0,0,0,0v1.8H37.1z M8.6,29
				v-2.9c2.4-0.3,4.3-2.3,4.4-4.8h8.2c6.4,0,10,2.8,10.6,8.4c-1.6-2.5-4.2-4.2-7.1-4.7c-1-0.2-1.9,0.1-2.7,0.7
				c-0.8,0.7-1.3,1.8-1.3,2.9v3.6h-4.2C16,29.8,11.6,29.1,8.6,29z M16,68.8l0.7-35.5h4l0.7,35.5H16z M21.7,32.8v-4.1
				c0-0.8,0.3-1.6,1-2.2c0.5-0.4,1.2-0.6,1.8-0.5c3.1,0.5,5.1,2.1,7.4,5.8l0.9,1.5v-1.8c0-9.3-6.4-11.2-11.7-11.2h-4.4v-2
				c0-0.3,0.1-0.7,0.4-0.9c0.2-0.3,0.6-0.5,0.9-0.4h21.6v17.8H21.7L21.7,32.8z M69.5,30.5v21.7c0.1,0.7-0.5,1.3-1.1,1.3
				c-0.1,0-0.1,0-0.2,0H22l-0.3-17.7h11.7h6.2v0.5c0,0.3,0.2,0.5,0.5,0.5c0,0,0,0,0,0h5.9c0.3,0,0.5-0.2,0.5-0.5c0,0,0,0,0,0v-0.5
				h12.6c3,0,6-1.2,8.1-3.4c0.6-0.7,1.2-1.4,1.7-2.1l0.5-0.8V30.5z M69.5,24.5V25c-0.1,2.5-1.2,5-3,6.7c-1.9,2-4.5,3.1-7.2,3.1H46.7
				V17h21.6c0.3,0,0.7,0.1,0.9,0.4c0.2,0.3,0.4,0.6,0.4,0.9L69.5,24.5z"/>
		</g>
	</g>
</g>
</svg>
