<svg xmlns="http://www.w3.org/2000/svg" viewBox="0 0 42.2 38.39"><defs><style>.cls-1{fill:#191919;}</style></defs><title>marketing-icon</title><g id="Layer_2" data-name="Layer 2"><g id="Layer_1-2" data-name="Layer 1"><path class="cls-1" d="M38.78,0V.62l-20.93,9H2.54v1H0V23.52H2.54v1h2l.94,3,.75-.18L9.72,38.39h9.37l-2.75-8.77H18.6l-1.56-5,.6-.14h.25l0,0,20.85,9v.62H42.2V0ZM2.54,22.62H.9V11.5H2.54ZM6.31,24.5h7.61L6.86,26.25Zm11.56,13H10.38L7.13,27.11l6.94-1.72Zm-.49-8.77H16.06l-1.12-3.55,1.23-.3Zm.41-5.12H3.44V10.52H17.79Zm21,8.9-20-8.59V10.22l20-8.6Zm2.56.72H39.68V.9H41.3Z"/></g></g></svg>