<svg xmlns="http://www.w3.org/2000/svg" viewBox="0 0 38.54 38.55"><defs><style>.cls-1{fill:#191919;}</style></defs><title>sales-icon</title><g id="Layer_2" data-name="Layer 2"><g id="Layer_1-2" data-name="Layer 1"><path class="cls-1" d="M19.27,11.39a7.88,7.88,0,1,0,7.88,7.88A7.91,7.91,0,0,0,19.27,11.39Zm0,15a7.15,7.15,0,1,1,7.15-7.15A7.15,7.15,0,0,1,19.27,26.42Z"/><path class="cls-1" d="M20.07,14H19.9v-.36h-1v.36h-.27a2.24,2.24,0,0,0-2.23,2.24v1.16a2.15,2.15,0,0,0,1.21,1.78l.59.23h0l.7.27v3.86h-.27a1.19,1.19,0,0,1-1.19-1.19v-.37h-1v.37a2.23,2.23,0,0,0,2.23,2.24h.27V25h1v-.42h.17A2.23,2.23,0,0,0,22.2,22.3V21.14A2.25,2.25,0,0,0,21,19.33l-.49-.19h0l-.58-.22V15l.19,0a1.18,1.18,0,0,1,1.06,1.18v.37H22.2v-.37A2.23,2.23,0,0,0,20.07,14Zm-1.22,4.56-.79-.31c-.44-.29-.67-.58-.67-.86V16.18A1.19,1.19,0,0,1,18.58,15h.27Zm1.57,1.72c.48.31.73.64.73.91V22.3a1.18,1.18,0,0,1-1.06,1.18l-.19,0V20Z"/><path class="cls-1" d="M35,8.14c-.11-.15-.18-.25-.25-.33l0,0c-.19-.26-.39-.51-.58-.76A18.54,18.54,0,0,0,20.31,0c-.34,0-.69,0-1,0a18.52,18.52,0,0,0-5.95.94L13.16,1l-.7.25-.2.08A18.85,18.85,0,0,0,0,18.49v.83c0,.26,0,.52,0,.78v.21c0,.17,0,.32,0,.48l0,.28,0,.27a1.8,1.8,0,0,0,0,.22l0,.11.09.69v0a19.1,19.1,0,0,0,1.39,4.68l.12.26c0,.1.09.19.14.3a19.29,19.29,0,0,0,15.34,10.8h.12l.69,0,.35,0h.91a19,19,0,0,0,11.28-3.69l0,0,.85-.66a18.6,18.6,0,0,0,7-12.92v-.11c0-.26.05-.52.06-.79s0-.72,0-1.09h0A19,19,0,0,0,35,8.14ZM14.18,1.66A17.54,17.54,0,0,1,19.27.94h0l1,0A17.62,17.62,0,0,1,33.41,7.61l.4.51L29.88,11l-.08-.1A13.45,13.45,0,0,0,19.27,5.8h0a13.1,13.1,0,0,0-3.58.49l-.13,0L14.05,1.7ZM31.8,19.28a12.61,12.61,0,0,1-5.17,10.13A12.29,12.29,0,0,1,19.3,31.8h0a12.53,12.53,0,0,1,0-25.06h0A12.61,12.61,0,0,1,29.4,11.91,12.35,12.35,0,0,1,31.8,19.28ZM29.54,34.45A18.11,18.11,0,0,1,19.31,37.6h-.57a1.53,1.53,0,0,1-.3,0h-.33l-.65-.06h-.11A18.37,18.37,0,0,1,2.74,27.22c-.05-.11-.1-.22-.14-.33l-.09-.19a18.08,18.08,0,0,1-1.32-4.43v-.05q-.06-.33-.09-.66l0-.16a1,1,0,0,0,0-.16c0-.09,0-.18,0-.28l0-.2c0-.16,0-.32,0-.49v-.21c0-.25,0-.49,0-.73V19c0-.15,0-.29,0-.43A18,18,0,0,1,12.6,2.21l.18-.07L13,2.05l.13,0,1.5,4.61-.12,0a13.47,13.47,0,0,0,4.73,26.09h0a13.34,13.34,0,0,0,7.4-2.23l.1-.07,2.85,3.93Zm8-14.15c0,.26,0,.51-.06.76v.1a17.72,17.72,0,0,1-6.61,12.29l-.37.29-.1.08-2.85-3.93.09-.08a13.53,13.53,0,0,0,5.07-9.94v-.12h4.85Zm-.11-1.5H32.73v-.12a13.32,13.32,0,0,0-2.22-6.83l-.07-.11,3.91-2.85.1.11a18.14,18.14,0,0,1,3.14,9.67v.1Z"/></g></g></svg>