<?xml version="1.0" encoding="utf-8"?>
<!-- Generator: Adobe Illustrator 23.0.2, SVG Export Plug-In . SVG Version: 6.00 Build 0)  -->
<svg version="1.1" xmlns="http://www.w3.org/2000/svg" xmlns:xlink="http://www.w3.org/1999/xlink" x="0px" y="0px"
	 viewBox="0 0 75 75" style="enable-background:new 0 0 75 75;" xml:space="preserve">
<style type="text/css">
	.st0{fill:none;}
	.st1{display:none;}
	.st2{display:inline;}
	.st3{fill:#191919;}
	.st4{display:inline;fill:none;}
</style>
<g id="technology-icon">
	<g>
		<path d="M56.2,34.5H38.1c-0.3,0-0.5,0.2-0.5,0.5v28.8c0,0.3,0.2,0.5,0.5,0.5h18.1c0.3,0,0.5-0.2,0.5-0.5V35
			C56.7,34.8,56.5,34.5,56.2,34.5z M55.7,63.4H38.6V35.5h17.2v27.9H55.7z"/>
		<path d="M44,32.8h6.4c0.3,0,0.5-0.2,0.5-0.5s-0.2-0.5-0.5-0.5H44c-0.3,0-0.5,0.2-0.5,0.5S43.7,32.8,44,32.8z"/>
		<path d="M30.2,13.7h8.3c0.3,0,0.5-0.2,0.5-0.5s-0.2-0.5-0.5-0.5h-8.3c-0.3,0-0.5,0.2-0.5,0.5S29.9,13.7,30.2,13.7z"/>
		<path d="M54.2,29.5h-0.3V12.9c0-1.9-1.6-3.5-3.5-3.5H18.3c-1.9,0-3.5,1.6-3.5,3.5v47.2c0,1.9,1.6,3.5,3.5,3.5h16v0.2
			c0.1,3.1,2.7,5.6,5.8,5.6h14.1c3.2,0,5.8-2.6,5.8-5.8V35.3C60,32.1,57.4,29.5,54.2,29.5z M34.3,62.7h-16c-1.4,0-2.6-1.2-2.6-2.6
			V12.9c0-1.4,1.2-2.6,2.6-2.6h32.1c1.4,0,2.6,1.2,2.6,2.6v16.6h-3.7V17c0-0.3-0.2-0.5-0.5-0.5h-29c-0.3,0-0.5,0.2-0.5,0.5v39
			c0,0.3,0.2,0.5,0.5,0.5h14.4v6.2H34.3z M34.3,35.3v20.2h-14v-38h28.1v12h-8.3C36.9,29.5,34.3,32.1,34.3,35.3z M59.1,63.6
			c0,2.7-2.2,4.9-4.9,4.9H40.1c-2.7,0-4.9-2.2-4.9-4.9V35.3c0-2.7,2.2-4.9,4.9-4.9h14.1c2.7,0,4.9,2.2,4.9,4.9
			C59.1,35.3,59.1,63.6,59.1,63.6z"/>
	</g>
	<rect x="-0.1" y="-0.1" class="st0" width="74.9" height="74.9"/>
</g>
<g id="contractor-insurance-icon" class="st1">
	<g class="st2">
		<g id="Layer_1-2_4_">
			<path class="st3" d="M73,32.3c-10.2,0-17.8-7.1-17.9-7.2l-0.4-0.4l-0.4,0.4c-1.1,1-2.2,1.9-3.4,2.6c-2.1-2.3-4.7-4.3-7.5-5.7
				l1.6-6.3l-0.5-0.2c-4-1.5-8.2-2.3-12.4-2.4c-4.2,0.1-8.4,0.9-12.4,2.4l-0.5,0.2l1.6,6.3C12.5,26.1,6.9,34.6,5.2,45.4H1.7v10.5h41
				c5.3,9.4,11.7,13.1,11.8,13.1l0.3,0.1l0.3-0.1c0.2-0.1,16.3-9.5,18.5-36.1v-0.6L73,32.3z M49.9,28.4c-2.8,1.7-5.8,2.9-9,3.5
				l2.2-8.6C45.6,24.5,47.9,26.3,49.9,28.4z M21.1,23.2l3.8,15l1.2-0.3l-5.4-21.5c3.7-1.3,7.5-2,11.4-2.1c3.9,0.1,7.8,0.8,11.5,2.1
				l-3.9,15.7c-1,0.2-2.1,0.2-3.1,0.2h-0.6V33c0.3,4.2,1.1,8.3,2.2,12.4H6.4C8,35.1,13.4,27.1,21.1,23.2z M2.8,54.7v-8.1h35.7
				c0.9,2.8,2,5.5,3.4,8.1H2.8z M54.7,67.8c-4.5-3.1-8.2-7.3-10.8-12c-0.2-0.4-0.5-0.8-0.7-1.2c-1.4-2.6-2.6-5.3-3.5-8.1
				c-0.1-0.4-0.2-0.8-0.4-1.2c-1.2-3.9-1.9-7.9-2.3-12c0.8,0,1.5-0.1,2.2-0.2c0.4,0,0.8-0.1,1.3-0.2c3.6-0.6,7-1.9,10.1-3.8l1-0.6
				c1.1-0.7,2.1-1.5,3.1-2.3c4.9,4.3,11.1,6.8,17.6,7.2C70.2,57.1,56.8,66.6,54.7,67.8L54.7,67.8z"/>
			<polygon class="st3" points="47.9,46.6 46.7,45.4 46.2,44.9 45.8,45.4 45.4,45.7 46.3,46.6 54.9,54.5 59.9,46.6 60.7,45.4 
				64.8,38.9 63.9,38.3 59.4,45.4 58.6,46.6 54.7,52.8 			"/>
		</g>
	</g>
	<rect x="-0.1" y="-0.1" class="st4" width="74.9" height="74.9"/>
</g>
<g id="construction-business-icon" class="st1">
	<rect x="-0.1" y="-0.1" class="st4" width="74.9" height="74.9"/>
	<g class="st2">
		<g id="Layer_1-2_1_">
			<path class="st3" d="M70,16.6c-0.5-0.5-1.1-0.7-1.8-0.7H53.1V14c0-2.4-1.9-4.4-4.3-4.4c-0.1,0-0.1,0-0.2,0H37.4
				c-1.1,0-2.1,0.5-2.9,1.2c-0.8,0.8-1.3,2-1.3,3.1v1.9H18c-1.3,0-2.4,1-2.4,2.3c0,0,0,0.1,0,0.1v2.1H12v0.5c0,0.2-0.2,3.9-3.4,4.3
				v-2.3H3.7v9.8h4.9V30c3.5,0.1,7.1,1.1,7.1,2.8l-0.7,37h7.4l-0.3-15.2h46.1c0.7,0,1.3-0.3,1.8-0.7c0.5-0.5,0.7-1.1,0.7-1.8V18.3
				C70.7,17.6,70.5,17,70,16.6z M7.6,31.7H4.7v-7.9h2.9L7.6,31.7z M34.3,15.5V14c0-0.9,0.4-1.7,1-2.4c0.6-0.6,1.5-1,2.4-1h10.8
				c1.9,0,3.4,1.5,3.4,3.4v1.8h-1.3V14c0-0.5-0.2-1.1-0.6-1.4c-0.4-0.4-0.9-0.6-1.4-0.6H37.7c-0.5,0-1.1,0.2-1.4,0.6
				c-0.4,0.4-0.7,0.9-0.7,1.4v1.8h-1.3L34.3,15.5z M45.3,28.5l-4.2-0.1h-0.3V17h4.8v11.6L45.3,28.5z M45.6,29.7v6.1h-4.8v-6.1H45.6z
				 M37.1,15.8h-0.3V14c0-0.2,0.1-0.5,0.3-0.7c0.2-0.2,0.4-0.3,0.7-0.3h10.8c0.5,0,0.9,0.4,0.9,0.9c0,0,0,0,0,0v1.8H37.1z M8.6,29
				v-2.9c2.4-0.3,4.3-2.3,4.4-4.8h8.2c6.4,0,10,2.8,10.6,8.4c-1.6-2.5-4.2-4.2-7.1-4.7c-1-0.2-1.9,0.1-2.7,0.7
				c-0.8,0.7-1.3,1.8-1.3,2.9v3.6h-4.2C16,29.8,11.6,29.1,8.6,29z M16,68.8l0.7-35.5h4l0.7,35.5H16z M21.7,32.8v-4.1
				c0-0.8,0.3-1.6,1-2.2c0.5-0.4,1.2-0.6,1.8-0.5c3.1,0.5,5.1,2.1,7.4,5.8l0.9,1.5v-1.8c0-9.3-6.4-11.2-11.7-11.2h-4.4v-2
				c0-0.3,0.1-0.7,0.4-0.9c0.2-0.3,0.6-0.5,0.9-0.4h21.6v17.8H21.7L21.7,32.8z M69.5,30.5v21.7c0.1,0.7-0.5,1.3-1.1,1.3
				c-0.1,0-0.1,0-0.2,0H22l-0.3-17.7h11.7h6.2v0.5c0,0.3,0.2,0.5,0.5,0.5c0,0,0,0,0,0h5.9c0.3,0,0.5-0.2,0.5-0.5c0,0,0,0,0,0v-0.5
				h12.6c3,0,6-1.2,8.1-3.4c0.6-0.7,1.2-1.4,1.7-2.1l0.5-0.8V30.5z M69.5,24.5V25c-0.1,2.5-1.2,5-3,6.7c-1.9,2-4.5,3.1-7.2,3.1H46.7
				V17h21.6c0.3,0,0.7,0.1,0.9,0.4c0.2,0.3,0.4,0.6,0.4,0.9L69.5,24.5z"/>
		</g>
	</g>
</g>
</svg>
