<?xml version="1.0" encoding="utf-8"?>
<!-- Generator: Adobe Illustrator 23.0.3, SVG Export Plug-In . SVG Version: 6.00 Build 0)  -->
<svg version="1.1" id="Layer_1" xmlns="http://www.w3.org/2000/svg" xmlns:xlink="http://www.w3.org/1999/xlink" x="0px" y="0px"
	 viewBox="0 0 219.5 17.5" style="enable-background:new 0 0 219.5 17.5;" xml:space="preserve">
<style type="text/css">
	.st0{fill:#FFB934;}
	.st1{fill:#FFFFFF;}
</style>
<g id="Hub" transform="translate(366.582 290.365)">
	<path id="Path_86" class="st0" d="M-183.6-273.3h-3.4v-6.8h-8.3v6.8h-3.4V-290h3.4v7.2h8.3v-7.2h3.4V-273.3z"/>
	<path id="Path_87" class="st0" d="M-179.9-280.4v-9.6h3.4v9.6c-0.2,2.2,1.4,4.1,3.6,4.3c0.2,0,0.4,0,0.5,0c2.8,0,4.1-1.9,4.1-4.3
		v-9.6h3.4v9.6c0,4.3-2.8,7.5-7.5,7.5c-3.9,0.2-7.3-2.8-7.5-6.7C-179.9-279.9-179.9-280.1-179.9-280.4z"/>
	<path id="Path_88" class="st0" d="M-153.4-273.3h-8.3V-290h8c4,0,6.1,1.7,6.1,4.5c0.1,1.4-0.8,2.8-2.1,3.3v0.4
		c1.6,0.5,2.7,1.9,2.6,3.6C-147.1-275-149.5-273.3-153.4-273.3z M-153.7-287h-4.6v4.1h4.6c1.7,0,2.6-0.9,2.6-2
		C-151.1-286.3-152-287-153.7-287L-153.7-287z M-158.3-280.5v4.3h5c1.6,0,2.7-0.9,2.7-2.1s-1.1-2.1-2.7-2.1L-158.3-280.5z"/>
</g>
<g id="Contractor" transform="translate(198.66 290.002)">
	<path id="Path_76" class="st1" d="M-184.3-274.7c-1.5,1.5-3.6,2.3-5.7,2.2c-4.8,0-8.8-3.9-8.8-8.8s3.9-8.8,8.8-8.8
		c2.1-0.1,4.2,0.7,5.7,2.2l-0.7,0.9c-1.3-1.3-3.2-2-5-2c-4.2,0.1-7.5,3.6-7.4,7.8c0.1,4,3.4,7.3,7.4,7.4c1.9,0,3.7-0.7,5-2
		L-184.3-274.7z"/>
	<path id="Path_77" class="st1" d="M-182-281.2c0-5,3.3-8.8,8.5-8.8s8.6,3.8,8.6,8.8c0,4.9-3.4,8.7-8.6,8.7S-182-276.3-182-281.2z
		 M-166.2-281.2c0-4.1-2.7-7.6-7.3-7.6s-7.3,3.5-7.3,7.6c0,4,2.7,7.5,7.3,7.5S-166.2-277.2-166.2-281.2z"/>
	<path id="Path_78" class="st1" d="M-148.3-272.9h-0.4l-12.6-14.1v14.1h-1.2v-16.8h0.4l12.6,14v-14h1.2V-272.9z"/>
	<path id="Path_79" class="st1" d="M-145.3-289.6h13.4v1.1h-6.1v15.6h-1.2v-15.6h-6.1L-145.3-289.6z"/>
	<path id="Path_80" class="st1" d="M-129.7-289.6h6.5c4.2,0,6.6,1.9,6.6,5.5c0.1,2.6-1.7,4.9-4.3,5.2v0.1l4.7,5.6v0.3h-1.3l-4.9-5.8
		h-6v5.8h-1.2L-129.7-289.6z M-123.3-288.5h-5.2v8.6h5.6c2.8,0,5-1.3,5-4.2C-117.9-287.2-120-288.5-123.3-288.5z"/>
	<path id="Path_81" class="st1" d="M-106.8-289.6h0.3l8.1,16.7h-1.4l-1.7-3.5h-10.3l-1.7,3.5h-1.4L-106.8-289.6z M-106.5-287.1h-0.2
		l-4.3,9.2l-0.2,0.4h9.1l-0.2-0.4L-106.5-287.1z"/>
	<path id="Path_82" class="st1" d="M-83.1-274.7c-1.5,1.5-3.6,2.3-5.7,2.2c-4.8,0-8.8-3.9-8.8-8.8s3.9-8.8,8.8-8.8
		c2.1-0.1,4.2,0.7,5.7,2.2l-0.7,0.9c-1.3-1.3-3.2-2-5-2c-4.2,0.1-7.5,3.6-7.4,7.8c0.1,4,3.4,7.3,7.4,7.4c1.9,0,3.7-0.7,5-2
		L-83.1-274.7z"/>
	<path id="Path_83" class="st1" d="M-81.8-289.6h13.4v1.1h-6.1v15.6h-1.2v-15.6h-6.1C-81.8-288.5-81.8-289.6-81.8-289.6z"/>
	<path id="Path_84" class="st1" d="M-67.7-281.2c0-5,3.3-8.8,8.5-8.8s8.6,3.8,8.6,8.8c0,4.9-3.4,8.7-8.6,8.7S-67.7-276.3-67.7-281.2
		z M-51.8-281.2c0-4.1-2.7-7.6-7.3-7.6s-7.3,3.5-7.3,7.6c0,4,2.7,7.5,7.3,7.5S-51.8-277.2-51.8-281.2z"/>
	<path id="Path_85" class="st1" d="M-46.6-289.6h6.5c4.2,0,6.6,1.9,6.6,5.5c0.1,2.6-1.7,4.9-4.3,5.2v0.1l4.7,5.6v0.3h-1.3l-4.9-5.8
		h-6v5.8h-1.2L-46.6-289.6L-46.6-289.6z M-40.1-288.5h-5.2v8.6h5.6c2.8,0,5-1.3,5-4.2C-34.8-287.2-36.9-288.5-40.1-288.5
		L-40.1-288.5z"/>
</g>
</svg>
