<svg xmlns="http://www.w3.org/2000/svg" width="915" height="407.375" viewBox="0 0 915 407.375">
  <g id="contractorhub-home-marquee" transform="translate(451.131 -757.508)">
    <rect id="Rectangle_61" data-name="Rectangle 61" width="76.048" height="3.009" transform="translate(-230.3 1080.302)" fill="#191919"/>
    <path id="Path_105" data-name="Path 105" d="M-244.26,1074.47c-5.843,1.9-11.376,3.693-16.056,6.492-3.931-1.894-13.961-16.642-17.811-29.44-.332-1.1-.806-2.444-1.406-4.142-3.155-8.931-9.679-27.394-10.756-57.345l28.962-9.835c1.767,4.646,4.071,9.326,6.5,14.254,5.641,11.46,11.475,23.31,11.8,37.007l3.007-.073c-.345-14.358-6.6-27.058-12.113-38.263-2.375-4.826-4.626-9.409-6.341-13.9l5.521-1.875-11.364-25-4.305,1.406-2.555-11.678c.227-2.276,1.733-18.453-.543-24.431-1.243-3.264-9.5-11.051-11.783-13.162-.3-.835-1.249-3.481-4.113-11.372l-.48-1.322-1.352.391c-.166.048-4.1,1.239-5.983,6.552a15.05,15.05,0,0,0,2.336,15.14c-3.58-2.826-9.156-6.375-14.021-5.783-.185.022-.385.041-.6.06-2.537.233-7.815.716-7.336,9.8-.04.191-.635.7-.992,1-1.851,1.579-4.945,4.216-1.976,11.338a9.13,9.13,0,0,1-.767,1.812c-1.355,2.737-3.624,7.318.713,12.318.756.872.663,1.936.45,3.6-.275,2.148-.69,5.394,3.543,6.88,2.763.97,9.7,1.709,14.8,2.145l2,6.073-3.3,1.079.934,2.859,33.7-11.012,8.876,19.526-39,13.241-3.3-17.467-2.956.56,3.947,20.869,5.114-1.737c1.192,29.876,7.716,48.358,10.889,57.34.587,1.662,1.051,2.974,1.361,4.008,3.679,12.227,14.731,30.476,20.572,31.695l.593.123.513-.322c4.491-2.817,10.08-4.631,16-6.553,10-3.246,20.339-6.6,27.381-15.286l-2.336-1.895C-224.767,1068.141-234.677,1071.359-244.26,1074.47Zm-51.766-117.162c1.509.111,2.526.175,2.685.184l.184-3c-4.385-.268-16.513-1.227-19.921-2.424-1.855-.651-1.852-1.347-1.556-3.66.229-1.791.515-4.02-1.162-5.954-3.025-3.488-1.571-6.423-.29-9.013.772-1.558,1.438-2.9.879-4.231-2.174-5.156-.5-6.584,1.121-7.966.949-.809,2.13-1.816,2.043-3.456-.327-6.187,2.18-6.417,4.606-6.639.243-.022.473-.044.686-.07,5.175-.631,12.6,5.547,15.136,8.086a6.535,6.535,0,0,1,1.34,2.985c-.283.357-2.075.848-7.369-.791a68.571,68.571,0,0,1-7.327-2.805l-1.26,2.732a70.641,70.641,0,0,0,7.672,2.939c6.065,1.881,9.522,1.707,10.881-.55a3.073,3.073,0,0,0,.4-1.767c.888,1.4,1.679,2.684,2.161,3.482l2.575-1.555c-.528-.875-5.218-8.612-7.266-10.753a12.157,12.157,0,0,1-2.787-13.338,8.3,8.3,0,0,1,2.744-3.97c3.2,8.809,3.62,10.016,3.638,10.067l.124.355.277.255c3.932,3.614,10.47,10.143,11.281,12.272,1.78,4.675.848,18.4.338,23.291l-.026.241,2.722,12.446-22.922,7.489Z" transform="translate(-42.005 -42.947)" fill="#191919"/>
    <path id="Path_106" data-name="Path 106" d="M-252.607,1113.663l-2.93.683c5.356,22.977,6.548,24.326,15.771,29.594.543.31,1.118.638,1.724.99l1.51-2.6c-.613-.355-1.193-.686-1.742-1C-246.334,1136.724-247.37,1136.131-252.607,1113.663Z" transform="translate(-62.94 -114.206)" fill="#191919"/>
    <path id="Path_107" data-name="Path 107" d="M-85.215,864.235v-2.447a12.279,12.279,0,0,1,4.086.872l1.173-2.771a18.429,18.429,0,0,0-13.736.414l1.214,2.753a15.491,15.491,0,0,1,4.142-1.133v2.311Z" transform="translate(-114.643 -32.58)" fill="#191919"/>
    <path id="Path_108" data-name="Path 108" d="M-42.061,864.367v-2.5a15.537,15.537,0,0,1,4.228,1.046l1.15-2.779a18.428,18.428,0,0,0-13.741-.1l1.236,2.743A12.376,12.376,0,0,1-45,861.807v2.56Z" transform="translate(-128.521 -32.58)" fill="#191919"/>
    <rect id="Rectangle_62" data-name="Rectangle 62" width="2.942" height="3.009" transform="translate(-188.851 868.007)" fill="#191919"/>
    <path id="Path_109" data-name="Path 109" d="M-75.752,896.919l-1.759,2.441a22.794,22.794,0,0,0,6,3.019,22.766,22.766,0,0,0,6.608,1.266l.092-3.007a19.758,19.758,0,0,1-5.73-1.107A19.8,19.8,0,0,1-75.752,896.919Z" transform="translate(-119.834 -44.714)" fill="#191919"/>
    <path id="Path_110" data-name="Path 110" d="M-66.069,874.112v3.009c1.38,0,2.946.013,4.471.027,1.456.013,2.875.026,4.062.026h1.6l-.1-1.6c-.025-.411-.109-1.6-.222-3.227-.285-4.057-.758-10.794-.994-15a7.573,7.573,0,0,1,3.672-4.5,12.3,12.3,0,0,1,9.172-.945l.866-2.881a15.236,15.236,0,0,0-11.52,1.208,10.43,10.43,0,0,0-5.163,6.585l-.057.223.013.23c.231,4.206.718,11.14,1.009,15.283.042.6.08,1.137.113,1.6-.772,0-1.592-.012-2.425-.02C-63.105,874.127-64.681,874.112-66.069,874.112Z" transform="translate(-123.499 -29.153)" fill="#191919"/>
    <path id="Path_111" data-name="Path 111" d="M-96.957,849.43l1.044,2.821c5.34-1.976,11.821-1.508,15.41,1.114l1.774-2.429C-83.143,847.711-90.639,847.092-96.957,849.43Z" transform="translate(-113.594 -29.126)" fill="#191919"/>
    <rect id="Rectangle_63" data-name="Rectangle 63" width="37.669" height="3.008" transform="translate(-131.157 1021.355) rotate(-84.655)" fill="#191919"/>
    <path id="Path_112" data-name="Path 112" d="M-71.7,1286.8H-74.7v20.654l4.388,7.365-.778,15.007,3,.156.825-15.919-4.431-7.438Z" transform="translate(-120.736 -169.697)" fill="#191919"/>
    <path id="Path_113" data-name="Path 113" d="M-201.294,942.631c2.275-8.148,6.071-21.748,10.267-24.834l13.968-7.068v74a20.138,20.138,0,0,1-.918,4.6l-2.366.2,5.5,65.257,3-.254-5.084-60.371a21.268,21.268,0,0,0,2.881-9.312l0-75.644,20.471-10.359,3.843,79.034h82.066l6.025-79.517,20.091,10.008-1.105,60.834c-.135,1.148-1.288,12,2.362,17.886l-4.591,38.763-.009.072-.97,42.115-3.879,9.162,2.768,1.184,18.641-44.026-2.768-1.184-11.58,27.348.792-34.385,5.437-45.912-2.987-.357-.053.444a44.013,44.013,0,0,1-.169-10.819l.009-.08,1.083-59.56,10.728,5.343a33.538,33.538,0,0,1,9.3,7.322c1.274,1.708,9.644,23.405,18.156,48.734,9.837,29.27,15.185,49.575,14.3,54.331-3.912,22.224-17.036,50.989-35.107,76.945l2.465,1.734c18.31-26.3,31.619-55.514,35.6-78.138,1.279-6.91-7.155-34.245-14.455-55.96-7.787-23.16-16.821-47.217-18.59-49.5-2.275-2.937-7.021-6.452-10.317-8.164L-86.6,882.56l-.7-8.977-3,.238.838,10.687,12.1,6.024-19.044,32.18L-106.3,904.38l.013-.014c3.249-3.679,12.861-13.533,18.238-14.924l-.75-2.928c-6.168,1.6-15.509,11.248-18.667,14.666-3.406-3.35-13.752-13.216-21.878-17.712l.256-12.462a26.77,26.77,0,0,0,20.2,9.668v0h.126v0c14.664-.164,26.114-11.946,29.9-30.786.175-.872.331-1.729.477-2.578,1.912-.225,6.883-1.631,8.164-10.109a8.674,8.674,0,0,0-1.6-6.585,4.86,4.86,0,0,0-3.685-1.825l-.083,3.022a1.893,1.893,0,0,1,1.462.742,5.7,5.7,0,0,1,.935,4.192c-.818,5.418-3.27,6.97-4.7,7.412A133.779,133.779,0,0,0-76.759,829.3c.912-6.014-1.538-11.684-3.329-15.829-.321-.742-.619-1.435-.869-2.061h9.909a50.775,50.775,0,0,1-3.459,15.45l2.758,1.206a52.71,52.71,0,0,0,3.713-16.656h.454A5.6,5.6,0,0,0-62,805.8v-.175a5.6,5.6,0,0,0-5.527-5.607c-2.636-17.918-13.606-30.873-22.221-36.53-10.12-6.646-26.346-9.217-39.782.018-9.058,6.225-19.629,19.08-22.194,36.509h-.75a5.6,5.6,0,0,0-5.58,5.61v.175a5.6,5.6,0,0,0,5.58,5.608h3.141a147.533,147.533,0,0,0,1.92,18.326l2.96-.539a144.545,144.545,0,0,1-1.87-17.787h14.364c-2.647,6.061-7.638,9.537-11.043,11.9-.366.254-.713.494-1.035.723l1.736,2.47c.313-.222.651-.457,1.008-.7,3.677-2.551,9.739-6.773,12.576-14.388h44.556c.328.97.792,2.056,1.314,3.265,1.653,3.828,3.919,9.069,3.1,14.25l-.018.192a116.415,116.415,0,0,1-2.048,20.169c-2.736,13.619-11.268,28.206-27.013,28.362-8.981-.089-15.612-4.875-20.162-11.5l.009-.431-.3-.006a46.612,46.612,0,0,1-6.555-16.428c-1.467-7.3-1.872-16.218-2.048-22.289l-3.007.089c.016.565.036,1.162.057,1.773a7.245,7.245,0,0,0-6.107,7.468c.021,9.6,6.328,10.845,7.695,11,.142.867.294,1.723.462,2.557a48.87,48.87,0,0,0,6.77,17.243l-.326,15.844L-146,888.512l27.7,40.131,9.387-17.241v63.455h-37.959l-3.768-77.5,3.013-1.524-1.353-2.7-43.5,22.013-.185.111c-4.72,3.314-8.143,14.452-11.521,26.555-.758,2.716-1.413,5.062-1.895,6.382l2.824,1.042C-202.739,947.807-202.1,945.523-201.294,942.631Zm73.462-176.624c12.291-8.447,27.158-6.078,36.438.018,8.02,5.266,18.216,17.3,20.82,34h-78.1C-146.143,783.78-136.288,771.819-127.833,766.006Zm-27.215,39.8v-.175a2.581,2.581,0,0,1,2.572-2.585h84.894a2.581,2.581,0,0,1,2.572,2.585v.175a2.581,2.581,0,0,1-2.572,2.585h-84.894A2.582,2.582,0,0,1-155.047,805.8Zm11.113,30.518a4.265,4.265,0,0,1,3.221-4.414c.177,3.8.473,8.106,1.008,12.282C-141.15,843.789-143.921,842.246-143.934,836.323ZM-118.6,922.9l-22.78-33,10.052-4.073c9.056,4.773,22.021,17.76,22.811,18.556Zm12.7-11.445,9.364,17.376,21.87-36.953,10.117,5.039-5.906,77.941H-105.9Z" transform="translate(-78.517)" fill="#191919"/>
    <rect id="Rectangle_64" data-name="Rectangle 64" width="41.405" height="3.008" transform="translate(-273.459 906.768) rotate(-25.5)" fill="#191919"/>
    <path id="Path_114" data-name="Path 114" d="M-164.3,1226.068c-.014,6.26-.028,12.733-.2,18.877l3.007.081c.168-6.18.182-12.673.2-18.952.014-6.3.028-12.8.2-18.98l-3.007-.083C-164.276,1213.226-164.29,1219.755-164.3,1226.068Z" transform="translate(-91.936 -144.131)" fill="#191919"/>
    <path id="Path_115" data-name="Path 115" d="M52.9,1142.6l-10.363-21.737-2.716,1.3,11.23,23.554,15.958-.862-.162-3Z" transform="translate(-157.458 -116.523)" fill="#191919"/>
    <path id="Path_116" data-name="Path 116" d="M-5.146,1247.708l1.35,1.227a6.132,6.132,0,0,1-3.413,1.864l-1.412.086v2.306c0,16.571,12.733,30.119,28.619,30.762,1.036,16.071,1.457,26.481,1.462,26.589l3.006-.12c0-.113-.463-11.444-1.6-28.724a25.165,25.165,0,0,0,2.67-8.75l.869,1.351,20.776-13.362-36.61-34.49ZM20.04,1280.6l-.2.345c-14.041-.722-25.273-12.706-25.448-27.4a10.461,10.461,0,0,0,4.05-2.574l24.083,21.88A22.258,22.258,0,0,1,20.04,1280.6Zm22.278-20.106L25.383,1271.38l-26.494-24.069,12.086-16.35Z" transform="translate(-141.906 -150.277)" fill="#191919"/>
    <path id="Path_117" data-name="Path 117" d="M-162.837,1292.446a197.991,197.991,0,0,1,.9-21.309l-2.988-.349c-2.046,17.5-.092,51.153-.008,52.577l3-.178c-.012-.214-.785-13.517-.893-27.709,14.307-1.551,25.5-14.086,25.5-29.273h-3.009C-140.338,1279.73-150.188,1290.909-162.837,1292.446Z" transform="translate(-91.492 -163.071)" fill="#191919"/>
    <path id="Path_118" data-name="Path 118" d="M-125.3,948.078l-1.681-2.495c-.6.4-1.255.791-1.949,1.2-.424.251-.849.5-1.266.76l1.583,2.558c.4-.248.808-.489,1.215-.73C-126.694,948.96-125.969,948.531-125.3,948.078Z" transform="translate(-102.94 -60.323)" fill="#191919"/>
    <path id="Path_119" data-name="Path 119" d="M-290.551,952.713c-6.621-.028-9.859-.125-12.375-.374l-.3,2.994c2.62.258,5.932.36,12.658.388Z" transform="translate(-47.596 -62.491)" fill="#191919"/>
    <path id="Path_120" data-name="Path 120" d="M-285.321,945.937l-6.666-4.27-1.623,2.533,5.359,3.433c.1,3.236-.235,6.495-.766,7.138-2.972,1.932-12.355,2.305-15.735,2.3l-.013,3.008h.181c1.993,0,13.211-.123,17.277-2.837,2.182-1.456,2.206-7.229,2.027-10.541Z" transform="translate(-47.099 -59.06)" fill="#191919"/>
    <path id="Path_121" data-name="Path 121" d="M-43.958,1098.464v-3.009h-79.15v14.194H-54.7v-3.009h-65.4v-8.177Z" transform="translate(-105.182 -108.384)" fill="#191919"/>
    <path id="Path_122" data-name="Path 122" d="M-71.751,766.826c-.414-.071-10.224-1.684-18.112,2.832-8.765,5.018-11.546,8.483-15.084,13.594l2.473,1.712c3.285-4.745,5.725-7.9,14.106-12.695,6.935-3.97,16.02-2.492,16.11-2.477Z" transform="translate(-111.025 -2.89)" fill="#191919"/>
    <rect id="Rectangle_65" data-name="Rectangle 65" width="2.395" height="3.008" transform="matrix(0.561, -0.828, 0.828, 0.561, -218.321, 783.701)" fill="#191919"/>
    <rect id="Rectangle_66" data-name="Rectangle 66" width="3.438" height="3.008" transform="translate(-156.682 795.048)" fill="#191919"/>
    <rect id="Rectangle_67" data-name="Rectangle 67" width="3.438" height="3.008" transform="translate(-177.339 795.048)" fill="#191919"/>
    <rect id="Rectangle_68" data-name="Rectangle 68" width="3.438" height="3.008" transform="translate(-170.453 795.048)" fill="#191919"/>
    <rect id="Rectangle_69" data-name="Rectangle 69" width="3.438" height="3.008" transform="translate(-163.567 795.048)" fill="#191919"/>
    <rect id="Rectangle_70" data-name="Rectangle 70" width="2.785" height="3.008" transform="translate(-190.456 795.048)" fill="#191919"/>
    <rect id="Rectangle_71" data-name="Rectangle 71" width="3.438" height="3.008" transform="translate(-184.224 795.048)" fill="#191919"/>
    <rect id="Rectangle_72" data-name="Rectangle 72" width="2.363" height="5.701" transform="translate(149.965 884.158)" fill="#191919"/>
    <rect id="Rectangle_73" data-name="Rectangle 73" width="5.364" height="2.363" transform="translate(154.263 891.429)" fill="#191919"/>
    <rect id="Rectangle_74" data-name="Rectangle 74" width="2.363" height="5.391" transform="translate(149.965 896.109)" fill="#191919"/>
    <rect id="Rectangle_75" data-name="Rectangle 75" width="5.669" height="2.363" transform="translate(142.522 891.43)" fill="#191919"/>
    <rect id="Rectangle_76" data-name="Rectangle 76" width="2.363" height="5.701" transform="translate(-443.697 1120.159)" fill="#191919"/>
    <rect id="Rectangle_77" data-name="Rectangle 77" width="5.363" height="2.363" transform="translate(-439.408 1127.42)" fill="#191919"/>
    <rect id="Rectangle_78" data-name="Rectangle 78" width="2.363" height="5.392" transform="translate(-443.697 1132.091)" fill="#191919"/>
    <rect id="Rectangle_79" data-name="Rectangle 79" width="5.669" height="2.363" transform="translate(-451.131 1127.421)" fill="#191919"/>
    <rect id="Rectangle_80" data-name="Rectangle 80" width="2.363" height="5.701" transform="translate(396.58 787.89)" fill="#191919"/>
    <rect id="Rectangle_81" data-name="Rectangle 81" width="5.363" height="2.363" transform="translate(400.869 795.151)" fill="#191919"/>
    <rect id="Rectangle_82" data-name="Rectangle 82" width="2.363" height="5.391" transform="translate(396.58 799.822)" fill="#191919"/>
    <rect id="Rectangle_83" data-name="Rectangle 83" width="5.669" height="2.363" transform="translate(389.146 795.152)" fill="#191919"/>
    <rect id="Rectangle_84" data-name="Rectangle 84" width="2.363" height="5.701" transform="translate(276.419 1031.092)" fill="#191919"/>
    <rect id="Rectangle_85" data-name="Rectangle 85" width="5.363" height="2.363" transform="translate(280.718 1038.361)" fill="#191919"/>
    <rect id="Rectangle_86" data-name="Rectangle 86" width="2.363" height="5.391" transform="translate(276.419 1043.043)" fill="#191919"/>
    <rect id="Rectangle_87" data-name="Rectangle 87" width="5.669" height="2.363" transform="translate(268.978 1038.362)" fill="#191919"/>
    <path id="Path_123" data-name="Path 123" d="M807.833,1289.788h-121.6a14.636,14.636,0,0,0-14.62,14.62v.576a14.636,14.636,0,0,0,14.62,14.62h121.6a14.636,14.636,0,0,0,14.62-14.62v-.576A14.636,14.636,0,0,0,807.833,1289.788Zm12.257,15.2a12.27,12.27,0,0,1-12.257,12.256h-121.6a12.27,12.27,0,0,1-12.257-12.256v-.576a12.271,12.271,0,0,1,12.257-12.257h121.6a12.271,12.271,0,0,1,12.257,12.257Z" transform="translate(-359.889 -170.659)" fill="#191919"/>
    <rect id="Rectangle_88" data-name="Rectangle 88" width="129.729" height="2.363" transform="translate(324.282 1107.155)" fill="#191919"/>
    <path id="Path_124" data-name="Path 124" d="M688.122,1245.945l22.3-6.6-.671-2.266-23.988,7.1v14.674h2.363Z" transform="translate(-364.441 -153.699)" fill="#191919"/>
    <path id="Path_125" data-name="Path 125" d="M766.766,1172.232a9.535,9.535,0,0,0-9.524,9.525v50.954h83.277v-32.823h-7.275v-27.657Zm64.115,58.116H759.6v-48.592a7.17,7.17,0,0,1,7.161-7.162h64.115Zm7.276-28.1v28.1h-4.912v-28.1Z" transform="translate(-387.443 -132.948)" fill="#191919"/>
    <path id="Path_126" data-name="Path 126" d="M778.846,1205.4v2.363h44.8V1205.4H803.376v-16.925h-2.363V1205.4Z" transform="translate(-394.395 -138.21)" fill="#191919"/>
    <path id="Path_127" data-name="Path 127" d="M752.692,1074.508h2.363V993.846h10.491v-2.363H752.692Z" transform="translate(-385.979 -74.985)" fill="#191919"/>
    <path id="Path_128" data-name="Path 128" d="M626.016,991.661h2.363V892.152h24.9l38.863-51.131h29.05l.078,87.512,2.363,0-.081-89.872H690.967L652.1,889.788H626.016Z" transform="translate(-345.216 -26.113)" fill="#191919"/>
    <rect id="Rectangle_89" data-name="Rectangle 89" width="2.363" height="96.116" transform="translate(307.414 876.007)" fill="#191919"/>
    <rect id="Rectangle_90" data-name="Rectangle 90" width="2.363" height="29.124" transform="translate(-48.122 973.157)" fill="#191919"/>
    <path id="Path_129" data-name="Path 129" d="M-295.343,1200.866V1260.3h2.363v-57.921l51.693-23.823v66.66h2.363v-67.325H-226.8v2.256h2.363v-2.256h11.167v37.14h2.363v-39.5h-29.456Z" transform="translate(-50.131 -133.892)" fill="#191919"/>
    <path id="Path_130" data-name="Path 130" d="M448.824,929.446V965.7H439.03v13.894H417.552v22.167h-24.28v22.545h2.363v-20.181h24.28V981.957h21.478V968.063h9.794V931.809H464.1v35.684l8.553.037v36.595H486.9v-2.363H475.012V965.177l-8.553-.036V929.446Z" transform="translate(-270.743 -55.095)" fill="#191919"/>
    <path id="Path_131" data-name="Path 131" d="M541.206,1028.675v2.363h21.069v24.271h21.04v-39.862h8.157v-2.363h-10.52v39.862H564.639v-24.271Z" transform="translate(-318.234 -81.946)" fill="#191919"/>
    <path id="Path_132" data-name="Path 132" d="M429.979,1060.519H414.79v14.875h15.189Zm-2.364,12.512H417.154v-10.149h10.461Z" transform="translate(-277.73 -97.179)" fill="#191919"/>
    <path id="Path_133" data-name="Path 133" d="M414.79,1115.843h15.189v-14.875H414.79Zm2.364-12.512h10.461v10.149H417.154Z" transform="translate(-277.73 -110.152)" fill="#191919"/>
    <rect id="Rectangle_91" data-name="Rectangle 91" width="2.363" height="56.121" transform="translate(345.155 892.864)" fill="#191919"/>
    <path id="Path_134" data-name="Path 134" d="M717.585,911.128H703.241v116.5h14.344v-25.386h-2.363v23.023H705.6V913.492h9.617v15.445h2.363Z" transform="translate(-370.066 -49.21)" fill="#191919"/>
    <rect id="Rectangle_92" data-name="Rectangle 92" width="3.438" height="2.363" transform="translate(377.5 1132.854)" fill="#191919"/>
    <rect id="Rectangle_93" data-name="Rectangle 93" width="3.438" height="2.363" transform="translate(343.125 1132.854)" fill="#191919"/>
    <rect id="Rectangle_94" data-name="Rectangle 94" width="3.438" height="2.363" transform="translate(336.25 1132.854)" fill="#191919"/>
    <rect id="Rectangle_95" data-name="Rectangle 95" width="3.438" height="2.363" transform="translate(322.5 1132.854)" fill="#191919"/>
    <rect id="Rectangle_96" data-name="Rectangle 96" width="3.438" height="2.363" transform="translate(329.375 1132.854)" fill="#191919"/>
    <rect id="Rectangle_97" data-name="Rectangle 97" width="3.438" height="2.363" transform="translate(370.625 1132.854)" fill="#191919"/>
    <rect id="Rectangle_98" data-name="Rectangle 98" width="3.438" height="2.363" transform="translate(350 1132.854)" fill="#191919"/>
    <rect id="Rectangle_99" data-name="Rectangle 99" width="3.438" height="2.363" transform="translate(363.75 1132.854)" fill="#191919"/>
    <rect id="Rectangle_100" data-name="Rectangle 100" width="3.438" height="2.363" transform="translate(356.875 1132.854)" fill="#191919"/>
    <rect id="Rectangle_101" data-name="Rectangle 101" width="3.438" height="2.363" transform="translate(391.25 1132.854)" fill="#191919"/>
    <rect id="Rectangle_102" data-name="Rectangle 102" width="3.438" height="2.363" transform="translate(418.751 1132.854)" fill="#191919"/>
    <rect id="Rectangle_103" data-name="Rectangle 103" width="3.438" height="2.363" transform="translate(398.125 1132.854)" fill="#191919"/>
    <rect id="Rectangle_104" data-name="Rectangle 104" width="3.438" height="2.363" transform="translate(405 1132.854)" fill="#191919"/>
    <rect id="Rectangle_105" data-name="Rectangle 105" width="3.438" height="2.363" transform="translate(411.876 1132.854)" fill="#191919"/>
    <rect id="Rectangle_106" data-name="Rectangle 106" width="3.438" height="2.363" transform="translate(384.375 1132.854)" fill="#191919"/>
    <rect id="Rectangle_107" data-name="Rectangle 107" width="3.438" height="2.363" transform="translate(432.501 1132.854)" fill="#191919"/>
    <rect id="Rectangle_108" data-name="Rectangle 108" width="2.514" height="2.363" transform="translate(446.251 1132.854)" fill="#191919"/>
    <rect id="Rectangle_109" data-name="Rectangle 109" width="3.438" height="2.363" transform="translate(425.626 1132.854)" fill="#191919"/>
    <rect id="Rectangle_110" data-name="Rectangle 110" width="3.438" height="2.363" transform="translate(439.376 1132.854)" fill="#191919"/>
    <path id="Path_135" data-name="Path 135" d="M558.031,1108.349l-3.7,69.224,5.243,9.441,2.066-1.148-4.914-8.847,3.6-67.366,14.466-9.719,66.731,8.74a11.18,11.18,0,0,0-1.889,17.854l-65.295-11.084-10.681,54.918v11.675h2.364V1170.59l10.2-52.43,62.444,10.6-1.162.4,22.329,64.639,2.234-.772-22.127-64.052,4.056.688.091-.534a11.759,11.759,0,0,0,13.215-4.5l24.42,72.781,2.241-.752L658.877,1121.9l-.241.081a11.073,11.073,0,0,0,.631-3.666,11.385,11.385,0,0,0-7.388-10.574l.012-.094-.431-.056a11.765,11.765,0,0,0-3.814-.642c-.266,0-.526.022-.788.039l-72.644-9.514Zm98.874,9.968a9.261,9.261,0,1,1-10.158-8.958l4.17.547A9.023,9.023,0,0,1,656.9,1118.317Z" transform="translate(-322.149 -108.93)" fill="#191919"/>
    <path id="Path_136" data-name="Path 136" d="M569.863,1246.094a10.287,10.287,0,0,0,10.04,7.682h8.728a10.387,10.387,0,0,0,9.41-5.916l8.075-17.3H565.923Zm26.036.766a8.013,8.013,0,0,1-7.268,4.552H579.9a7.925,7.925,0,0,1-7.749-5.9l-3.194-12.586h33.444Z" transform="translate(-326.173 -151.703)" fill="#191919"/>
    <path id="Path_137" data-name="Path 137" d="M615.91,1219.582l6.164-13.284-16.025,9.576H579.4v2.363H606.7l10-5.976-2.935,6.327Z" transform="translate(-330.49 -143.934)" fill="#191919"/>
    <path id="Path_138" data-name="Path 138" d="M769.636,1224.716H772v-30.829a8.166,8.166,0,0,1,8.269-8.04h14.812v-2.364H780.269a10.532,10.532,0,0,0-10.633,10.4Z" transform="translate(-391.432 -136.582)" fill="#191919"/>
    <path id="Path_139" data-name="Path 139" d="M476.75,1193.526l25.44,16.955,1.311-1.966-25.441-16.955a24.665,24.665,0,0,0-29.436,1.634l-30.617,25.825,1.524,1.807L450.149,1195A22.29,22.29,0,0,1,476.75,1193.526Z" transform="translate(-278.684 -137.867)" fill="#191919"/>
    <path id="Path_140" data-name="Path 140" d="M372.063,1150.9l20.2,11.538h37.2v-2.363H392.892l-20.769-11.861L344,1162.622l1.078,2.1Z" transform="translate(-254.955 -125.301)" fill="#191919"/>
    <path id="Path_141" data-name="Path 141" d="M550.69,1275.722c-21.124-4.685-50.156-21.567-65.581-31.213a14.575,14.575,0,0,0-17.54,1.6l-22.888,21.019,1.6,1.741,22.889-21.019a12.2,12.2,0,0,1,14.687-1.34c15.554,9.727,44.853,26.755,66.323,31.517Z" transform="translate(-287.211 -155.378)" fill="#191919"/>
    <rect id="Rectangle_111" data-name="Rectangle 111" width="14.065" height="2.363" transform="translate(219.819 1089.386) rotate(-25.49)" fill="#191919"/>
    <path id="Path_142" data-name="Path 142" d="M661.716,1267.547c-9.425-16.653-26.03-24.52-26.732-24.847l-1,2.143c.165.077,16.632,7.894,25.673,23.869Z" transform="translate(-347.781 -155.507)" fill="#191919"/>
    <path id="Path_143" data-name="Path 143" d="M539.967,1290.849l1.059-2.112q-1.541-.774-3.063-1.553l-1.078,2.1Q538.414,1290.069,539.967,1290.849Z" transform="translate(-316.903 -169.822)" fill="#191919"/>
    <path id="Path_144" data-name="Path 144" d="M577.548,1306.926l.619-2.281c-.987-.269-2.072-.6-3.224-.99l-.756,2.239C575.385,1306.3,576.515,1306.645,577.548,1306.926Z" transform="translate(-328.868 -175.122)" fill="#191919"/>
    <path id="Path_145" data-name="Path 145" d="M530.914,1286.189l1.1-2.094q-1.547-.809-3.04-1.6l-1.109,2.086Q529.356,1285.375,530.914,1286.189Z" transform="translate(-314.008 -168.312)" fill="#191919"/>
    <path id="Path_146" data-name="Path 146" d="M504.145,1271.462l1.175-2.05c-1.89-1.083-2.982-1.726-2.985-1.728l-1.2,2.036S502.236,1270.369,504.145,1271.462Z" transform="translate(-305.436 -163.547)" fill="#191919"/>
    <path id="Path_147" data-name="Path 147" d="M513.014,1276.486l1.15-2.065c-1.078-.6-2.082-1.164-3-1.682L510,1274.8C510.923,1275.318,511.931,1275.884,513.014,1276.486Z" transform="translate(-308.28 -165.174)" fill="#191919"/>
    <path id="Path_148" data-name="Path 148" d="M521.933,1281.4l1.124-2.079q-1.564-.844-3.02-1.645l-1.137,2.072Q520.36,1280.545,521.933,1281.4Z" transform="translate(-311.134 -166.761)" fill="#191919"/>
    <path id="Path_149" data-name="Path 149" d="M567.813,1303.565l.842-2.208c-1.005-.383-2.072-.807-3.171-1.261l-.9,2.185C565.7,1302.741,566.789,1303.174,567.813,1303.565Z" transform="translate(-325.787 -173.976)" fill="#191919"/>
    <path id="Path_150" data-name="Path 150" d="M549.113,1295.345l1.013-2.135q-1.543-.732-3.091-1.49L546,1293.844Q547.556,1294.605,549.113,1295.345Z" transform="translate(-319.826 -171.281)" fill="#191919"/>
    <path id="Path_151" data-name="Path 151" d="M558.376,1299.62l.947-2.165c-1-.437-2.052-.909-3.125-1.4l-.984,2.149C556.3,1298.7,557.363,1299.177,558.376,1299.62Z" transform="translate(-322.782 -172.676)" fill="#191919"/>
    <rect id="Rectangle_112" data-name="Rectangle 112" width="2.363" height="127.776" transform="translate(185.374 911.898)" fill="#191919"/>
    <rect id="Rectangle_113" data-name="Rectangle 113" width="2.363" height="3.437" transform="translate(208.593 1018.046)" fill="#191919"/>
    <rect id="Rectangle_114" data-name="Rectangle 114" width="2.363" height="3.438" transform="translate(208.593 990.503)" fill="#191919"/>
    <rect id="Rectangle_115" data-name="Rectangle 115" width="2.363" height="3.437" transform="translate(208.593 997.389)" fill="#191919"/>
    <rect id="Rectangle_116" data-name="Rectangle 116" width="2.363" height="3.438" transform="translate(208.593 1024.932)" fill="#191919"/>
    <rect id="Rectangle_117" data-name="Rectangle 117" width="2.363" height="3.438" transform="translate(208.593 1004.275)" fill="#191919"/>
    <rect id="Rectangle_118" data-name="Rectangle 118" width="2.363" height="3.437" transform="translate(208.593 983.618)" fill="#191919"/>
    <rect id="Rectangle_119" data-name="Rectangle 119" width="2.363" height="3.438" transform="translate(208.593 956.075)" fill="#191919"/>
    <rect id="Rectangle_120" data-name="Rectangle 120" width="2.363" height="3.437" transform="translate(208.593 949.189)" fill="#191919"/>
    <rect id="Rectangle_121" data-name="Rectangle 121" width="2.363" height="3.437" transform="translate(208.593 962.961)" fill="#191919"/>
    <rect id="Rectangle_122" data-name="Rectangle 122" width="2.363" height="3.437" transform="translate(208.593 969.846)" fill="#191919"/>
    <rect id="Rectangle_123" data-name="Rectangle 123" width="2.363" height="3.438" transform="translate(208.593 976.732)" fill="#191919"/>
    <rect id="Rectangle_124" data-name="Rectangle 124" width="2.363" height="3.438" transform="translate(208.593 1011.16)" fill="#191919"/>
    <path id="Path_152" data-name="Path 152" d="M445.75,1231.352l-1.566-1.77q-1.357,1.2-2.576,2.262l1.552,1.782Q444.386,1232.558,445.75,1231.352Z" transform="translate(-286.343 -151.413)" fill="#191919"/>
    <path id="Path_153" data-name="Path 153" d="M458.4,1220.3c.932-.788,1.792-1.5,2.629-2.168l-1.478-1.845c-.853.684-1.729,1.406-2.676,2.207Z" transform="translate(-291.24 -147.149)" fill="#191919"/>
    <path id="Path_154" data-name="Path 154" d="M450.765,1226.908q1.289-1.141,2.574-2.266l-1.554-1.78q-1.292,1.127-2.586,2.277Z" transform="translate(-288.778 -149.258)" fill="#191919"/>
    <path id="Path_155" data-name="Path 155" d="M474.689,1208.758c1.006-.568,2-1.073,2.965-1.5l-.96-2.159c-1.03.458-2.1,1-3.167,1.6Z" transform="translate(-296.581 -143.561)" fill="#191919"/>
    <path id="Path_156" data-name="Path 156" d="M501.777,1209.733a25.876,25.876,0,0,1,2.625,1.961l1.569-1.767a27.445,27.445,0,0,0-2.893-2.167Z" transform="translate(-305.642 -144.414)" fill="#191919"/>
    <path id="Path_157" data-name="Path 157" d="M483.146,1202.956l.68,2.263q.524-.157,1.048-.288a8.01,8.01,0,0,1,1.927-.226h.061v-2.363H486.8a10.374,10.374,0,0,0-2.5.3C483.923,1202.733,483.533,1202.839,483.146,1202.956Z" transform="translate(-299.667 -142.678)" fill="#191919"/>
    <path id="Path_158" data-name="Path 158" d="M466.291,1214.091c.95-.7,1.879-1.358,2.762-1.942l-1.306-1.97c-.917.608-1.88,1.285-2.863,2.013Z" transform="translate(-293.809 -145.19)" fill="#191919"/>
    <path id="Path_159" data-name="Path 159" d="M496.148,1206.618l1.039-2.122a20.628,20.628,0,0,0-3.4-1.325l-.647,2.273A18.351,18.351,0,0,1,496.148,1206.618Z" transform="translate(-302.873 -142.943)" fill="#191919"/>
    <path id="Path_160" data-name="Path 160" d="M427.555,1246.693c.241-.184,1.147-.884,2.718-2.163l-1.492-1.833c-1.545,1.258-2.427,1.939-2.661,2.119Z" transform="translate(-281.375 -155.506)" fill="#191919"/>
    <path id="Path_161" data-name="Path 161" d="M435.448,1240.246q1.188-1,2.632-2.23l-1.537-1.8q-1.433,1.227-2.614,2.214Z" transform="translate(-283.88 -153.543)" fill="#191919"/>
    <path id="Path_162" data-name="Path 162" d="M328.257,1149.62l27.2-13.172-1.03-2.127-28.533,13.818v45.838h2.363Z" transform="translate(-249.205 -120.796)" fill="#191919"/>
    <rect id="Rectangle_125" data-name="Rectangle 125" width="9.338" height="2.363" transform="translate(-332.493 1081.712)" fill="#191919"/>
    <rect id="Rectangle_126" data-name="Rectangle 126" width="9.338" height="2.363" transform="translate(-332.493 1093.111)" fill="#191919"/>
    <rect id="Rectangle_127" data-name="Rectangle 127" width="9.338" height="2.363" transform="translate(-332.493 1104.386)" fill="#191919"/>
    <path id="Path_163" data-name="Path 163" d="M-354.487,1248.417h2.363v-10.623h-31.644l-23-17.707-23.758,17.707H-448.19v2.363h18.453l22.951-17.1,22.215,17.1h30.085Z" transform="translate(-0.946 -148.337)" fill="#191919"/>
    <path id="Path_164" data-name="Path 164" d="M-385.98,1258.409a6.147,6.147,0,0,0-6.2-6.078,6.147,6.147,0,0,0-6.2,6.078,6.147,6.147,0,0,0,6.2,6.078A6.147,6.147,0,0,0-385.98,1258.409Zm-6.2,3.715a3.782,3.782,0,0,1-3.838-3.715,3.782,3.782,0,0,1,3.838-3.715,3.782,3.782,0,0,1,3.837,3.715A3.782,3.782,0,0,1-392.18,1262.124Z" transform="translate(-16.974 -158.606)" fill="#191919"/>
    <path id="Path_165" data-name="Path 165" d="M-394.013,1297.826a13.43,13.43,0,0,0-13.563,13.261v21.545h2.364v-21.545a11.065,11.065,0,0,1,11.2-10.9,11.065,11.065,0,0,1,11.2,10.9v21.3h2.363v-21.3A13.43,13.43,0,0,0-394.013,1297.826Z" transform="translate(-14.016 -173.246)" fill="#191919"/>
    <rect id="Rectangle_128" data-name="Rectangle 128" width="2.363" height="10.245" transform="translate(-410.336 1110.844)" fill="#191919"/>
    <rect id="Rectangle_129" data-name="Rectangle 129" width="2.363" height="37.398" transform="translate(-381.417 1121.988)" fill="#191919"/>
    <rect id="Rectangle_130" data-name="Rectangle 130" width="2.363" height="11.083" transform="translate(-381.417 1105.783)" fill="#191919"/>
    <path id="Path_166" data-name="Path 166" d="M873.049,826.026h-12.6v12.6h12.6Zm-2.363,10.241h-7.878v-7.878h7.878Z" transform="translate(-420.653 -22.048)" fill="#191919"/>
    <path id="Path_167" data-name="Path 167" d="M860.445,888.964h12.6v-12.6h-12.6Zm2.363-10.241h7.878V886.6h-7.878Z" transform="translate(-420.653 -38.118)" fill="#191919"/>
    <path id="Path_168" data-name="Path 168" d="M860.445,939.3h12.6v-12.6h-12.6Zm2.363-10.241h7.878v7.877h-7.878Z" transform="translate(-420.653 -54.26)" fill="#191919"/>
    <path id="Path_169" data-name="Path 169" d="M860.445,989.63h12.6v-12.6h-12.6Zm2.363-10.241h7.878v7.877h-7.878Z" transform="translate(-420.653 -70.403)" fill="#191919"/>
    <path id="Path_170" data-name="Path 170" d="M822.142,876.359h-12.6v12.6h12.6ZM819.778,886.6H811.9v-7.877h7.877Z" transform="translate(-404.271 -38.118)" fill="#191919"/>
    <path id="Path_171" data-name="Path 171" d="M809.537,939.3h12.6v-12.6h-12.6Zm2.364-10.241h7.877v7.877H811.9Z" transform="translate(-404.271 -54.26)" fill="#191919"/>
    <path id="Path_172" data-name="Path 172" d="M809.537,989.63h12.6v-12.6h-12.6Zm2.364-10.241h7.877v7.877H811.9Z" transform="translate(-404.271 -70.403)" fill="#191919"/>
    <path id="Path_173" data-name="Path 173" d="M821.455,801.281v32.509H781.627v142.2h2.363V836.154h39.828V803.645H859.16v-2.363Z" transform="translate(-395.29 -14.086)" fill="#191919"/>
    <rect id="Rectangle_131" data-name="Rectangle 131" width="2.363" height="3.438" transform="translate(428.908 952.964)" fill="#191919"/>
    <rect id="Rectangle_132" data-name="Rectangle 132" width="2.363" height="3.438" transform="translate(428.908 946.079)" fill="#191919"/>
    <rect id="Rectangle_133" data-name="Rectangle 133" width="2.363" height="2.367" transform="translate(428.908 959.849)" fill="#191919"/>
    <rect id="Rectangle_134" data-name="Rectangle 134" width="2.363" height="3.438" transform="translate(428.908 877.222)" fill="#191919"/>
    <rect id="Rectangle_135" data-name="Rectangle 135" width="2.363" height="3.438" transform="translate(428.908 897.879)" fill="#191919"/>
    <rect id="Rectangle_136" data-name="Rectangle 136" width="2.363" height="3.438" transform="translate(428.908 890.993)" fill="#191919"/>
    <rect id="Rectangle_137" data-name="Rectangle 137" width="2.363" height="3.438" transform="translate(428.908 904.765)" fill="#191919"/>
    <rect id="Rectangle_138" data-name="Rectangle 138" width="2.363" height="3.438" transform="translate(428.908 918.536)" fill="#191919"/>
    <rect id="Rectangle_139" data-name="Rectangle 139" width="2.363" height="3.438" transform="translate(428.908 911.65)" fill="#191919"/>
    <rect id="Rectangle_140" data-name="Rectangle 140" width="2.363" height="3.438" transform="translate(428.908 884.107)" fill="#191919"/>
    <rect id="Rectangle_141" data-name="Rectangle 141" width="2.363" height="3.438" transform="translate(428.908 932.307)" fill="#191919"/>
    <rect id="Rectangle_142" data-name="Rectangle 142" width="2.363" height="3.438" transform="translate(428.908 856.565)" fill="#191919"/>
    <rect id="Rectangle_143" data-name="Rectangle 143" width="2.363" height="3.438" transform="translate(428.908 925.422)" fill="#191919"/>
    <rect id="Rectangle_144" data-name="Rectangle 144" width="2.363" height="3.438" transform="translate(428.908 849.679)" fill="#191919"/>
    <rect id="Rectangle_145" data-name="Rectangle 145" width="2.363" height="3.438" transform="translate(428.908 870.336)" fill="#191919"/>
    <rect id="Rectangle_146" data-name="Rectangle 146" width="2.363" height="3.438" transform="translate(428.908 863.45)" fill="#191919"/>
    <rect id="Rectangle_147" data-name="Rectangle 147" width="2.363" height="3.438" transform="translate(428.908 939.193)" fill="#191919"/>
    <path id="Path_174" data-name="Path 174" d="M390.887,977.872v15.785a6.526,6.526,0,0,0,13.049,0h-2.364a4.164,4.164,0,0,1-8.323,0V977.872Z" transform="translate(-270.066 -70.669)" fill="#191919"/>
    <path id="Path_175" data-name="Path 175" d="M490.12,958.59h2.364V927.234l5.817-5.085,5.624,4.916V940.6h2.363V870.5H564.9v-8.435h-8.824l-12.935-5.9L502.387,822.12l-.066-.578h-2.935V811.385h-2.364v10.157h-2.935l-.045.4L423.16,855.995H372.426l-9.439,6.64V870.5H490.12Zm5.109-126.1,1.314,1.294L494.9,835.4Zm8.7,25.869v9.78H492.484v-9.78Zm-.756-8.252-3.489-3.436,2.791-2.748ZM501.5,835.349l-1.59-1.567,1.272-1.253Zm.421,3.731.21,1.856L498,845.011l-3.762-3.7.246-2.174,3.748-3.691Zm-8.027,5.211,2.415,2.378-3.019,2.973Zm-1.025,9.082,5.124-5.046,5.595,5.509.243,2.158H492.575Zm-12.109,8.51-6.122-3.526h12.244Zm9.359-2.663v8.054l-6.992-4.027Zm-11.726,4.027-7.188,4.141-7.188-4.141,7.188-4.14Zm-16.744-1.364-6.122-3.526h12.244Zm-2.368,1.364-7.188,4.141-7.188-4.141,7.188-4.14Zm-16.744-1.364-6.122-3.526h12.244Zm-2.368,1.364-7.188,4.141-7.188-4.141,7.188-4.14Zm-16.743-1.364-6.122-3.526H429.55Zm-2.368,1.364-7.188,4.141-7.188-4.141,7.188-4.14Zm-16.743-1.364-6.122-3.526h12.244Zm-2.368,1.364-7.188,4.141-7.188-4.141,7.188-4.14Zm-16.744-1.364-6.122-3.526h12.244Zm0,2.728,6.122,3.526H379.085Zm19.111,0,6.122,3.526H398.2Zm19.111,0,6.122,3.526H417.306Zm19.111,0,6.122,3.526H436.417Zm19.111,0,6.121,3.526H455.528Zm19.111,0,6.122,3.526H474.639ZM492.484,897.2l3.611,3.156-3.611,3.157Zm0,9.452,5.407-4.726,6.034,5.275v6.9L498.3,919.01l-5.817-5.086Zm7.2-6.3,4.239-3.706v7.411Zm4.239-16.807-4.239-3.706,4.239-3.705Zm0,3.139v6.823l-6.034,5.275-5.407-4.726v-7.921l5.407-4.726ZM492.484,883v-6.314l3.611,3.157Zm0,41.1v-7.032l4.022,3.516Zm7.612-3.516,3.828-3.347v6.693ZM503.924,873l-6.034,5.274-5.407-4.726V870.5h11.441Zm58.614-8.568v3.708H506.287v-9.78h35.962l13.314,6.071Zm-23.289-8.434H506.2l-3.434-30.475ZM500.21,823.9l.637,5.641-2.619,2.579-2.661-2.621.632-5.6Zm-6.481.808L490.2,855.995H428.616ZM373.174,858.358h1.176l6.438,3.708H367.9Zm-7.824,6.071h15.437l-6.438,3.708h-9Z" transform="translate(-260.89 -17.337)" fill="#191919"/>
    <path id="Path_176" data-name="Path 176" d="M371.632,906.111h13.059V943.43a5.276,5.276,0,1,0,2.363,0V906.111h71.26v-2.364H371.632Zm17.153,42.358a2.914,2.914,0,1,1-2.912-2.812A2.867,2.867,0,0,1,388.785,948.469Z" transform="translate(-263.813 -46.885)" fill="#191919"/>
    <path id="Path_177" data-name="Path 177" d="M311.567,1066.731a4.827,4.827,0,1,0,2.364,0v-33h11.5v-2.364H248.246v2.364h63.321Zm3.645,4.587a2.465,2.465,0,1,1-2.463-2.374A2.422,2.422,0,0,1,315.212,1071.319Z" transform="translate(-224.259 -87.806)" fill="#191919"/>
    <path id="Path_178" data-name="Path 178" d="M337.1,1111.616a3.578,3.578,0,0,1-7.152,0h-2.363a5.94,5.94,0,0,0,11.878,0v-14.054H337.1Z" transform="translate(-249.763 -109.055)" fill="#191919"/>
    <path id="Path_179" data-name="Path 179" d="M156.656,1065.911h2.364v-35.52l5.243-4.583,4.684,4.095v29.3h2.364v-57.12h113.2v-7.2l-8.493-5.974H230.833l-63.023-30.278-.045-.4h-2.6v-8.914H162.8v8.914h-2.6l-.066.578L123.9,989.083l-11.476,5.234h-7.959v7.77h52.19Zm12.291-53.112-2.889-2.526,2.889-2.526Zm0,3.139v2.635l-4.684,4.1-5.243-4.584v-1.659l5.243-4.583Zm-9.928-2.65v-6.029l3.448,3.015Zm0,13.965v-6.029l3.448,3.015Zm7.038-3.014,2.89-2.526v5.052Zm2.89-19.629-4.684,4.095-5.243-4.584v-2.034h9.928Zm-7.518-36.183.849.836-1.062,1.046Zm18.085,28.436,4.967,2.861h-9.933Zm-8.2,2v-6.724l5.836,3.362Zm10.571-3.362,6.141-3.537,6.141,3.537-6.141,3.537Zm14.649,1.364,4.967,2.861h-9.933ZM198.9,995.5l6.141-3.537,6.141,3.537-6.141,3.537Zm14.649,1.364,4.967,2.861h-9.934Zm2.367-1.364,6.141-3.537L228.2,995.5l-6.141,3.537Zm14.649,1.364,4.967,2.861H225.6Zm2.368-1.364,6.141-3.537,6.141,3.537-6.141,3.537Zm14.649,1.364,4.967,2.861h-9.933Zm2.368-1.364,6.14-3.537,6.141,3.537-6.141,3.537Zm14.649,1.364,4.967,2.861h-9.933Zm0-2.728-4.967-2.861h9.934Zm-17.017,0-4.967-2.861h9.933Zm-17.016,0-4.967-2.861h9.933Zm-17.016,0-4.967-2.861h9.934Zm-17.017,0-4.967-2.861H201.5Zm-17.017,0-4.967-2.861h9.933Zm-11.327-11.1-2.334-2.3,1.866-1.839Zm-1.432-12.68-1.109-1.093.887-.874Zm.421,3.732.207,1.827-3.214,3.165-3.548-3.494.174-1.544,3.167-3.118Zm-6.893,4.482,2.2,2.168-2.752,2.71Zm-.972,8.61,4.857-4.783,4.439,4.371.242,2.144h-9.734Zm9.635,4.095v8.449H159.02v-8.449ZM274.3,999.723l-5.283-3.043h13.131v3.043Zm5.3-5.406H269.017l5.283-3.043h.971Zm-54.22-5.406H171.221l-3.1-27.506ZM165.654,960.6l.543,4.807-2.234,2.2-2.2-2.163.547-4.844Zm-8.916,28.314H127.793l31.959-26.7Zm-49.909,10.812V996.68h6.11l11.854-5.406h31.864v8.449Z" transform="translate(-178.067 -61.444)" fill="#191919"/>
    <path id="Path_180" data-name="Path 180" d="M330.2,1240.612a11.445,11.445,0,0,0-6.127-10.153l-5.95-3.134-12.971-21.305a9.684,9.684,0,0,0-8.855-5.755h-6.766v-4.979a4.481,4.481,0,0,0-4.476-4.475h-.141a4.481,4.481,0,0,0-4.476,4.475v4.979H265.862v34.9h-10v22.688h2.363v-20.324h7.634v12.1h2.364v-47H296.3a7.323,7.323,0,0,1,6.72,4.409l.033.075,13.223,21.721.17.279,6.528,3.439a9.088,9.088,0,0,1,4.865,8.061v8.751H314.4v1.182a9.26,9.26,0,0,0,9.25,9.25h4.195v5.75H294.55a19.964,19.964,0,0,0-37.673,7.978H222.637a19.831,19.831,0,0,0-2.815-9.092H252.5v-2.363H218.155a20.019,20.019,0,0,0-10-6.572,94.548,94.548,0,0,0,13.65-1.355l-.695,2.3,2.262.684,1.057-3.5a70.106,70.106,0,0,0,7.235-1.912l.592-.194,7.555-25.832h8.754V1252.2h2.363v-28.871H240.5l5.824-19.912.175-.6-.394-.482q-2.125-2.6-4.631-5.1l.965-3.192-2.263-.684-.614,2.032c-12.113-11.319-29.776-20.842-49.935-26.738-21.339-6.242-42.837-7.513-59.574-3.745l.132-.445-2.266-.671-.524,1.77a61.587,61.587,0,0,0-6.415,2.069l-.544.21-13.223,45.211.345.471a61.45,61.45,0,0,0,4.14,5.036l-.833,2.813,2.266.671.443-1.5c12.062,12.259,30.93,22.837,52.361,29.106a145.132,145.132,0,0,0,31.9,5.683,19.991,19.991,0,0,0-10.073,6.132H147.384v2.364h38.58a19.838,19.838,0,0,0-3.2,9.693H150.91v2.364h31.858a19.969,19.969,0,0,0,39.869,0h34.241a19.968,19.968,0,0,0,39.15,4.247h29.764a12.5,12.5,0,0,0,12.482-12.482v-5.583H330.2Zm-47.4-40.347v-4.979a2.115,2.115,0,0,1,2.113-2.112h.141a2.115,2.115,0,0,1,2.113,2.112v4.979Zm40.841,57.168a6.9,6.9,0,0,1-6.785-5.705h10.98v5.705Zm-79.763-54.082-13.545,46.307c-1.648.521-3.369.966-5.124,1.371l15.483-51.214Q242.382,1201.557,243.884,1203.349Zm-134.069,9.241,12.567-42.966c1.359-.509,2.773-.971,4.227-1.393l-14.116,47.659C111.546,1214.8,110.647,1213.7,109.815,1212.591Zm4.535,5.354,14.938-50.434c16.507-4.053,38.148-2.89,59.682,3.409,20.3,5.937,37.987,15.581,49.833,27l-16.225,53.671c-16.039,3.095-35.9,1.664-55.972-4.207C144.984,1241.059,126.06,1230.316,114.35,1217.945Zm88.352,74.368a17.609,17.609,0,1,1,17.609-17.609A17.629,17.629,0,0,1,202.7,1292.313Zm74.109,0A17.609,17.609,0,1,1,294.42,1274.7,17.629,17.629,0,0,1,276.811,1292.313Zm59.1-27.882v3.22a10.131,10.131,0,0,1-10.12,10.12H296.547a19.983,19.983,0,0,0-.956-9.862H330.2v-3.478Z" transform="translate(-178.895 -129.793)" fill="#191919"/>
    <path id="Path_181" data-name="Path 181" d="M129.259,1298.356a19.972,19.972,0,1,0,19.972,19.972A19.995,19.995,0,0,0,129.259,1298.356Zm0,37.581a17.609,17.609,0,1,1,17.609-17.609A17.629,17.629,0,0,1,129.259,1335.937Z" transform="translate(-179.728 -173.417)" fill="#191919"/>
    <path id="Path_182" data-name="Path 182" d="M79.25,1293.583l15.315-10.268H110.77v-2.363H95.387v-11.94h30.42v-2.363H103.823v-13.672h-2.363v13.672H93.024V1281.5l-16.137,10.819v12.585H97.323v-2.363H79.25Z" transform="translate(-169.332 -158.814)" fill="#191919"/>
    <path id="Path_183" data-name="Path 183" d="M386.031,1255.748a6.14,6.14,0,0,0,6.132-6.133v-.307l-12.04-21.6H352.943v18.175l9.861,9.861Zm-30.725-25.672h23.429L389.79,1249.9a3.774,3.774,0,0,1-3.759,3.481H363.783l-8.476-8.476Z" transform="translate(-257.87 -150.684)" fill="#191919"/>
    <path id="Path_184" data-name="Path 184" d="M146.577,1180.563l.231,2.352c.017,0,1.773-.171,5.068-.224l-.037-2.364C148.447,1180.383,146.652,1180.556,146.577,1180.563Z" transform="translate(-191.712 -135.617)" fill="#191919"/>
    <path id="Path_185" data-name="Path 185" d="M251.9,1212.745c-.292-.211-29.6-21.12-65.491-28.439-8.422-1.717-16.716-3-24.652-3.8l-.239,2.351c7.858.8,16.074,2.062,24.418,3.764,35.381,7.215,64.294,27.833,64.582,28.041Z" transform="translate(-196.437 -135.637)" fill="#191919"/>
    <path id="Path_186" data-name="Path 186" d="M353.324,1315.517a8.334,8.334,0,1,0,8.333,8.333A8.343,8.343,0,0,0,353.324,1315.517Zm0,14.3a5.97,5.97,0,1,1,5.97-5.97A5.977,5.977,0,0,1,353.324,1329.82Z" transform="translate(-255.342 -178.939)" fill="#191919"/>
    <path id="Path_187" data-name="Path 187" d="M244.052,1315.517a8.334,8.334,0,1,0,8.333,8.333A8.343,8.343,0,0,0,244.052,1315.517Zm0,14.3a5.97,5.97,0,1,1,5.97-5.97A5.977,5.977,0,0,1,244.052,1329.82Z" transform="translate(-220.295 -178.939)" fill="#191919"/>
    <path id="Path_188" data-name="Path 188" d="M134.781,1315.517a8.334,8.334,0,1,0,8.333,8.333A8.343,8.343,0,0,0,134.781,1315.517Zm0,14.3a5.97,5.97,0,1,1,5.97-5.97A5.977,5.977,0,0,1,134.781,1329.82Z" transform="translate(-185.248 -178.939)" fill="#191919"/>
    <rect id="Rectangle_148" data-name="Rectangle 148" width="3.438" height="2.363" transform="translate(-40.056 1116.637)" fill="#191919"/>
    <rect id="Rectangle_149" data-name="Rectangle 149" width="3.438" height="2.363" transform="translate(-67.598 1116.637)" fill="#191919"/>
    <rect id="Rectangle_150" data-name="Rectangle 150" width="3.438" height="2.363" transform="translate(-60.713 1116.637)" fill="#191919"/>
    <rect id="Rectangle_151" data-name="Rectangle 151" width="3.438" height="2.363" transform="translate(-33.17 1116.637)" fill="#191919"/>
    <rect id="Rectangle_152" data-name="Rectangle 152" width="3.438" height="2.363" transform="translate(-46.941 1116.637)" fill="#191919"/>
    <rect id="Rectangle_153" data-name="Rectangle 153" width="3.438" height="2.363" transform="translate(-53.827 1116.637)" fill="#191919"/>
    <path id="Path_189" data-name="Path 189" d="M253.736,1139.174V1092.4H229.872v-24.827H198.731v43.486H141.707v2.363h59.388v-43.486h26.414v24.827h23.864v44.413Z" transform="translate(-190.067 -99.384)" fill="#191919"/>
    <rect id="Rectangle_154" data-name="Rectangle 154" width="2.363" height="3.437" transform="translate(24.925 1012.094)" fill="#191919"/>
    <rect id="Rectangle_155" data-name="Rectangle 155" width="2.363" height="3.438" transform="translate(24.925 1005.208)" fill="#191919"/>
    <rect id="Rectangle_156" data-name="Rectangle 156" width="2.363" height="3.438" transform="translate(24.925 1018.98)" fill="#191919"/>
    <rect id="Rectangle_157" data-name="Rectangle 157" width="2.363" height="3.437" transform="translate(24.925 1025.865)" fill="#191919"/>
    <path id="Path_190" data-name="Path 190" d="M252.087,1162.745v-.026l-2.363.026Z" transform="translate(-224.798 -129.972)" fill="#191919"/>
    <rect id="Rectangle_158" data-name="Rectangle 158" width="2.363" height="3.438" transform="translate(24.925 991.437)" fill="#191919"/>
    <rect id="Rectangle_159" data-name="Rectangle 159" width="2.363" height="3.438" transform="translate(24.925 984.551)" fill="#191919"/>
    <rect id="Rectangle_160" data-name="Rectangle 160" width="2.363" height="3.437" transform="translate(24.925 977.665)" fill="#191919"/>
    <rect id="Rectangle_161" data-name="Rectangle 161" width="2.363" height="3.438" transform="translate(24.925 970.78)" fill="#191919"/>
    <rect id="Rectangle_162" data-name="Rectangle 162" width="2.363" height="3.437" transform="translate(24.925 998.323)" fill="#191919"/>
    <path id="Path_191" data-name="Path 191" d="M743.814,1116.466H792.1v-8.687h45.03v-2.364H792.1v-17.241H815.61v-2.363H792.1v-11.589h51.829v-2.363H789.74V1114.1H743.814Z" transform="translate(-383.122 -100.788)" fill="#191919"/>
    <rect id="Rectangle_163" data-name="Rectangle 163" width="189.954" height="2.363" transform="translate(258.767 1158.605)" fill="#191919"/>
    <rect id="Rectangle_164" data-name="Rectangle 164" width="26.385" height="2.363" transform="translate(216.234 1158.605)" fill="#191919"/>
    <path id="Path_192" data-name="Path 192" d="M-262.084,1295.374h-59.577v24.3h2.363v-21.934h58.192l38.518-38.518-1.671-1.671Z" transform="translate(-41.662 -160.285)" fill="#191919"/>
    <rect id="Rectangle_165" data-name="Rectangle 165" width="2.363" height="3.438" transform="translate(-276.934 1056.407)" fill="#191919"/>
    <rect id="Rectangle_166" data-name="Rectangle 166" width="2.363" height="3.437" transform="translate(-276.934 1077.064)" fill="#191919"/>
    <rect id="Rectangle_167" data-name="Rectangle 167" width="2.363" height="3.437" transform="translate(-276.934 1049.521)" fill="#191919"/>
    <rect id="Rectangle_168" data-name="Rectangle 168" width="2.363" height="3.437" transform="translate(-276.934 1063.292)" fill="#191919"/>
    <rect id="Rectangle_169" data-name="Rectangle 169" width="2.363" height="3.438" transform="translate(-276.934 1070.178)" fill="#191919"/>
    <rect id="Rectangle_170" data-name="Rectangle 170" width="2.363" height="3.437" transform="translate(323.263 1073.066) rotate(-19.141)" fill="#191919"/>
    <rect id="Rectangle_171" data-name="Rectangle 171" width="2.363" height="3.438" transform="translate(309.734 1034.037) rotate(-19.147)" fill="#191919"/>
    <rect id="Rectangle_172" data-name="Rectangle 172" width="2.363" height="3.438" transform="matrix(0.945, -0.328, 0.328, 0.945, 325.518, 1079.57)" fill="#191919"/>
    <rect id="Rectangle_173" data-name="Rectangle 173" width="2.363" height="3.437" transform="translate(311.989 1040.542) rotate(-19.139)" fill="#191919"/>
    <rect id="Rectangle_174" data-name="Rectangle 174" width="2.363" height="3.438" transform="translate(307.48 1027.532) rotate(-19.147)" fill="#191919"/>
    <rect id="Rectangle_175" data-name="Rectangle 175" width="2.363" height="3.438" transform="translate(321.008 1066.561) rotate(-19.147)" fill="#191919"/>
    <rect id="Rectangle_176" data-name="Rectangle 176" width="2.363" height="3.437" transform="translate(318.754 1060.056) rotate(-19.141)" fill="#191919"/>
    <rect id="Rectangle_177" data-name="Rectangle 177" width="2.363" height="3.438" transform="translate(314.244 1047.046) rotate(-19.147)" fill="#191919"/>
    <rect id="Rectangle_178" data-name="Rectangle 178" width="2.363" height="3.438" transform="translate(316.498 1053.551) rotate(-19.147)" fill="#191919"/>
    <path id="Path_193" data-name="Path 193" d="M566.913,1328.905l.079-2.362c-19.855-.661-38.876-7.5-55.657-13.529-5.691-2.045-11.066-3.978-16.3-5.626-21.467-6.76-35.1,5.262-35.674,5.777l1.584,1.755c.13-.117,13.249-11.616,33.38-5.277,5.188,1.635,10.542,3.559,16.21,5.6C527.481,1321.33,546.687,1328.233,566.913,1328.905Z" transform="translate(-291.916 -175.661)" fill="#191919"/>
    <path id="Path_194" data-name="Path 194" d="M604.884,1293.454a15.888,15.888,0,0,1,11.8-5.288h.024a15.887,15.887,0,0,1,11.837,5.3l7.534,6.9,1.594-1.744-7.407-6.771a18.247,18.247,0,0,0-13.558-6.042h-.028a18.252,18.252,0,0,0-13.609,6.13l-10.967,15.413,1.926,1.37Z" transform="translate(-334.564 -169.377)" fill="#191919"/>
    <rect id="Rectangle_179" data-name="Rectangle 179" width="78.123" height="2.363" transform="translate(-351.461 1148.402)" fill="#191919"/>
  </g>
</svg>
