<svg xmlns="http://www.w3.org/2000/svg" xmlns:xlink="http://www.w3.org/1999/xlink" width="398" height="218" viewBox="0 0 398 218">
  <defs>
    <clipPath id="clip-path">
      <rect id="Rectangle_213" data-name="Rectangle 213" width="398" height="218" transform="translate(1291.036 810.383)" fill="none"/>
    </clipPath>
  </defs>
  <g id="highlight-box-bkgd" transform="translate(-140.5 -1379)">
    <rect id="Rectangle_40" data-name="Rectangle 40" width="398" height="218" transform="translate(140.5 1379)" fill="#191919"/>
    <g id="Group_53" data-name="Group 53" transform="translate(-1150.536 568.617)">
      <g id="Group_52" data-name="Group 52" clip-path="url(#clip-path)">
        <path id="Path_195" data-name="Path 195" d="M1296.825,1014.718v-6.468h-19.458v6.467l9.726,7.077Zm-17.683-4.693h15.908v3.788l-7.957,5.785-7.951-5.785Z" fill="#303030"/>
        <path id="Path_196" data-name="Path 196" d="M1294.724,1073.955h-3.369V1027.03l12.208-8.88v-16.64H1270.63v16.64l12.208,8.88v46.925h-3.369v5.053h-13.2v28.686a10.307,10.307,0,0,0,2.622,6.391l18.2,18.46,18.2-18.459a10.285,10.285,0,0,0,2.624-6.392v-28.686h-13.195Zm-22.319-56.708v-13.962h29.383v13.962l-12.209,8.88v47.828h-4.966v-47.828Zm33.738,63.538v26.909a8.551,8.551,0,0,1-2.111,5.146l-16.939,17.175-16.937-17.177a8.567,8.567,0,0,1-2.111-5.144v-26.909h11.424v11.747h1.776v-16.8h11.7v16.8h1.776v-11.747Z" fill="#303030"/>
        <path id="Path_197" data-name="Path 197" d="M1255.548,858.4h56.679V846.968h13.725v-13.2h-13.725v-9.653h13.725v-13.2h-13.725V799.483h-56.679v11.428h-13.726v13.2h13.726v9.653h-13.726v13.2h13.726ZM1283,856.621h-25.676v-9.653H1283Zm-11.95-21.081h25.677v9.653h-25.677Zm39.4,21.081h-25.677v-9.653h25.677Zm13.725-21.081v9.653H1298.5V835.54h25.676Zm-13.725-1.775h-25.677v-9.653h25.677Zm-39.4-21.079h25.677v9.651h-25.677Zm53.128,0v9.651H1298.5v-9.651h25.676Zm-39.4-11.428h25.677v9.653h-25.677Zm-27.452,0H1283v9.653h-25.676ZM1243.6,822.337v-9.651h25.675v9.651H1243.6Zm13.725,1.775H1283v9.653h-25.676ZM1243.6,845.193V835.54h25.675v9.653H1243.6Z" fill="#303030"/>
        <path id="Path_198" data-name="Path 198" d="M1429.884,1024.032l6.453-17.8h.372a4.083,4.083,0,1,0,0-8.131h-7.257V959.064a12.712,12.712,0,0,0-12.587-12.805c-6.942,0-12.59,4.5-12.59,10.026v9.438h-11.461l3.254,5.965h18.189l3.255-5.965h-11.461v-9.438c0-4.549,4.851-8.25,10.814-8.25a10.934,10.934,0,0,1,10.811,11.029V998.1h-77.562a4.083,4.083,0,1,0,0,8.131h.368l6.455,17.8c2.144,5.919,8.592,10.82,14.951,11.65l-1.6,2.894,1.554.859,2-3.616h39.138l2,3.616,1.554-.859-1.6-2.894C1421.29,1034.853,1427.738,1029.952,1429.884,1024.032Zm-16.68-54.119h-16.082l-1.317-2.414h18.716Zm-65.778,32.25a2.517,2.517,0,0,1,2.688-2.291h86.595a2.32,2.32,0,1,1,0,4.581h-86.595A2.516,2.516,0,0,1,1347.426,1002.163ZM1414,1034l-1.147-2.076-1.554.859.7,1.261h-37.177l.7-1.261-1.554-.859-1.146,2.076c-5.962-.441-12.2-5.01-14.211-10.573l-6.236-17.2h82.079l-6.235,17.2C1426.2,1028.99,1419.963,1033.56,1414,1034Z" fill="#303030"/>
        <rect id="Rectangle_180" data-name="Rectangle 180" width="1.775" height="6.338" transform="translate(1402.239 973.552)" fill="#303030"/>
        <rect id="Rectangle_181" data-name="Rectangle 181" width="1.775" height="6.338" transform="translate(1402.239 983.104)" fill="#303030"/>
        <rect id="Rectangle_182" data-name="Rectangle 182" width="1.775" height="6.34" transform="translate(1398.168 976.317)" fill="#303030"/>
        <rect id="Rectangle_183" data-name="Rectangle 183" width="1.775" height="6.335" transform="translate(1398.168 985.868)" fill="#303030"/>
        <rect id="Rectangle_184" data-name="Rectangle 184" width="1.775" height="6.34" transform="translate(1406.313 976.317)" fill="#303030"/>
        <rect id="Rectangle_185" data-name="Rectangle 185" width="1.775" height="6.335" transform="translate(1406.313 985.868)" fill="#303030"/>
        <rect id="Rectangle_186" data-name="Rectangle 186" width="1.775" height="6.338" transform="translate(1410.382 973.552)" fill="#303030"/>
        <rect id="Rectangle_187" data-name="Rectangle 187" width="1.775" height="6.338" transform="translate(1410.382 983.104)" fill="#303030"/>
        <path id="Path_199" data-name="Path 199" d="M1291.265,936.077a4.153,4.153,0,1,0,4.154-4.152A4.159,4.159,0,0,0,1291.265,936.077Zm4.154-2.377a2.378,2.378,0,1,1-2.378,2.377A2.38,2.38,0,0,1,1295.419,933.7Z" fill="#303030"/>
        <path id="Path_200" data-name="Path 200" d="M1310.532,940.232a4.154,4.154,0,1,0-4.156-4.155A4.158,4.158,0,0,0,1310.532,940.232Zm0-6.532a2.378,2.378,0,1,1-2.381,2.377A2.38,2.38,0,0,1,1310.532,933.7Z" fill="#303030"/>
        <path id="Path_201" data-name="Path 201" d="M1325.639,940.232a4.154,4.154,0,1,0-4.154-4.155A4.16,4.16,0,0,0,1325.639,940.232Zm0-6.532a2.378,2.378,0,1,1-2.378,2.377A2.381,2.381,0,0,1,1325.639,933.7Z" fill="#303030"/>
        <path id="Path_202" data-name="Path 202" d="M1340.752,940.232a4.154,4.154,0,1,0-4.156-4.155A4.158,4.158,0,0,0,1340.752,940.232Zm0-6.532a2.378,2.378,0,1,1-2.381,2.377A2.379,2.379,0,0,1,1340.752,933.7Z" fill="#303030"/>
        <path id="Path_203" data-name="Path 203" d="M1316.242,880.1h-6.281l-12.791,12.792h9.579l9.493-5.791Zm-1.775,6-8.216,5.013h-4.794l9.239-9.242h3.771Z" fill="#303030"/>
        <path id="Path_204" data-name="Path 204" d="M1259.35,897.119a5.778,5.778,0,0,0-3.053,10.692c-.022,3.866.14,14.374,2.44,18.535,1.807,3.272,5.24,4.9,10.4,4.9a43.129,43.129,0,0,0,10.566-1.594l.386-.1,4.229-8.3-7.272,2.878c-2.36-2.536-10.8-12.354-14.353-16.5a5.722,5.722,0,0,0,1.063-8.425l6.4-8.194a6.412,6.412,0,0,0,4.239-.156l19.55,36.349c-5.334.238-9.594,4.124-9.594,8.88,0,4.91,4.534,8.9,10.107,8.9h47.252c5.575,0,10.109-3.994,10.109-8.9s-4.534-8.9-10.109-8.9h-.073V898.2h-20.946V875.93h-12.523l-15.39,15.384v15.417l-14.19-20.185a6.87,6.87,0,0,0,.4-2.215,6.958,6.958,0,0,0-13.916,0,6.869,6.869,0,0,0,.414,2.28l-5.586,10.564C1259.713,897.157,1259.536,897.119,1259.35,897.119Zm16.84,28.68.412.413,4-1.585-1.734,3.4c-10,2.531-16.252,1.673-18.58-2.545-1.641-2.968-2.219-10.474-2.221-16.938a5.757,5.757,0,0,0,1.28.153,5.7,5.7,0,0,0,1.69-.28C1265.339,913.439,1274.569,924.179,1276.19,925.8Zm-16.84-18.872a4.016,4.016,0,1,1,4.017-4.015A4.021,4.021,0,0,1,1259.35,906.927Zm82.361,22.022c4.595,0,8.334,3.2,8.334,7.128s-3.739,7.129-8.334,7.129h-47.252c-4.594,0-8.332-3.2-8.332-7.129s3.738-7.128,8.332-7.128h47.252Zm-47.157-36.9,14.35-14.344h10.013v21.014l-9.932,9.931h-14.431Zm-1.348,18.376h16.513l10.453-10.45h19.69v27.2H1295.95l-19.969-37.129a7.027,7.027,0,0,0,1.706-1.7Zm-21.181-31.275a5.183,5.183,0,1,1-5.182,5.181A5.188,5.188,0,0,1,1272.025,879.15Zm-5.534,9.353a6.963,6.963,0,0,0,1.978,1.778l-6.046,7.74a5.915,5.915,0,0,0-.751-.408Z" fill="#303030"/>
        <path id="Path_205" data-name="Path 205" d="M1343.912,958.555a4,4,0,0,1,3.272-.934c5.409.877,9.085,3.743,13.108,10.225l1.642,2.644v-3.113c0-16.351-11.22-19.783-20.632-19.783l-16.176,0-.024.863c-.008.3-.271,6.9-5.971,7.536v-4.17H1310.5v17.49h8.629v-4.721c6.176.154,12.417,1.907,12.418,5.04l-1.224,65.453h13.09l-1.226-65.458v-7.246A5.06,5.06,0,0,1,1343.912,958.555Zm-26.556,8.985h-5.078V953.6h5.078Zm1.775-4.722v-5.032c5.41-.476,7.336-5.245,7.687-8.417H1341.3c11.355,0,17.63,4.991,18.694,14.846-3.674-5.048-7.454-7.524-12.528-8.346a5.739,5.739,0,0,0-4.706,1.333,6.86,6.86,0,0,0-2.348,5.181v6.364h-7.189C1332.293,964.336,1324.447,962.954,1319.131,962.818Zm13,70.494,1.174-62.79h7.123l1.175,62.79Z" fill="#303030"/>
        <path id="Path_206" data-name="Path 206" d="M1321.627,850.463v3.654l.329.267a11.665,11.665,0,0,1,2.99,3.159c.578,3.443.157,8.27-.25,12.938-.265,3.054-.54,6.212-.54,9.01,0,10.7,7.791,15.032,11.04,15.032h0a2.3,2.3,0,0,0,1.9-.749,1.8,1.8,0,0,0,.335-1.565c-4.9-23.49-1.439-40.507-1.4-40.675l.225-1.071h-2.107l1.8-4.433h6.974l1.805,4.433h-2.108l.226,1.071c.036.168,3.5,17.157-1.4,40.675a1.8,1.8,0,0,0,.333,1.565,2.3,2.3,0,0,0,1.9.749c3.249,0,11.04-4.325,11.04-15.032,0-2.8-.275-5.959-.542-9.014-.407-4.667-.827-9.493-.25-12.931a11.677,11.677,0,0,1,2.994-3.162l.328-.267v-3.654h-4.228l-5.138-10.376,3.814-5.846-7.535-22.48h-9.446l-7.536,22.48,3.815,5.845-5.139,10.377Zm12.471,1.775c-.675,4.135-2.681,19.839,1.625,40.411a.982.982,0,0,1-.526.1h0c-2.636,0-9.265-3.945-9.265-13.257,0-2.72.272-5.84.535-8.856.416-4.779.846-9.721.23-13.386-.208-1.238-2.17-3.034-3.294-3.975v-1.036h10.7Zm21.374,0v1.036c-1.125.941-3.088,2.737-3.3,3.975-.615,3.665-.184,8.6.232,13.382.262,3.018.535,6.139.535,8.86,0,9.313-6.628,13.257-9.265,13.257-.339,0-.5-.074-.494-.176,4.278-20.506,2.269-36.2,1.593-40.334h10.7Zm-5.734-18.248-2.914,4.468a7.956,7.956,0,0,0-6.5-2.7v-3.638a4.389,4.389,0,0,0,0-8.6v-9.984h2.557Zm-10.3-8.784a2.613,2.613,0,1,1-2.615,2.613A2.615,2.615,0,0,1,1339.437,825.206Zm-3.445-11.669h2.558v9.984a4.388,4.388,0,0,0,0,8.6v5.759l1.084-.245a6.222,6.222,0,0,1,6.454,2.835l4.951,10h-4.392l-2.529-6.208h-8.284l-6.7-10.265Zm-3.873,28.275,2.237,3.426-2.128,5.225h-4.392Z" fill="#303030"/>
        <path id="Path_207" data-name="Path 207" d="M1260.319,960.1a8.39,8.39,0,1,0,8.387,8.39A8.4,8.4,0,0,0,1260.319,960.1Zm0,15.005a6.615,6.615,0,1,1,6.612-6.615A6.623,6.623,0,0,1,1260.319,975.109Z" fill="#303030"/>
        <path id="Path_208" data-name="Path 208" d="M1260.319,950.689a17.8,17.8,0,1,0,17.8,17.8A17.825,17.825,0,0,0,1260.319,950.689Zm0,33.831a16.028,16.028,0,1,1,16.026-16.026A16.047,16.047,0,0,1,1260.319,984.52Z" fill="#303030"/>
        <path id="Path_209" data-name="Path 209" d="M1290.424,971.847l5.244,2.353-3.332-9.51-4.756-1.665-.172-.579,2.035-2.234,5.745.162-6.719-7.506-5.031.281-.378-.468,1.024-2.846,5.374-2.045-9.084-4.366-4.541,2.185-.53-.287-.139-3.021,4.178-3.947-10.061-.557-3.373,3.775c-.165-.013-.371-.032-.6-.06l-1.274-2.753,2.353-5.254-9.509,3.34-1.648,4.7c-.209.041-.458.092-.689.141l-2.141-1.953.162-5.746-7.507,6.72.269,4.823q-.365.24-.724.492l-2.576-.929-2.049-5.372-4.365,9.078,2.045,4.249q-.286.417-.557.843l-2.61.121-3.946-4.177-.559,10.059,3.464,3.1c-.072.351-.139.705-.2,1.061l-2.309,1.087-5.246-2.353,3.337,9.512,4.383,1.533q.105.533.226,1.058l-1.719,1.885-5.746-.164,6.721,7.509,4.7-.265q.279.416.572.817l-.893,2.477-5.369,2.049,9.078,4.365,4.349-2.095c.242.158.488.311.734.46l.13,2.757-4.177,3.947,10.058.559,3.32-3.714q.339.06.68.112l1.245,2.645-2.355,5.245,9.513-3.336,1.663-4.756.577-.171,2.237,2.037L1268.8,1003l7.509-6.72-.283-5.031.467-.378,2.846,1.024,2.046,5.374,4.367-9.082-2.186-4.543.288-.53,3.02-.139,3.947,4.179.559-10.06-3.758-3.359.062-.6Zm-.862,6-.283,5.084-1.671-1.77-4.835.224-1.2,2.208,2.209,4.592-2.207,4.59-.867-2.276-4.554-1.638-1.953,1.577.286,5.087-3.8,3.4.07-2.433-3.579-3.258-2.409.712-1.681,4.809-4.806,1.684,1-2.219-2-4.249-.474-.067c-.523-.073-1.044-.156-1.556-.26l-.5-.1-3.424,3.832-5.084-.283,1.77-1.672-.213-4.53-.416-.243c-.5-.294-1-.6-1.477-.927l-.424-.289-4.5,2.166-4.59-2.207,2.275-.868,1.495-4.147-.293-.384c-.376-.495-.731-1.006-1.072-1.53l-.28-.431-4.875.273-3.4-3.8,2.432.07,2.909-3.189-.118-.464c-.16-.63-.293-1.268-.409-1.912l-.09-.51-4.553-1.593-1.685-4.807,2.22,1,3.906-1.838.069-.472c.094-.649.216-1.285.357-1.916l.114-.509-3.6-3.218.283-5.084,1.67,1.768,4.364-.2.245-.405c.326-.538.675-1.057,1.04-1.571l.3-.427-2.128-4.419,2.207-4.589.868,2.277,4.223,1.521.38-.276q.71-.514,1.455-.984l.443-.279-.281-5.009,3.8-3.4-.07,2.433,3.43,3.128.456-.108c.531-.125,1.576-.324,1.579-.325l.5-.1,1.7-4.859,4.8-1.688-.994,2.221,2.012,4.353.465.076a14.651,14.651,0,0,0,1.692.172l.415.013,3.366-3.767,5.085.281-1.769,1.671.223,4.837,2.21,1.2,4.589-2.208,4.59,2.206-2.274.866-1.64,4.555,1.579,1.951,5.087-.284,3.4,3.8-2.433-.07-3.258,3.576.714,2.411,4.807,1.683,1.684,4.8-2.22-1-4.381,2.061-.262,2.5Z" fill="#303030"/>
        <rect id="Rectangle_188" data-name="Rectangle 188" width="1.776" height="8.551" transform="matrix(0.801, -0.598, 0.598, 0.801, 1296.891, 972.623)" fill="#303030"/>
        <rect id="Rectangle_189" data-name="Rectangle 189" width="1.777" height="7.739" transform="translate(1293.764 977.135) rotate(-27.751)" fill="#303030"/>
        <rect id="Rectangle_190" data-name="Rectangle 190" width="1.776" height="8.086" transform="translate(1292.346 982.821) rotate(-13.168)" fill="#303030"/>
        <rect id="Rectangle_191" data-name="Rectangle 191" width="1.776" height="8.423" transform="translate(1295.98 965.11) rotate(-49.014)" fill="#303030"/>
        <rect id="Rectangle_192" data-name="Rectangle 192" width="1.776" height="8.934" transform="translate(1293.226 955.592) rotate(-60.182)" fill="#303030"/>
        <rect id="Rectangle_193" data-name="Rectangle 193" width="1.775" height="7.093" transform="matrix(0.39, -0.921, 0.921, 0.39, 1300.147, 963.693)" fill="#303030"/>
        <path id="Path_210" data-name="Path 210" d="M1450.585,954.731h6.751v-7.813h-26.03v7.813h6.751V970.4l12.528-7.232Zm-17.5-6.037h10.353v2.547h1.775v-2.547h10.352v4.262h-22.48Zm6.752,18.632V954.731h8.977v7.412Z" fill="#303030"/>
        <rect id="Rectangle_194" data-name="Rectangle 194" width="12.414" height="1.775" transform="translate(1438.501 972.252) rotate(-29.986)" fill="#303030"/>
        <rect id="Rectangle_195" data-name="Rectangle 195" width="12.415" height="1.775" transform="translate(1438.501 976.633) rotate(-29.993)" fill="#303030"/>
        <rect id="Rectangle_196" data-name="Rectangle 196" width="12.416" height="1.776" transform="translate(1438.501 981.329) rotate(-29.999)" fill="#303030"/>
        <path id="Path_211" data-name="Path 211" d="M1438.057,990.27l6.263,8.007,6.265-8.007V979.051l-12.528,7.231Zm1.776-2.962,8.977-5.182v7.532l-4.49,5.737-4.487-5.737Z" fill="#303030"/>
        <path id="Path_212" data-name="Path 212" d="M1321.081,989.95h6.751v-7.813H1301.8v7.813h6.751v15.67l12.528-7.233Zm-17.5-6.038h10.352v2.548h1.775v-2.548h10.352v4.263h-22.479Zm6.751,18.633V989.95h8.977v7.412Z" fill="#303030"/>
        <rect id="Rectangle_197" data-name="Rectangle 197" width="12.416" height="1.775" transform="translate(1308.996 1007.47) rotate(-29.99)" fill="#303030"/>
        <rect id="Rectangle_198" data-name="Rectangle 198" width="12.416" height="1.776" transform="translate(1308.996 1011.851) rotate(-29.999)" fill="#303030"/>
        <rect id="Rectangle_199" data-name="Rectangle 199" width="12.416" height="1.776" transform="translate(1308.996 1016.548) rotate(-29.999)" fill="#303030"/>
        <path id="Path_213" data-name="Path 213" d="M1308.553,1025.489l6.263,8.005,6.265-8.005v-11.221l-12.528,7.233Zm1.775-2.963,8.977-5.183v7.533l-4.489,5.736-4.488-5.736Z" fill="#303030"/>
        <path id="Path_214" data-name="Path 214" d="M1360.932,812.777c-1.623,0-2.894,1.65-2.894,3.756V828.74h-3.4v11.308c0,5.905,4.8,10.247,11.53,10.6v5.015h1.776v-5.015c6.73-.354,11.53-4.7,11.53-10.6V828.74h-3.405V816.533c0-2.106-1.271-3.756-2.893-3.756s-2.9,1.65-2.9,3.756V828.74h-6.447V816.533C1363.828,814.427,1362.557,812.777,1360.932,812.777Zm-1.118,3.756c0-1.134.59-1.981,1.118-1.981s1.121.847,1.121,1.981V828.74h-2.239Zm17.88,23.515c0,5.134-4.477,8.861-10.643,8.861s-10.643-3.727-10.643-8.861v-5.8h21.286Zm-5.643-23.515c0-1.134.592-1.981,1.12-1.981s1.117.847,1.117,1.981V828.74h-2.237Zm-1.776,13.982h7.419v1.954h-21.286v-1.954h13.867Z" fill="#303030"/>
        <path id="Path_215" data-name="Path 215" d="M1301.942,879.706V866.379l-11.541-6.66-11.54,6.66v13.327l11.54,6.663Zm-21.306-12.3,9.765-5.636,9.766,5.636v11.276l-9.766,5.637-9.765-5.637Z" fill="#303030"/>
        <path id="Path_216" data-name="Path 216" d="M1297.176,873.042a6.775,6.775,0,1,0-6.775,6.775A6.781,6.781,0,0,0,1297.176,873.042Zm-11.774,0a5,5,0,1,1,5,5A5,5,0,0,1,1285.4,873.042Z" fill="#303030"/>
        <path id="Path_217" data-name="Path 217" d="M1378.765,950.16a8.785,8.785,0,1,0,8.783,8.785A8.795,8.795,0,0,0,1378.765,950.16Zm0,15.8a7.01,7.01,0,1,1,7.008-7.01A7.017,7.017,0,0,1,1378.765,965.955Z" fill="#303030"/>
        <path id="Path_218" data-name="Path 218" d="M1394.362,956.3l-3.951-1.3-.623-1.5,1.871-3.714-3.735-3.737-3.715,1.873-1.5-.622-1.308-3.948h-5.279l-1.307,3.948-1.5.622-3.716-1.873-3.735,3.737,1.871,3.714-.623,1.5-3.947,1.3v5.28l3.947,1.3.623,1.5-1.871,3.716,3.735,3.735,3.715-1.873,1.5.624,1.308,3.948h5.278l1.308-3.948,1.5-.624,3.716,1.873,3.733-3.737-1.871-3.714.623-1.5,3.951-1.3Zm-1.776,4-3.5,1.158-1.246,3,1.66,3.3-1.918,1.92-3.3-1.661-3,1.249-1.159,3.5h-2.715l-1.159-3.5-3-1.249-3.3,1.661-1.919-1.919,1.66-3.3-1.246-3-3.5-1.158v-2.714l3.5-1.158,1.246-3-1.66-3.3,1.92-1.92,3.3,1.661,3-1.244,1.16-3.5h2.713l1.16,3.5,3,1.244,3.294-1.661,1.92,1.92-1.66,3.3,1.246,3,3.5,1.158Z" fill="#303030"/>
        <path id="Path_219" data-name="Path 219" d="M1383.225,980.037a6.144,6.144,0,0,0-1.375-.157,6.093,6.093,0,0,0-1.37,12.028,6.151,6.151,0,0,0,1.375.157,6.092,6.092,0,0,0,1.37-12.028Zm2.831,6.908A4.314,4.314,0,1,1,1377.65,985a4.292,4.292,0,0,1,4.2-3.345,4.361,4.361,0,0,1,.976.112,4.313,4.313,0,0,1,3.23,5.177Z" fill="#303030"/>
        <path id="Path_220" data-name="Path 220" d="M1391.721,990.265l.882-3.82-2.41-1.462-.131-.785,1.8-2.167-2.077-3.326-2.74.669-.646-.461-.257-2.809-3.819-.881-1.466,2.41-.78.129-2.172-1.8-3.323,2.075.669,2.741-.461.646-2.81.256-.88,3.821,2.41,1.464.13.781-1.805,2.17,2.078,3.323,2.741-.669.643.461.26,2.808,3.818.885,1.464-2.412.783-.131,2.169,1.8,3.326-2.076-.671-2.741.461-.645Zm-3.782-1.437-1.4,1.971.558,2.283-1.147.715-1.807-1.5-2.388.4-1.221,2.01-1.318-.3-.216-2.341-1.966-1.405-2.286.556-.716-1.145,1.5-1.807-.4-2.387-2.009-1.221.3-1.318,2.34-.213,1.407-1.97-.556-2.285,1.146-.716,1.808,1.5,2.384-.4,1.223-2.01,1.317.3.215,2.34,1.97,1.406,2.284-.557.717,1.147-1.505,1.8.4,2.39,2.009,1.22-.3,1.316Z" fill="#303030"/>
        <path id="Path_221" data-name="Path 221" d="M1368.627,989.251V975.924l-11.541-6.662-11.539,6.662v13.327l11.539,6.663Zm-21.3-12.3,9.764-5.637,9.766,5.637v11.276l-9.766,5.637-9.764-5.637Z" fill="#303030"/>
        <path id="Path_222" data-name="Path 222" d="M1363.861,982.587a6.774,6.774,0,1,0-6.775,6.773A6.781,6.781,0,0,0,1363.861,982.587Zm-11.773,0a5,5,0,1,1,5,5A5,5,0,0,1,1352.088,982.587Z" fill="#303030"/>
        <path id="Path_223" data-name="Path 223" d="M1557.35,838.585a8.784,8.784,0,1,0-8.786-8.784A8.795,8.795,0,0,0,1557.35,838.585Zm0-15.793a7.009,7.009,0,1,1-7.009,7.009A7.017,7.017,0,0,1,1557.35,822.792Z" fill="#303030"/>
        <path id="Path_224" data-name="Path 224" d="M1545.7,825.854l-3.947,1.309v5.278l3.947,1.306.622,1.5-1.869,3.714,3.735,3.735,3.714-1.871,1.5.623,1.306,3.947h5.278l1.308-3.947,1.5-.623,3.714,1.871,3.733-3.736-1.87-3.713.623-1.5,3.952-1.306v-5.279L1569,825.854l-.623-1.5,1.87-3.713-3.734-3.738-3.713,1.873-1.5-.623-1.308-3.949h-5.278l-1.306,3.949-1.5.623-3.714-1.872-3.735,3.736,1.869,3.714Zm2.835-6.787,3.3,1.661,3-1.246,1.157-3.5h2.715l1.16,3.5,3,1.246,3.293-1.66,1.917,1.92-1.658,3.3,1.247,3,3.5,1.16v2.713l-3.5,1.159-1.247,3,1.658,3.295-1.915,1.919-3.295-1.659-3,1.246-1.16,3.5h-2.715l-1.157-3.5-3-1.246-3.3,1.659-1.919-1.92,1.658-3.294-1.247-3-3.5-1.159v-2.714l3.5-1.159,1.247-3-1.658-3.294Z" fill="#303030"/>
        <path id="Path_225" data-name="Path 225" d="M1350.935,904.978a7.278,7.278,0,1,0,7.273,7.279A7.287,7.287,0,0,0,1350.935,904.978Zm5.408,6.391h-4.521v-4.525A5.487,5.487,0,0,1,1356.343,911.369Zm-6.3-4.525v4.525h-4.524A5.487,5.487,0,0,1,1350.047,906.844Zm-4.524,6.3h4.524v4.524A5.488,5.488,0,0,1,1345.523,913.145Zm6.3,4.524v-4.524h4.521A5.487,5.487,0,0,1,1351.822,917.669Z" fill="#303030"/>
        <path id="Path_226" data-name="Path 226" d="M1315.173,858.933a7.277,7.277,0,1,0,7.275,7.277A7.286,7.286,0,0,0,1315.173,858.933Zm5.41,6.389h-4.522V860.8A5.488,5.488,0,0,1,1320.583,865.322Zm-6.3-4.524v4.524h-4.525A5.489,5.489,0,0,1,1314.286,860.8Zm-4.525,6.3h4.525v4.524A5.489,5.489,0,0,1,1309.761,867.1Zm6.3,4.524V867.1h4.522A5.488,5.488,0,0,1,1316.061,871.622Z" fill="#303030"/>
        <path id="Path_227" data-name="Path 227" d="M1647.591,836.746v61.94h-1.07V933.3h6.6v-5.711h18.394V933.3h6.595V912.782l-8.214-8.573h8.214v-6.284l-4.473-4.9,1.973-5.043-4.449-5.054,1.977-5.053-4.447-5.054,1.975-5.053-4.449-5.052,1.978-5.051-4.449-5.055,1.979-5.052-4.524-5.138,1.016-5.676Zm28.739,94.783h-3.042v-5.711H1651.34v5.711H1648.3V900.462h15.925l2.951,3.474,9.156,9.56Zm-12.657-83.609-1.978,5.052,4.448,5.055-1.978,5.053,4.449,5.051-1.975,5.054,4.447,5.052-1.977,5.055,4.45,5.052-1.984,5.064,4.755,5.206v3.819h-8.1l-3.181-3.747h-15.677V838.521h10.725l-.8,4.431Z" fill="#303030"/>
        <path id="Path_228" data-name="Path 228" d="M1650.782,923.131h23.064V913.5h-23.064Zm1.777-7.854h19.51v6.079h-19.51Z" fill="#303030"/>
        <rect id="Rectangle_200" data-name="Rectangle 200" width="3.159" height="1.775" transform="translate(1652.247 843.53)" fill="#303030"/>
        <path id="Path_229" data-name="Path 229" d="M1563.336,891.594H1624.4l-30.528-52.879Zm3.075-1.776,27.456-47.552,27.453,47.552Z" fill="#303030"/>
        <path id="Path_230" data-name="Path 230" d="M1572.32,886.408h43.09l-21.543-37.318Zm3.075-1.775,18.472-31.993,18.468,31.993Z" fill="#303030"/>
        <path id="Path_231" data-name="Path 231" d="M1591.46,875.613h4.809l1.269-13.343h-7.348Zm4.126-11.567-.932,9.791h-1.579l-.932-9.791Z" fill="#303030"/>
        <path id="Path_232" data-name="Path 232" d="M1591.237,882.018h5.255v-5.251h-5.255Zm1.777-3.476h1.7v1.7h-1.7Z" fill="#303030"/>
        <path id="Path_233" data-name="Path 233" d="M1653.5,989.441l1.76-1.014-7.641-13.233.717-.715-13.162-13.162-.717.718-13.23-7.64-.974,1.687-15.192-4.072-.621,2.315h-16.664v67.551h67.552v-18.61h-3.384l5.56-1.862Zm-2.813-5.381-51.26,17.16,45.875-26.485Zm-6.191-10.909-44.105,25.462,34.783-34.784Zm-22.618-16.33,11.278,6.514-35.591,35.593Zm-2.545.853-25.985,45.005-.03.018,13-48.512Zm-29.78-1.574h14.412l-12.637,47.166h-1.775Zm64,64h-64v-15.059h64Zm-54.638-16.834L1650.48,986l4.781,14.281-8.91,2.982Z" fill="#303030"/>
        <path id="Path_234" data-name="Path 234" d="M1595,1016.117a3.547,3.547,0,1,0-3.547-3.546A3.551,3.551,0,0,0,1595,1016.117Zm0-5.319a1.772,1.772,0,1,1-1.77,1.773A1.773,1.773,0,0,1,1595,1010.8Z" fill="#303030"/>
        <path id="Path_235" data-name="Path 235" d="M1741.327,806.582h-78.46v13.493h78.46ZM1739.55,818.3h-12.409V813.43h-1.777V818.3h-4.953v-2.4h-1.776v2.4h-4.96V813.43H1711.9V818.3h-4.954v-2.4h-1.777v2.4h-4.957V813.43h-1.777V818.3h-4.955v-2.4H1691.7v2.4h-4.957V813.43h-1.777V818.3h-4.955v-2.4h-1.777v2.4h-4.957V813.43H1671.5V818.3h-6.857v-9.941h74.906Z" fill="#303030"/>
        <path id="Path_236" data-name="Path 236" d="M1735.095,815.45a3.047,3.047,0,1,0-3.049-3.049A3.051,3.051,0,0,0,1735.095,815.45Zm0-4.318a1.271,1.271,0,1,1-1.272,1.269A1.27,1.27,0,0,1,1735.095,811.132Z" fill="#303030"/>
        <path id="Path_237" data-name="Path 237" d="M1578.1,1074.782a4.784,4.784,0,1,0,4.784-4.784A4.792,4.792,0,0,0,1578.1,1074.782Zm7.791,0a3.008,3.008,0,1,1-3.007-3.007A3.013,3.013,0,0,1,1585.89,1074.782Z" fill="#303030"/>
        <path id="Path_238" data-name="Path 238" d="M1588.331,1031.74a6.235,6.235,0,0,1-2.565-1.185c-.11-.11-.246-.255-.4-.423-1.087-1.172-3.111-3.355-5.409-3.355-1.62,0-2.715-.234-4.738-4.834a6.234,6.234,0,0,0-5.4-3.506,10.892,10.892,0,0,0-9.656,4.284c-.769,1.117-1.934,2.47-3.164,3.9-3.078,3.577-6.5,7.593-7,11.27h-8.239c-1.6-5.242-3.08-10.065-4.191-13.707-1.693-5.55-5.153-6.949-7.065-7.288a9.262,9.262,0,0,0-8.641,3.465,6.146,6.146,0,0,0-.807,6.552l1.6-.775a4.429,4.429,0,0,1,.626-4.706,7.388,7.388,0,0,1,6.913-2.788c1.846.329,4.33,1.646,5.678,6.058,4.743,15.539,16.06,52.458,16.06,52.457.968,3.511,4.092,8.288,7.489,8.288.047,0,.093,0,.139,0,2.765-.106,4.746-3.153,5.893-9.051,1.6-8.246,3.213-10.5,7.489-10.5H1577a10.673,10.673,0,1,0,10.472-.725c14.572-4.267,15.152-26.124,15.157-26.368l.015-.9h-9.111C1593.434,1033.314,1590.5,1032.4,1588.331,1031.74Zm-29.982-3.959c1.263-1.469,2.456-2.856,3.281-4.051a9.116,9.116,0,0,1,8.025-3.526,4.58,4.58,0,0,1,3.938,2.455c1.987,4.516,3.473,5.893,6.363,5.893,1.523,0,3.2,1.814,4.108,2.787.173.187.322.348.445.471a7.538,7.538,0,0,0,3.3,1.628c2.162.657,3.866,1.2,3.945,4.456H1551.8C1552.359,1034.775,1555.639,1030.931,1558.349,1027.781Zm5.365,48.276c-.939,4.842-2.437,7.547-4.216,7.616-.024,0-.049,0-.072,0-2.175,0-4.877-3.722-5.784-7.01,0,0-1.344-4.388-3.3-10.773h17.41C1565.51,1067.929,1564.588,1071.567,1563.714,1076.057Zm28.06-1.275a8.891,8.891,0,1,1-8.891-8.89A8.9,8.9,0,0,1,1591.774,1074.782Zm-9.537-10.667H1549.8c-2.175-7.1-4.956-16.177-7.486-24.444h58.5C1600.5,1044.193,1598.238,1064.115,1582.237,1064.115Z" fill="#303030"/>
        <path id="Path_239" data-name="Path 239" d="M1634.291,950.3c5.353,0,9.71-3.839,9.71-8.557,0-4.047-3.212-7.44-7.507-8.323V906.712h-12.566V893.943H1610.4l-16.707,16.706v13.356h-6.8v9.411c-4.3.881-7.511,4.275-7.511,8.324,0,4.718,4.357,8.557,9.709,8.557Zm-38.822-38.913,15.667-15.665h11.015v28.286h-26.682Zm-6.8,14.4h35.257V908.488h10.789v24.718c-.142-.006-.283-.019-.426-.019h-45.2c-.142,0-.281.013-.421.019Zm-7.511,15.96c0-3.452,3.047-6.278,6.958-6.694h47.147c3.912.416,6.959,3.242,6.959,6.694,0,3.74-3.559,6.782-7.933,6.782h-45.2C1584.717,948.522,1581.16,945.48,1581.16,941.74Z" fill="#303030"/>
        <path id="Path_240" data-name="Path 240" d="M1594.025,941.74a4.014,4.014,0,1,0-4.016,4.014A4.018,4.018,0,0,0,1594.025,941.74Zm-6.251,0a2.237,2.237,0,1,1,2.235,2.239A2.238,2.238,0,0,1,1587.774,941.74Z" fill="#303030"/>
        <path id="Path_241" data-name="Path 241" d="M1604.466,945.754a4.012,4.012,0,1,0-4.012-4.014A4.018,4.018,0,0,0,1604.466,945.754Zm0-6.249a2.237,2.237,0,1,1-2.235,2.235A2.237,2.237,0,0,1,1604.466,939.505Z" fill="#303030"/>
        <path id="Path_242" data-name="Path 242" d="M1618.922,945.754a4.012,4.012,0,1,0-4.014-4.014A4.017,4.017,0,0,0,1618.922,945.754Zm0-6.249a2.237,2.237,0,1,1-2.238,2.235A2.236,2.236,0,0,1,1618.922,939.505Z" fill="#303030"/>
        <path id="Path_243" data-name="Path 243" d="M1633.376,945.754a4.012,4.012,0,1,0-4.013-4.014A4.016,4.016,0,0,0,1633.376,945.754Zm0-6.249a2.237,2.237,0,1,1-2.236,2.235A2.235,2.235,0,0,1,1633.376,939.505Z" fill="#303030"/>
        <path id="Path_244" data-name="Path 244" d="M1598.583,912.25h10.224l10.056-6.277v-7.491h-6.512Zm18.5-11.993v4.732l-8.787,5.485h-5.429l10.218-10.217Z" fill="#303030"/>
        <path id="Path_245" data-name="Path 245" d="M1576.893,897.989l-1.755,7.98c-5.115,23.258-8.932,32.961-28.9,42.642l-3.478,1.686h34.132Zm-1.777,50.533h-24.79c15.582-8.356,20.529-17.552,24.79-34.62Z" fill="#303030"/>
        <path id="Path_246" data-name="Path 246" d="M1575.316,1007.37h10.617v-8.92h-2.074v-21.6L1571.432,958.3H1558.24v-6.1h-15.213l-8.629,12.884h-52.261V980.16l13.17,19.671h0l5.05,7.539h7.775a11.087,11.087,0,0,0,20.306,0h26.572a11.087,11.087,0,0,0,20.306,0Zm8.84-1.776h-8.239a10.676,10.676,0,0,0,0-5.369h8.241Zm-2.074-28.2V998.45h-6.768a11.085,11.085,0,0,0-20.3,0h-6.2V960.074h21.675Zm-48.873-10.537-2.253,3.364h-47.042v-3.364Zm-49.3,5.139h47.991l12.071-18.024h12.487V958.3h-9.431V998.45h-12.616l10.249-15.3-1.476-.987-10.911,16.292h-3.842a11.132,11.132,0,0,0-2.221-3.284l8.049-12.021-1.476-.987L1524.861,994a11.023,11.023,0,0,0-6.574-2.178c-.081,0-.161.011-.242.012l5.815-8.685-1.476-.987-6.68,9.975a11.133,11.133,0,0,0-7.57,6.317h-4.923l10.248-15.3-1.476-.987-10.909,16.292h-4.555l-12.605-18.83Zm17.391,33.6-3.6-5.369h9.825a10.676,10.676,0,0,0,0,5.369Zm16.982,6.634a9.318,9.318,0,1,1,9.317-9.317A9.33,9.33,0,0,1,1518.287,1012.228Zm10.752-6.634a10.676,10.676,0,0,0,0-5.369h25.373a10.691,10.691,0,0,0,0,5.369Zm26.805-2.683a9.319,9.319,0,1,1,9.317,9.317A9.329,9.329,0,0,1,1555.844,1002.911Z" fill="#303030"/>
        <path id="Path_247" data-name="Path 247" d="M1571.658,1002.911a6.495,6.495,0,1,0-6.5,6.491A6.5,6.5,0,0,0,1571.658,1002.911Zm-11.213,0a4.718,4.718,0,1,1,4.716,4.716A4.723,4.723,0,0,1,1560.445,1002.911Z" fill="#303030"/>
        <path id="Path_248" data-name="Path 248" d="M1518.287,996.415a6.493,6.493,0,1,0,6.493,6.5A6.5,6.5,0,0,0,1518.287,996.415Zm0,11.212a4.718,4.718,0,1,1,4.716-4.716A4.721,4.721,0,0,1,1518.287,1007.627Z" fill="#303030"/>
        <path id="Path_249" data-name="Path 249" d="M1568.925,962.995h-17.2v13.942l26.541.007Zm-15.42,1.775h14.472l6.961,10.4-21.433-.006Z" fill="#303030"/>
        <path id="Path_250" data-name="Path 250" d="M1741.208,831.6l-.738-.282a59.019,59.019,0,0,0-18.623-3.551,56.03,56.03,0,0,0-18.639,3.554l-.721.289,2.416,9.5c-12.421,6.119-20.914,18.8-23.441,35h-5.294v15.782h9.752c3.022,27.6,18.043,47.549,35.927,47.549s32.9-19.95,35.923-47.549h9.752V876.1h-5.294c-2.527-16.2-11.02-28.875-23.439-35Zm-19.361,106.06c-16.644,0-31.2-19.611-34.141-45.774h68.278C1753.049,918.046,1738.49,937.657,1721.847,937.657Zm43.9-47.55h-87.8v-12.23h87.8Zm-5.317-14.006h-77.166c2.466-15.337,10.451-27.344,22.088-33.231l5.731,22.53,1.721-.438L1704.6,832.7a55.02,55.02,0,0,1,17.251-3.157,57.584,57.584,0,0,1,17.246,3.169l-8.206,32.259,1.721.438,5.733-22.537C1749.979,848.758,1757.964,860.766,1760.428,876.1Z" fill="#303030"/>
        <path id="Path_251" data-name="Path 251" d="M1436.724,890.986h-9.783V904.96h9.783Zm-1.775,12.2h-6.232V892.761h6.232Z" fill="#303030"/>
        <path id="Path_252" data-name="Path 252" d="M1454.935,913.475h-9.783V927.45h9.783Zm-1.775,12.2h-6.233V915.25h6.233Z" fill="#303030"/>
        <path id="Path_253" data-name="Path 253" d="M1454.935,890.986h-9.783V904.96h9.783Zm-1.775,12.2h-6.233V892.761h6.233Z" fill="#303030"/>
        <path id="Path_254" data-name="Path 254" d="M1454.935,868.5h-9.783v13.978h9.783Zm-1.775,12.2h-6.233V870.272h6.233Z" fill="#303030"/>
        <path id="Path_255" data-name="Path 255" d="M1454.935,846.007h-9.783v13.975h9.783Zm-1.775,12.2h-6.233V847.782h6.233Z" fill="#303030"/>
        <path id="Path_256" data-name="Path 256" d="M1436.724,846.007h-9.783v13.975h9.783Zm-1.775,12.2h-6.232V847.782h6.232Z" fill="#303030"/>
        <path id="Path_257" data-name="Path 257" d="M1418.516,913.475h-9.785V927.45h9.785Zm-1.776,12.2h-6.234V915.25h6.234Z" fill="#303030"/>
        <path id="Path_258" data-name="Path 258" d="M1418.516,890.986h-9.785V904.96h9.785Zm-1.776,12.2h-6.234V892.761h6.234Z" fill="#303030"/>
        <path id="Path_259" data-name="Path 259" d="M1418.516,868.5h-9.785v13.978h9.785Zm-1.776,12.2h-6.234V870.272h6.234Z" fill="#303030"/>
        <path id="Path_260" data-name="Path 260" d="M1436.724,868.5h-9.783v13.978h9.783Zm-1.775,12.2h-6.232V870.272h6.232Z" fill="#303030"/>
        <path id="Path_261" data-name="Path 261" d="M1418.516,846.007h-9.785v13.975h9.785Zm-1.776,12.2h-6.234V847.782h6.234Z" fill="#303030"/>
        <rect id="Rectangle_201" data-name="Rectangle 201" width="1.775" height="3.86" transform="translate(1428.471 927.383)" fill="#303030"/>
        <path id="Path_262" data-name="Path 262" d="M1394.3,890.986h-9.785V904.96h9.785Zm-1.775,12.2h-6.235V892.761h6.235Z" fill="#303030"/>
        <path id="Path_263" data-name="Path 263" d="M1366.3,927.45h9.785V913.475H1366.3Zm1.775-12.2h6.234v10.424h-6.234Z" fill="#303030"/>
        <path id="Path_264" data-name="Path 264" d="M1366.3,904.96h9.785V890.986H1366.3Zm1.775-12.2h6.234v10.424h-6.234Z" fill="#303030"/>
        <path id="Path_265" data-name="Path 265" d="M1366.3,882.474h9.785V868.5H1366.3Zm1.775-12.2h6.234V880.7h-6.234Z" fill="#303030"/>
        <path id="Path_266" data-name="Path 266" d="M1394.3,868.5h-9.785v13.978h9.785Zm-1.775,12.2h-6.235V870.272h6.235Z" fill="#303030"/>
        <rect id="Rectangle_202" data-name="Rectangle 202" width="1.775" height="3.86" transform="translate(1385.921 927.383)" fill="#303030"/>
        <path id="Path_267" data-name="Path 267" d="M1401.96,942.038h66.247v-1.775h-6.5V835.522H1401.96v22.493h-42.426v82.248h-6.5v1.775h48.928Zm24.086-1.775V915.25h11.574v25.013ZM1403.735,837.3h56.2V940.263H1439.4V913.475h-15.124v26.788h-20.536V837.3ZM1361.31,940.263V859.79h40.65v80.473h-4.994V913.475h-15.124v26.788Zm22.307,0V915.25h11.574v25.013Z" fill="#303030"/>
        <path id="Path_268" data-name="Path 268" d="M1767.641,960.1a8.39,8.39,0,1,0,8.389,8.39A8.4,8.4,0,0,0,1767.641,960.1Zm0,15.005a6.615,6.615,0,1,1,6.612-6.615A6.622,6.622,0,0,1,1767.641,975.109Z" fill="#303030"/>
        <path id="Path_269" data-name="Path 269" d="M1767.641,950.689a17.8,17.8,0,1,0,17.8,17.8A17.826,17.826,0,0,0,1767.641,950.689Zm0,33.831a16.028,16.028,0,1,1,16.026-16.026A16.046,16.046,0,0,1,1767.641,984.52Z" fill="#303030"/>
        <path id="Path_270" data-name="Path 270" d="M1491.855,955.669h40.588v-1.775h-10.469l-13.911-13.911V883.516h48.73v27.606l-7.215,7.217v9.586h16.207v-9.586l-7.215-7.217V883.516h8.471l-15.947-15.945-50.626-21.765-.509-.509-.552.551L1462.994,867.7v37.467H1479.2V883.516h12.653v56.467l-13.91,13.911h-10.467v1.775h24.377Zm65.827-42.924,5.071,5.073H1552.61Zm-6.327,13.405v-6.556h12.653v6.556Zm-57.723,1.913,5.072,5.072-5.072,5.071Zm11.4-75.183h-10.144l5.072-5.071Zm0,88.357-5.073,5.074-5.073-5.074Zm-10.146-1.775,5.073-5.072,5.073,5.072Zm11.4,3.031v10.145l-5.072-5.072Zm-1.254,11.4h-10.146l5.073-5.073Zm3.031-11.4,5.071,5.073-5.071,5.072Zm-6.849-9.358,5.072-5.072v10.143Zm3.818-6.328-5.073,5.073-5.073-5.073Zm-10.146-1.775,5.073-5.073,5.073,5.073Zm6.328-6.328,5.072-5.071v10.143Zm3.818-6.327-5.073,5.072-5.073-5.072Zm-10.146-1.775,5.073-5.073,5.073,5.073Zm6.328-6.328,5.072-5.071v10.143Zm3.818-6.327-5.073,5.072-5.073-5.072Zm-10.146-1.776,5.073-5.072,5.073,5.072Zm6.328-6.327,5.072-5.072v10.143Zm0-14.431,5.072-5.071v10.143Zm-1.255-1.255-5.073-5.072h10.146Zm-5.073-6.847,5.073-5.073,5.073,5.073Zm3.818,8.1-5.072,5.072V870.342Zm1.255,1.256,5.073,5.072h-10.146Zm8.1-6.327,5.071,5.071-5.071,5.072Zm-6.849-9.359,5.072-5.071v10.143Zm-1.255-1.255-5.073-5.072h10.146Zm-1.255,1.255-5.072,5.072V855.912Zm-6.849,19.5-5.071-5.072,5.071-5.071Zm13.177,3.031-5.073,5.073-5.073-5.073Zm9.357-6.847,5.073,5.072h-10.144Zm1.257-1.256,5.072-5.071v10.143Zm6.849-5.071,5.071,5.071-5.071,5.072Zm6.326,6.327,5.072,5.072H1523.75Zm1.255-1.256,5.072-5.071v10.143Zm6.849-5.071,5.071,5.071-5.071,5.072Zm6.326,6.327,5.072,5.072H1538.18Zm1.256-1.256,5.071-5.071v10.143Zm6.848-5.07,5.072,5.071-5.072,5.071Zm-8.1,3.815-5.071-5.072h10.143Zm-14.43,0-5.071-5.072h10.143Zm-14.432,0-5.071-5.072h10.144Zm-28.86,0-5.074-5.072H1490.6Zm-6.327-3.816,5.071,5.071-5.071,5.072Zm-1.777,10.143-5.072-5.072,5.072-5.071Zm-6.327-6.327-5.074-5.072h10.146Zm-1.256,1.255-5.073,5.073V870.341Zm1.256,1.256,5.072,5.072h-10.146Zm14.431,0,5.073,5.072h-10.147Zm13.175,13.175-5.072,5.071V884.772Zm0,14.43-5.072,5.072V899.2Zm0,14.43-5.072,5.072V913.633Zm0,28.862-5.072,5.072V942.493Zm10.612,6.328,5.073-5.073,5.073,5.073Zm43.294-72.153,5.072-5.072,5.071,5.072Zm-6.468-14.43h-38.079V853.4l-4.216-4.216Zm-54.287-13.91v13.91h-24.768l27.143-16.286Zm-27.086,49.985v-5.439h12.656v5.439Zm12.656-7.215h-12.656V883.516h12.656Zm14.43,56.467-5.071-5.072,5.071-5.073Zm-6.326-3.817,5.073,5.073h-10.145Z" fill="#303030"/>
        <path id="Path_271" data-name="Path 271" d="M1732.571,951.436l1.255-1.255-.535-.536h1.534V947.87h-3.311l-1.79-1.791-1.255,1.255.535.536h-2.418l-1.79-1.791-1.255,1.255.535.536h-2.421l-1.79-1.791-1.255,1.255.535.536h-2.424l-1.791-1.791-1.255,1.255.535.536h-1.433a6.944,6.944,0,0,0-6.824-6.662h-4.939l-5.931-5.483h-38.264c-6.111,0-11.086,5.846-11.086,13.032,0,6.836,4.5,12.447,10.2,12.983v28.43h18.035l-.692-1.3a8.959,8.959,0,0,0-5.836-4.715v-8.5h2.943v-8.044h-2.943v-5.813h27.647l5.929-5.485h4.957a6.943,6.943,0,0,0,6.806-6.663h3.21l1.79,1.791,1.256-1.255-.535-.536h2.42l1.791,1.791,1.255-1.255-.535-.536h2.421l1.79,1.791,1.255-1.255-.535-.536h2.421ZM1668.6,969.381v4.494h-1.166v-4.494Zm-2.943-1.775v17.911l.669.172a7.57,7.57,0,0,1,4.546,2.7h-13.168v-26.6h7.953Zm28.727-7.588h-37.569c-5.132,0-9.309-5.052-9.309-11.261s4.177-11.257,9.309-11.257h37.571l5.387,4.983v12.55Zm11.552-5.485h-4.386v-11.55h4.378c.523.015,5.111.3,5.111,5.774C1711.043,954.2,1706.505,954.515,1705.94,954.533Z" fill="#303030"/>
        <rect id="Rectangle_203" data-name="Rectangle 203" width="8.33" height="1.775" transform="translate(1656.819 942.365)" fill="#303030"/>
        <path id="Path_272" data-name="Path 272" d="M1686.456,1029.755v-7.813h-26.03v7.813h6.751v15.669l12.528-7.233v-8.436Zm-24.253-6.038h10.351v2.546h1.777v-2.546h10.348v4.262H1662.2Zm15.725,13.449-8.974,5.183v-12.594h8.974Z" fill="#303030"/>
        <path id="Path_273" data-name="Path 273" d="M1663.082,829.914h6.751v15.668l12.528-7.233v-8.435h6.751V822.1h-26.03Zm17.5,7.41-8.974,5.183V829.914h8.974Zm-15.725-13.449h10.348v2.547h1.777v-2.547h10.351v4.263h-22.476Z" fill="#303030"/>
        <rect id="Rectangle_204" data-name="Rectangle 204" width="12.414" height="1.776" transform="matrix(0.866, -0.5, 0.5, 0.866, 1670.277, 847.434)" fill="#303030"/>
        <rect id="Rectangle_205" data-name="Rectangle 205" width="12.414" height="1.776" transform="matrix(0.866, -0.5, 0.5, 0.866, 1670.277, 851.813)" fill="#303030"/>
        <rect id="Rectangle_206" data-name="Rectangle 206" width="12.415" height="1.776" transform="translate(1670.277 856.512) rotate(-30.009)" fill="#303030"/>
        <path id="Path_274" data-name="Path 274" d="M1682.361,865.453V854.232l-12.528,7.233v3.988l6.262,8Zm-10.751-2.963,8.974-5.183v7.533l-4.489,5.736-4.485-5.736Z" fill="#303030"/>
        <path id="Path_275" data-name="Path 275" d="M1537.12,903.4h6.751V895.59h-26.032V903.4h6.751v15.67l12.53-7.233Zm-17.5-6.038h10.35v2.548h1.777v-2.548h10.351v4.263h-22.478ZM1526.367,916V903.4h8.976v7.412Z" fill="#303030"/>
        <rect id="Rectangle_207" data-name="Rectangle 207" width="12.416" height="1.776" transform="translate(1525.033 920.923) rotate(-29.982)" fill="#303030"/>
        <rect id="Rectangle_208" data-name="Rectangle 208" width="12.415" height="1.776" transform="translate(1525.035 925.304) rotate(-29.992)" fill="#303030"/>
        <rect id="Rectangle_209" data-name="Rectangle 209" width="12.416" height="1.776" transform="translate(1525.035 930.001) rotate(-30)" fill="#303030"/>
        <path id="Path_276" data-name="Path 276" d="M1524.59,938.941l6.262,8.007,6.268-8.006V927.721l-12.53,7.233Zm1.777-2.962,8.976-5.183v7.533l-4.491,5.737-4.485-5.737Z" fill="#303030"/>
        <path id="Path_277" data-name="Path 277" d="M1659.33,998.526v13.327l11.54,6.664,11.543-6.664V998.526l-11.543-6.662Zm21.307,12.3-9.767,5.638-9.763-5.638V999.551l9.763-5.638,9.767,5.638Z" fill="#303030"/>
        <path id="Path_278" data-name="Path 278" d="M1664.1,1005.189a6.776,6.776,0,1,0,6.774-6.774A6.782,6.782,0,0,0,1664.1,1005.189Zm11.775,0a5,5,0,1,1-5-5A5.006,5.006,0,0,1,1675.871,1005.189Z" fill="#303030"/>
        <path id="Path_279" data-name="Path 279" d="M1551.676,852.884v13.327l11.54,6.662,11.542-6.662V852.884l-11.542-6.663Zm21.3,12.3-9.765,5.638-9.764-5.638V853.909l9.764-5.637,9.765,5.637Z" fill="#303030"/>
        <path id="Path_280" data-name="Path 280" d="M1556.442,859.546a6.774,6.774,0,1,0,6.774-6.773A6.781,6.781,0,0,0,1556.442,859.546Zm11.771,0a5,5,0,1,1-5-5A5,5,0,0,1,1568.213,859.546Z" fill="#303030"/>
        <path id="Path_281" data-name="Path 281" d="M1498.127,842.3V828.969l-11.541-6.663-11.542,6.663V842.3l11.542,6.663Zm-21.306-12.3,9.765-5.638,9.764,5.638v11.276l-9.764,5.638-9.765-5.638Z" fill="#303030"/>
        <path id="Path_282" data-name="Path 282" d="M1493.36,835.632a6.774,6.774,0,1,0-6.774,6.775A6.782,6.782,0,0,0,1493.36,835.632Zm-11.772,0a5,5,0,1,1,5,5A5,5,0,0,1,1481.588,835.632Z" fill="#303030"/>
        <path id="Path_283" data-name="Path 283" d="M1700.275,984.627V971.3l-11.543-6.662-11.54,6.662v13.327l11.54,6.663Zm-21.306-12.3,9.763-5.638,9.767,5.638V983.6l-9.767,5.638-9.763-5.638Z" fill="#303030"/>
        <path id="Path_284" data-name="Path 284" d="M1695.51,977.963a6.776,6.776,0,1,0-6.778,6.775A6.783,6.783,0,0,0,1695.51,977.963Zm-11.775,0a5,5,0,1,1,5,5A5,5,0,0,1,1683.735,977.963Z" fill="#303030"/>
        <path id="Path_285" data-name="Path 285" d="M1461.162,826.559a6.046,6.046,0,0,0,3.8,2.708,6.141,6.141,0,0,0,1.375.158A6.092,6.092,0,0,0,1467.7,817.4a6.147,6.147,0,0,0-1.376-.157,6.092,6.092,0,0,0-5.16,9.318Zm.962-4.2a4.314,4.314,0,1,1,8.406,1.944,4.337,4.337,0,0,1-5.174,3.232,4.315,4.315,0,0,1-3.232-5.176Z" fill="#303030"/>
        <path id="Path_286" data-name="Path 286" d="M1459.729,818.137l-.46.647-2.81.256-.879,3.821,2.41,1.463.13.783-1.805,2.167,2.077,3.323,2.74-.668.645.461.259,2.81,3.818.881,1.465-2.41.784-.131,2.168,1.8,3.326-2.076-.67-2.739.459-.645,2.809-.257.885-3.822-2.415-1.461-.13-.784,1.8-2.169-2.078-3.323-2.738.667-.645-.46-.26-2.808-3.817-.884-1.466,2.412-.78.129-2.171-1.8-3.322,2.078Zm1.362-1.915,1.147-.716,1.808,1.5,2.385-.4,1.222-2.01,1.316.3.215,2.342,1.97,1.4,2.283-.556.717,1.146-1.505,1.808.4,2.39,2.011,1.218-.3,1.317-2.344.215-1.4,1.971.558,2.282-1.146.714-1.809-1.5-2.387.4-1.22,2.009-1.318-.3-.216-2.34-1.968-1.408-2.284.557-.717-1.145,1.505-1.806-.4-2.388-2.009-1.22.3-1.318,2.342-.213,1.4-1.972Z" fill="#303030"/>
        <path id="Path_287" data-name="Path 287" d="M1548.133,1012.935a6.093,6.093,0,0,0-5.94,7.464,6.061,6.061,0,0,0,5.93,4.72,6.161,6.161,0,0,0,1.376-.158,6.091,6.091,0,0,0-1.366-12.026Zm3.655,8.378a4.293,4.293,0,0,1-2.689,1.918,4.364,4.364,0,0,1-.976.112,4.314,4.314,0,1,1,3.665-2.03Z" fill="#303030"/>
        <path id="Path_288" data-name="Path 288" d="M1558.878,1018.553l-.884-3.819-2.808-.256-.46-.647.665-2.74-3.322-2.078-2.169,1.8-.781-.13-1.463-2.412-3.822.884-.257,2.808-.646.46-2.74-.669-2.077,3.325,1.8,2.169-.131.783-2.409,1.462.882,3.822,2.807.257.461.645-.667,2.739,3.323,2.076,2.17-1.8.779.131,1.468,2.41,3.817-.881.259-2.81.646-.461,2.739.669,2.076-3.324-1.8-2.167.13-.783Zm-4.028.37-.4,2.388,1.5,1.806-.715,1.145-2.284-.557-1.97,1.406-.217,2.342-1.316.3-1.22-2.009-2.385-.4-1.81,1.5-1.146-.715.555-2.282-1.4-1.971-2.342-.215-.3-1.317,2.01-1.22.4-2.388-1.505-1.807.717-1.147,2.284.556,1.97-1.4.215-2.342,1.318-.3,1.218,2.01,2.39.4,1.805-1.5,1.146.717-.556,2.284,1.408,1.971,2.339.213.305,1.317Z" fill="#303030"/>
        <path id="Path_289" data-name="Path 289" d="M1611.482,853.857a6.171,6.171,0,0,0,1.378.158,6.092,6.092,0,0,0,1.365-12.027,6.155,6.155,0,0,0-1.377-.157,6.091,6.091,0,0,0-1.366,12.026Zm-2.832-6.9a4.315,4.315,0,1,1,8.408,1.942,4.345,4.345,0,0,1-5.176,3.232,4.315,4.315,0,0,1-3.232-5.174Z" fill="#303030"/>
        <path id="Path_290" data-name="Path 290" d="M1602.987,843.63l-.881,3.821,2.409,1.463.13.782-1.805,2.168,2.078,3.325,2.741-.669.644.459.258,2.81,3.821.885,1.464-2.412.782-.132,2.169,1.8,3.326-2.072-.671-2.742.461-.645,2.808-.257.885-3.822-2.413-1.461-.131-.784,1.8-2.167-2.077-3.325-2.74.667-.646-.46-.257-2.808-3.82-.884-1.465,2.411-.781.131-2.17-1.8-3.323,2.076.668,2.741-.459.646Zm3.781,1.438,1.407-1.97-.559-2.285,1.147-.716,1.81,1.5,2.386-.4,1.22-2.008,1.316.3.215,2.342,1.97,1.4,2.284-.556.717,1.148-1.5,1.806.4,2.39,2.01,1.217-.3,1.318-2.341.215-1.406,1.971.559,2.282-1.147.715-1.808-1.5-2.388.4-1.219,2.007-1.318-.3-.214-2.342-1.969-1.4-2.285.556-.717-1.146,1.5-1.806-.4-2.388-2.009-1.22.3-1.318Z" fill="#303030"/>
        <path id="Path_291" data-name="Path 291" d="M1509.45,1017.629a6.169,6.169,0,0,0-1.377-.158,6.092,6.092,0,0,0-1.368,12.027,6.17,6.17,0,0,0,1.377.158,6.092,6.092,0,0,0,1.368-12.027Zm2.832,6.908a4.349,4.349,0,0,1-5.177,3.23,4.315,4.315,0,1,1,5.177-3.23Z" fill="#303030"/>
        <path id="Path_292" data-name="Path 292" d="M1517.945,1027.856l.882-3.819-2.41-1.463-.13-.784,1.805-2.169-2.078-3.323-2.739.666-.646-.46-.258-2.807-3.821-.884-1.463,2.412-.781.129-2.17-1.8-3.326,2.078.67,2.74-.461.647-2.807.256-.884,3.821,2.411,1.463.131.783-1.8,2.169,2.076,3.321,2.74-.669.646.463.257,2.809,3.82.881,1.465-2.41.783-.132,2.17,1.8,3.321-2.076-.667-2.739.46-.645Zm-3.782-1.436-1.4,1.971.558,2.281-1.145.715-1.81-1.5-2.388.4-1.22,2.009-1.316-.3-.215-2.34-1.97-1.407-2.284.556-.715-1.143,1.5-1.808-.4-2.388-2.008-1.219.306-1.318,2.338-.213,1.409-1.973-.558-2.283,1.146-.717,1.806,1.5,2.39-.395,1.219-2.011,1.318.305.214,2.342,1.971,1.4,2.284-.556.716,1.146-1.5,1.807.4,2.39,2.01,1.22-.3,1.316Z" fill="#303030"/>
        <path id="Path_293" data-name="Path 293" d="M1630.079,852.114v-13.6H1628.3v13.6h-1.881l-5.917,10.139,6.53,20.667h5.413v7.633h.889a5.893,5.893,0,1,1-5.894,5.892h-1.777a7.67,7.67,0,1,0,8.559-7.616V882.92h5.414l6.53-20.667-5.917-10.139h-1.883v-13.6h-1.777v13.6Zm-4.394,4.786h2.786l-5.058,8.666-.98-3.1Zm16.306,1.719-3.636,6.232a5.212,5.212,0,0,0-1.4-2.386l3.25-5.565h.778Zm-5.342,6.7h-2.425V862.9A3.432,3.432,0,0,1,1636.649,865.322Zm-4.2-2.426v2.426h-2.425A3.434,3.434,0,0,1,1632.447,862.9Zm-3.814,5.541a5.211,5.211,0,0,0,1.631,1.973l-3.451,5.917-.978-3.1Zm1.389-1.339h2.425v2.426A3.434,3.434,0,0,1,1630.022,867.1Zm4.2,0h2.425a3.432,3.432,0,0,1-2.425,2.426Zm1.264-5.633a5.184,5.184,0,0,0-2.152-.476c-.129,0-.251.029-.377.038l2.408-4.127h2.788Zm-5.1.439a5.209,5.209,0,0,0-2.227,3.815l-3.052,5.227-.978-3.1,6.391-10.95h2.788Zm-2.856,16.707,4.326-7.418a4.693,4.693,0,0,0,2.756.06l-5.773,9.892h-.509Zm10.8,2.534h-2.6l5.665-9.7Zm5.489-17.373-10.143,17.373H1630.9l12.12-20.766,1.221,2.089Zm-3.874-8.647H1626.72l.722-1.236h11.788Z" fill="#303030"/>
        <path id="Path_294" data-name="Path 294" d="M1685.862,837.364a7.276,7.276,0,1,0,7.276-7.277A7.285,7.285,0,0,0,1685.862,837.364Zm1.866.888h4.521v4.524A5.489,5.489,0,0,1,1687.728,838.252Zm6.3,4.524v-4.524h4.522A5.489,5.489,0,0,1,1694.026,842.776Zm4.522-6.3h-4.522v-4.525A5.489,5.489,0,0,1,1698.548,836.477Zm-6.3-4.525v4.525h-4.521A5.489,5.489,0,0,1,1692.249,831.952Z" fill="#303030"/>
        <path id="Path_295" data-name="Path 295" d="M1550.259,851.162a7.278,7.278,0,1,0-7.277,7.279A7.285,7.285,0,0,0,1550.259,851.162Zm-6.388,5.414V852.05h4.522A5.491,5.491,0,0,1,1543.871,856.576Zm4.522-6.3h-4.522V845.75A5.49,5.49,0,0,1,1548.393,850.274Zm-6.3-4.524v4.524h-4.524A5.494,5.494,0,0,1,1542.094,845.75Zm-4.524,6.3h4.524v4.526A5.492,5.492,0,0,1,1537.57,852.05Z" fill="#303030"/>
        <path id="Path_296" data-name="Path 296" d="M1551.849,814.318a7.277,7.277,0,1,0-7.276-7.278A7.286,7.286,0,0,0,1551.849,814.318Zm-5.41-6.391h4.521v4.526A5.489,5.489,0,0,1,1546.439,807.927Zm6.3,4.526v-4.526h4.522A5.489,5.489,0,0,1,1552.737,812.453Zm4.522-6.3h-4.522v-4.524A5.489,5.489,0,0,1,1557.259,806.152Zm-6.3-4.524v4.524h-4.521A5.49,5.49,0,0,1,1550.96,801.628Z" fill="#303030"/>
        <path id="Path_297" data-name="Path 297" d="M1694.026,924.892a7.277,7.277,0,1,0-7.276,7.277A7.286,7.286,0,0,0,1694.026,924.892Zm-6.387,5.412V925.78h4.521A5.488,5.488,0,0,1,1687.639,930.3Zm4.521-6.3h-4.521v-4.526A5.488,5.488,0,0,1,1692.16,924.005Zm-6.3-4.526v4.526h-4.524A5.491,5.491,0,0,1,1685.862,919.479Zm-4.524,6.3h4.524V930.3A5.493,5.493,0,0,1,1681.338,925.78Z" fill="#303030"/>
        <path id="Path_298" data-name="Path 298" d="M1580.506,902.121a7.277,7.277,0,1,0,7.278-7.279A7.286,7.286,0,0,0,1580.506,902.121Zm6.39-5.414v4.526h-4.524A5.49,5.49,0,0,1,1586.9,896.707Zm-4.524,6.3h4.524v4.524A5.489,5.489,0,0,1,1582.372,903.008Zm6.3,4.524v-4.524h4.521A5.486,5.486,0,0,1,1588.673,907.532Zm4.521-6.3h-4.521v-4.526A5.489,5.489,0,0,1,1593.194,901.233Z" fill="#303030"/>
        <path id="Path_299" data-name="Path 299" d="M1623.777,1030.015a7.276,7.276,0,1,0,7.277-7.277A7.286,7.286,0,0,0,1623.777,1030.015Zm6.388-5.412v4.524h-4.521A5.488,5.488,0,0,1,1630.165,1024.6Zm-4.521,6.3h4.521v4.525A5.486,5.486,0,0,1,1625.644,1030.9Zm6.3,4.525V1030.9h4.522A5.488,5.488,0,0,1,1631.942,1035.428Zm4.522-6.3h-4.522V1024.6A5.489,5.489,0,0,1,1636.464,1029.127Z" fill="#303030"/>
        <path id="Path_300" data-name="Path 300" d="M1493.319,1028.263v-13.408h3.438v-9.271h-55.409v9.271h3.439v51.9l-5.828,7.852h60.188l-5.828-7.851Zm-50.195-15.183v-5.72h51.856v5.72h-51.856Zm3.438,1.775h44.98v2.694h-44.98Zm0,4.469h44.98v2.694h-44.98Zm44.98,4.469v2.7h-44.98v-2.7Zm0,4.47v37.9h-44.98v-37.9Zm-49.054,44.567,3.633-4.893h45.863l3.632,4.893Z" fill="#303030"/>
        <path id="Path_301" data-name="Path 301" d="M1463.357,851.35a7.277,7.277,0,1,0,7.279-7.277A7.287,7.287,0,0,0,1463.357,851.35Zm6.391-5.411v4.524h-4.525A5.485,5.485,0,0,1,1469.748,845.939Zm-4.525,6.3h4.525v4.526A5.49,5.49,0,0,1,1465.223,852.238Zm6.3,4.526v-4.526h4.522A5.49,5.49,0,0,1,1471.524,856.764Zm4.522-6.3h-4.522v-4.524A5.487,5.487,0,0,1,1476.046,850.463Z" fill="#303030"/>
        <path id="Path_302" data-name="Path 302" d="M1573.62,826.617l12.528-7.233v-8.437h6.751v-7.813h-26.03v7.813h6.751Zm10.751-8.258-8.974,5.183V810.947h8.974Zm-15.725-13.45h10.348v2.548h1.777v-2.548h10.351v4.263h-22.476Z" fill="#303030"/>
        <rect id="Rectangle_210" data-name="Rectangle 210" width="12.416" height="1.776" transform="translate(1574.061 828.467) rotate(-29.983)" fill="#303030"/>
        <rect id="Rectangle_211" data-name="Rectangle 211" width="12.414" height="1.776" transform="matrix(0.866, -0.5, 0.5, 0.866, 1574.064, 832.848)" fill="#303030"/>
        <rect id="Rectangle_212" data-name="Rectangle 212" width="12.414" height="1.776" transform="matrix(0.866, -0.5, 0.5, 0.866, 1574.064, 837.545)" fill="#303030"/>
        <path id="Path_303" data-name="Path 303" d="M1573.62,846.485l6.262,8.007,6.266-8.006V835.265L1573.62,842.5Zm1.777-2.962,8.974-5.183v7.533l-4.489,5.737-4.485-5.737Z" fill="#303030"/>
        <path id="Path_304" data-name="Path 304" d="M1475.452,998V984.674l-11.542-6.663-11.542,6.663V998l11.542,6.663Zm-21.308-12.3,9.766-5.638,9.765,5.638v11.276l-9.765,5.638-9.766-5.638Z" fill="#303030"/>
        <path id="Path_305" data-name="Path 305" d="M1470.684,991.336a6.774,6.774,0,1,0-6.774,6.776A6.782,6.782,0,0,0,1470.684,991.336Zm-11.772,0a5,5,0,1,1,5,5A5,5,0,0,1,1458.912,991.336Z" fill="#303030"/>
        <path id="Path_306" data-name="Path 306" d="M1461.624,973.09a6.152,6.152,0,0,0,1.375.156,6.092,6.092,0,0,0,1.37-12.027,6.138,6.138,0,0,0-1.375-.157,6.093,6.093,0,0,0-1.37,12.028Zm-2.83-6.907a4.314,4.314,0,1,1,8.407,1.944,4.314,4.314,0,1,1-8.407-1.944Z" fill="#303030"/>
        <path id="Path_307" data-name="Path 307" d="M1454.789,968.927l-1.8,2.169,2.077,3.324,2.74-.669.646.461.257,2.808,3.819.884,1.465-2.411.784-.131,2.168,1.8,3.323-2.075-.667-2.741.459-.645,2.809-.258.882-3.819-2.41-1.463-.13-.782,1.8-2.17-2.078-3.325-2.74.669-.645-.46-.258-2.81-3.82-.881-1.465,2.41-.781.13-2.17-1.8-3.325,2.075.67,2.742-.462.646-2.806.257-.885,3.819,2.412,1.465Zm-.218-4.413,2.339-.215,1.408-1.97-.559-2.286,1.147-.715,1.807,1.5,2.387-.4,1.22-2.009,1.319.305.214,2.342,1.971,1.4,2.284-.556.716,1.147-1.5,1.807.4,2.388,2.01,1.22-.3,1.316-2.344.215-1.4,1.971.557,2.283-1.145.715-1.809-1.5-2.387.4-1.22,2.008-1.317-.3-.215-2.341-1.97-1.405-2.284.556-.717-1.145,1.505-1.808-.4-2.386-2.008-1.22Z" fill="#303030"/>
        <path id="Path_308" data-name="Path 308" d="M1483.857,1004.5a7.278,7.278,0,1,0-7.278-7.279A7.285,7.285,0,0,0,1483.857,1004.5Zm-5.411-6.391h4.523v4.526A5.491,5.491,0,0,1,1478.446,998.11Zm6.3,4.526V998.11h4.52A5.489,5.489,0,0,1,1484.746,1002.636Zm4.52-6.3h-4.52V991.81A5.488,5.488,0,0,1,1489.266,996.335Zm-6.3-4.525v4.525h-4.523A5.491,5.491,0,0,1,1482.969,991.81Z" fill="#303030"/>
        <path id="Path_309" data-name="Path 309" d="M1475.929,935.352a6.155,6.155,0,0,0,1.376-.158,6.092,6.092,0,0,0-1.368-12.027,6.1,6.1,0,0,0-5.939,7.466A6.062,6.062,0,0,0,1475.929,935.352Zm-.968-10.3a4.315,4.315,0,1,1-3.232,5.177A4.31,4.31,0,0,1,1474.961,925.056Z" fill="#303030"/>
        <path id="Path_310" data-name="Path 310" d="M1465.182,929.733l.882,3.82,2.81.257.459.645-.668,2.739,3.324,2.076,2.168-1.8.783.132,1.464,2.41,3.82-.881.259-2.81.645-.462,2.739.669,2.078-3.321-1.8-2.17.13-.782,2.411-1.463-.881-3.821-2.808-.256-.461-.647.667-2.741-3.324-2.077-2.17,1.8-.781-.129-1.463-2.412-3.82.884-.259,2.807-.646.46-2.738-.666-2.078,3.323,1.806,2.169-.131.784Zm4.03-.368.4-2.389-1.5-1.808.717-1.146,2.282.556,1.97-1.4.216-2.342,1.317-.3,1.222,2.011,2.386.4,1.807-1.5,1.148.716-.559,2.283,1.406,1.973,2.341.213.3,1.318-2.008,1.219-.4,2.389,1.5,1.807-.716,1.144-2.284-.557-1.969,1.408-.216,2.339-1.316.3-1.221-2.009-2.388-.4-1.808,1.5-1.146-.715.558-2.281-1.4-1.971-2.342-.215-.3-1.316Z" fill="#303030"/>
        <path id="Path_311" data-name="Path 311" d="M1512.609,823.76a16.639,16.639,0,0,0,2.274,3.689c6.806,11.486,6.166,16.159,6.145,16.356v8.937h12.853l-.013-9.087c-.008-.047-.646-4.72,6.081-16.1a17.548,17.548,0,0,0,2.348-3.775,1.555,1.555,0,0,0,.238-.537,17.674,17.674,0,0,0,1.359-6.818c0-9.458-7.375-17.153-16.439-17.153s-16.438,7.7-16.438,17.153a17.331,17.331,0,0,0,1.316,6.7A1.939,1.939,0,0,0,1512.609,823.76Zm10.194,27.206-.008-4.074h9.309v4.074Zm3.734-5.849-2.574-29.042,1.182,1.37,2.31-2.673,2.309,2.673,1.179-1.366-2.573,29.038Zm.918-44.065c8.086,0,14.662,6.9,14.662,15.377a15.915,15.915,0,0,1-1.221,6.136l-.214.461a16.1,16.1,0,0,1-2.185,3.518c-7.238,12.222-6.416,17.217-6.393,17.261v1.312h-1.948l3.043-34.369-3.435,3.981-2.309-2.674-2.31,2.675-3.438-3.979,3.047,34.366h-1.962l0-1.149c.04-.207.864-5.2-6.453-17.534a15.406,15.406,0,0,1-2.108-3.408l-.214-.461a15.915,15.915,0,0,1-1.219-6.136C1512.794,807.95,1519.37,801.052,1527.455,801.052Z" fill="#303030"/>
        <path id="Path_312" data-name="Path 312" d="M1502.438,838.518a7.276,7.276,0,1,0,7.276-7.277A7.285,7.285,0,0,0,1502.438,838.518Zm1.866.887h4.522v4.526A5.488,5.488,0,0,1,1504.3,839.405Zm6.3,4.526v-4.526h4.521A5.488,5.488,0,0,1,1510.6,843.931Zm4.521-6.3H1510.6v-4.524A5.489,5.489,0,0,1,1515.124,837.63Zm-6.3-4.524v4.524H1504.3A5.49,5.49,0,0,1,1508.826,833.106Z" fill="#303030"/>
        <path id="Path_313" data-name="Path 313" d="M1423.088,803.281v6.311h-5.607v4.346h-14.245c-9.5,0-15.407,3.266-17.552,9.727-1.4,3.337-1.913,8.485-1.538,15.3l.046.839h11.853l-.05-.936c-.252-4.64.018-9.2.627-10.6q.15-.34.33-.882c.253-.764,2.036-1.581,6.284-1.581h13.23c.517,3.127,3.67,5.548,7.509,5.548s6.992-2.421,7.509-5.548h6.554V813.938h-7.569v-4.346h-5.606v-6.311a6.466,6.466,0,0,0,5.516-5.518h7.61v-1.775h-7.61a6.461,6.461,0,0,0-12.808,0h-7.61v1.775h7.61A6.466,6.466,0,0,0,1423.088,803.281Zm-37.211,34.745c-.029-.64-.044-1.255-.057-1.862h8.312c.007.626.021,1.25.046,1.862Zm38.1-8.45c-2.839,0-5.206-1.627-5.728-3.773H1429.7C1429.181,827.949,1426.814,829.576,1423.975,829.576Zm12.288-13.863v8.315h-33.027c-4.739,0-7.346.915-7.97,2.8-.1.3-.188.54-.271.73-.56,1.287-.813,3.953-.859,6.832h-8.324a27.976,27.976,0,0,1,1.562-10.182c1.872-5.635,7.208-8.493,15.862-8.493h33.027Zm-7.57-1.775h-9.437v-2.571h9.437Zm-4.718-21.779a4.719,4.719,0,1,1-4.719,4.717A4.723,4.723,0,0,1,1423.975,792.159Z" fill="#303030"/>
        <path id="Path_314" data-name="Path 314" d="M1393.683,852.41c0-2.148-.991-4.741-3.657-9.567l-.777-1.407-.777,1.407c-2.665,4.825-3.655,7.417-3.655,9.567a4.433,4.433,0,1,0,8.866,0Zm-7.091,0c0-1.591.758-3.693,2.657-7.274,1.9,3.582,2.659,5.684,2.659,7.274a2.658,2.658,0,1,1-5.316,0Z" fill="#303030"/>
        <path id="Path_315" data-name="Path 315" d="M1628.188,836.38a7.278,7.278,0,1,0-7.277-7.279A7.286,7.286,0,0,0,1628.188,836.38Zm-5.411-6.391h4.523v4.526A5.489,5.489,0,0,1,1622.777,829.989Zm6.3,4.526v-4.526h4.522A5.49,5.49,0,0,1,1629.077,834.515Zm4.522-6.3h-4.522V823.69A5.487,5.487,0,0,1,1633.6,828.214Zm-6.3-4.524v4.524h-4.523A5.487,5.487,0,0,1,1627.3,823.69Z" fill="#303030"/>
        <path id="Path_316" data-name="Path 316" d="M1606.347,830.106a8.785,8.785,0,1,0-8.785-8.785A8.794,8.794,0,0,0,1606.347,830.106Zm0-15.794a7.009,7.009,0,1,1-7.008,7.009A7.015,7.015,0,0,1,1606.347,814.312Z" fill="#303030"/>
        <path id="Path_317" data-name="Path 317" d="M1594.7,817.376l-3.948,1.306v5.279l3.948,1.306.623,1.5-1.871,3.715,3.735,3.735,3.714-1.873,1.5.625,1.307,3.947h5.278l1.308-3.947,1.5-.625,3.714,1.873,3.734-3.737-1.871-3.713.622-1.5,3.952-1.306v-5.279l-3.952-1.306-.622-1.5,1.871-3.713-3.736-3.737-3.714,1.872-1.5-.621-1.308-3.949h-5.278l-1.307,3.949-1.5.621-3.716-1.872-3.735,3.737,1.871,3.713Zm2.834-6.789,3.3,1.661,3-1.244,1.159-3.5h2.715l1.159,3.5,3,1.244,3.3-1.661,1.919,1.921-1.66,3.295,1.247,3,3.5,1.159v2.713l-3.5,1.159-1.247,3,1.66,3.295-1.918,1.921-3.3-1.662-3,1.249-1.159,3.5h-2.715l-1.159-3.5-3-1.249-3.3,1.662-1.919-1.92,1.66-3.3-1.247-3-3.5-1.159v-2.713l3.5-1.159,1.247-3-1.66-3.295Z" fill="#303030"/>
        <path id="Path_318" data-name="Path 318" d="M1659.855,825.186V811.859l-11.544-6.663-11.54,6.663v13.327l11.54,6.662Zm-21.307-12.3,9.763-5.638,9.767,5.638V824.16l-9.767,5.638-9.763-5.638Z" fill="#303030"/>
        <path id="Path_319" data-name="Path 319" d="M1655.089,818.521a6.775,6.775,0,1,0-6.778,6.775A6.783,6.783,0,0,0,1655.089,818.521Zm-11.773,0a5,5,0,1,1,4.995,5A5,5,0,0,1,1643.316,818.521Z" fill="#303030"/>
        <path id="Path_320" data-name="Path 320" d="M1628.188,818.13a7.278,7.278,0,1,0-7.277-7.279A7.286,7.286,0,0,0,1628.188,818.13Zm-5.411-6.391h4.523v4.526A5.489,5.489,0,0,1,1622.777,811.739Zm6.3,4.526v-4.526h4.522A5.49,5.49,0,0,1,1629.077,816.265Zm4.522-6.3h-4.522v-4.525A5.489,5.489,0,0,1,1633.6,809.964Zm-6.3-4.525v4.525h-4.523A5.489,5.489,0,0,1,1627.3,805.439Z" fill="#303030"/>
        <path id="Path_321" data-name="Path 321" d="M1508.781,817.516V804.188l-11.544-6.662-11.54,6.662v13.328l11.54,6.662Zm-21.307-12.3,9.763-5.638,9.767,5.638V816.49l-9.767,5.638-9.763-5.638Z" fill="#303030"/>
        <path id="Path_322" data-name="Path 322" d="M1504.015,810.851a6.775,6.775,0,1,0-6.778,6.775A6.783,6.783,0,0,0,1504.015,810.851Zm-11.773,0a5,5,0,1,1,5,5A5,5,0,0,1,1492.242,810.851Z" fill="#303030"/>
        <path id="Path_323" data-name="Path 323" d="M1437.755,812.4l11.541,6.663,11.541-6.663V799.075l-11.541-6.663-11.541,6.663Zm1.775-12.3,9.766-5.638,9.766,5.638v11.276l-9.766,5.638-9.766-5.638Z" fill="#303030"/>
        <path id="Path_324" data-name="Path 324" d="M1456.069,805.738a6.773,6.773,0,1,0-6.773,6.775A6.781,6.781,0,0,0,1456.069,805.738Zm-11.771,0a5,5,0,1,1,5,5A5,5,0,0,1,1444.3,805.738Z" fill="#303030"/>
        <path id="Path_325" data-name="Path 325" d="M1453.316,827.41a7.277,7.277,0,1,0-7.275,7.279A7.284,7.284,0,0,0,1453.316,827.41Zm-6.387,5.414V828.3h4.522A5.489,5.489,0,0,1,1446.929,832.824Zm4.522-6.3h-4.522V822A5.487,5.487,0,0,1,1451.451,826.523Zm-6.3-4.525v4.525h-4.525A5.486,5.486,0,0,1,1445.153,822Zm-4.525,6.3h4.525v4.526A5.487,5.487,0,0,1,1440.628,828.3Z" fill="#303030"/>
      </g>
    </g>
  </g>
</svg>
