<svg xmlns="http://www.w3.org/2000/svg" width="85.013" height="75" viewBox="0 0 85.013 75">
  <g id="backlinks-icon" transform="translate(-457.746 -411.436)">
    <path id="Path_344" data-name="Path 344" d="M490.814,421.075H479.507l.863-8.729a.829.829,0,0,0-1.4-.682L458,431.549a.829.829,0,0,0,.026,1.224l21.5,18.775a.829.829,0,0,0,1.365-.75l-1.231-8.043h.3c1.132,0,3.176,0,6.818,0,1.7,0,3.043.042,4.219.128.789.059,1.509.139,2.2.243.2.032.347.05.465.066l.008,0a18.411,18.411,0,0,1,7.34,3.057c3,2.156,5.94,5.56,9.126,10.568a.827.827,0,0,0,1.526-.444C511.659,432.621,504.841,421.075,490.814,421.075Zm10.9,23.648c-.021-.016-.027-.026-.048-.043a16.452,16.452,0,0,0-6.787-2.912.747.747,0,0,0-.082-.04,7.056,7.056,0,0,0-.924-.176c-.11-.014-.243-.032-.432-.061-.04,0-.083-.01-.123-.016-.489-.075-.793-.107-.793-.107l.01,0c-.456-.054-.921-.1-1.418-.139-1.218-.09-2.6-.131-4.342-.131-5.928,0-7.574,0-8.005-.006a.62.62,0,0,0-.078,0,.848.848,0,0,0-.916.833.782.782,0,0,0,.16.5l.977,6.385L459.8,432.124l18.7-17.73-.734,7.427a.828.828,0,0,0,.825.911l12.221,0c7.131,0,12.128,3.223,15.277,9.854,2.392,5.037,3.668,11.924,3.88,20.995A34.254,34.254,0,0,0,501.715,444.722Z" transform="translate(0)" fill="#191919"/>
    <path id="Path_345" data-name="Path 345" d="M529.646,435.289c-.014-.038-.04-.072-.054-.109-.022-.056-.056-.107-.08-.161a5.545,5.545,0,0,0-1.146-1.731l-1.525-1.525a5.464,5.464,0,0,0-1.382-.973,5.271,5.271,0,0,0-.578-.289l-.027-.014v-.011a5.769,5.769,0,0,0-.87-.246l-.037,0c-.064-.013-.128-.018-.19-.029l-.016,0a5.587,5.587,0,0,0-.748-.07c-.053,0-.105-.016-.16-.016h0a5.655,5.655,0,0,0-4.027,1.656L508.155,442.41a5.627,5.627,0,0,0-.759.953,4.9,4.9,0,0,0-.879,2.838,5.8,5.8,0,0,0,.029.726c0,.029,0,.056,0,.086l.006.018a5.614,5.614,0,0,0,1.6,3.4l.176.176-5,5-.176-.176a5.675,5.675,0,0,0-8.016,0l-10.647,10.648a5.7,5.7,0,0,0,0,8.015l1.523,1.525a5.614,5.614,0,0,0,1.99,1.277v.011a5.7,5.7,0,0,0,.868.246c.081.016.163.024.245.037a5.551,5.551,0,0,0,.746.07c.054,0,.107.016.16.016s.086-.011.129-.013a5.639,5.639,0,0,0,.868-.083c.035-.006.07-.006.1-.013a5.7,5.7,0,0,0,.948-.281c.078-.03.153-.067.232-.1a5.769,5.769,0,0,0,.681-.358c.083-.051.166-.1.248-.157a5.6,5.6,0,0,0,.756-.617c.013-.013.03-.022.043-.035l3.2-3.2,7.451-7.451a5.137,5.137,0,0,0,1.627-4.6.815.815,0,0,0-.053-.147,5.613,5.613,0,0,0-1.587-3.259l-.174-.174,5.594-5.6h0l4.842-4.841a.828.828,0,0,0-1.171-1.171l-4.235,4.235-.163-.161a4.017,4.017,0,0,1,0-5.673l10.649-10.648c.018-.018.038-.03.057-.048a3.938,3.938,0,0,1,.518-.424c.064-.043.133-.077.2-.117a3.826,3.826,0,0,1,.454-.238c.077-.034.157-.061.237-.089a3.883,3.883,0,0,1,.455-.134q.129-.031.259-.053a3.981,3.981,0,0,1,.457-.043c.088,0,.176-.013.265-.011a4.455,4.455,0,0,1,.5.048c.062.008.126.013.189.024a3.951,3.951,0,0,1,.708.209l.05.022a4.4,4.4,0,0,1,.438.23c.088.048.177.1.262.15a3.958,3.958,0,0,1,.588.481l1.525,1.521c.093.094.161.2.243.3a4.39,4.39,0,0,1,.324.436,4.017,4.017,0,0,1,.276.524c.013.029.029.058.042.088a4.015,4.015,0,0,1-.885,4.328l-10.649,10.647a4.012,4.012,0,0,1-1.438.921c-.043.016-.086.026-.129.038a4.016,4.016,0,0,1-.643.158c-.1.014-.2.021-.294.027a3.8,3.8,0,0,1-.505.011,3.982,3.982,0,0,1-2.642-1.154l-.176-.176-1.171,1.171.176.176a5.622,5.622,0,0,0,3.343,1.593.783.783,0,0,0,.147.043c.166.014.332.022.5.022l.017,0a5.653,5.653,0,0,0,4.01-1.657L528.365,441.3A5.667,5.667,0,0,0,529.646,435.289ZM504.16,456.764c0-.021-.01-.038-.011-.059C504.15,456.726,504.16,456.744,504.16,456.764Zm-.061-.307a.817.817,0,0,0-.181-.272A.817.817,0,0,1,504.1,456.458Zm-.6,7.343-10.647,10.647c-.018.018-.04.03-.058.048a4.021,4.021,0,0,1-.518.424c-.064.043-.133.077-.2.117a3.942,3.942,0,0,1-.452.238c-.078.034-.158.061-.237.089a4.153,4.153,0,0,1-.457.136c-.085.019-.171.038-.259.051a3.987,3.987,0,0,1-.457.045c-.09,0-.179.011-.268.01a4.032,4.032,0,0,1-.478-.046c-.08-.011-.16-.013-.24-.029a4.1,4.1,0,0,1-.651-.192c-.1-.038-.189-.089-.284-.136a3.961,3.961,0,0,1-1.1-.762l-1.523-1.525a3.869,3.869,0,0,1-.618-.828,4,4,0,0,1,.618-4.844L496.311,456.6a4.017,4.017,0,0,1,5.674,0l.176.176-5.9,5.9a.829.829,0,0,0,0,1.171.828.828,0,0,0,1.171,0l5.886-5.884.174.174A4.015,4.015,0,0,1,503.5,463.8Z" transform="translate(12.745 9.167)" fill="#191919"/>
  </g>
</svg>
